<svg width="300" height="133" viewBox="0 0 300 133" fill="none" xmlns="http://www.w3.org/2000/svg">
<rect width="220" height="116" rx="4" fill="#DCDCDC" fill-opacity="0.5"/>
<rect x="230" width="70" height="116" rx="4" fill="#DCDCDC" fill-opacity="0.5"/>
<path d="M202.646 64.0795C202.401 64.0795 202.19 63.9917 202.014 63.8161C201.839 63.6404 201.751 63.4299 201.751 63.1847C201.751 62.9394 201.839 62.7289 202.014 62.5533C202.19 62.3776 202.401 62.2898 202.646 62.2898C202.891 62.2898 203.102 62.3776 203.277 62.5533C203.453 62.7289 203.541 62.9394 203.541 63.1847C203.541 63.3471 203.499 63.4962 203.416 63.6321C203.337 63.768 203.229 63.8774 203.093 63.9602C202.961 64.0398 202.811 64.0795 202.646 64.0795ZM206.501 64.0795C206.256 64.0795 206.046 63.9917 205.87 63.8161C205.694 63.6404 205.606 63.4299 205.606 63.1847C205.606 62.9394 205.694 62.7289 205.87 62.5533C206.046 62.3776 206.256 62.2898 206.501 62.2898C206.747 62.2898 206.957 62.3776 207.133 62.5533C207.308 62.7289 207.396 62.9394 207.396 63.1847C207.396 63.3471 207.355 63.4962 207.272 63.6321C207.192 63.768 207.085 63.8774 206.949 63.9602C206.816 64.0398 206.667 64.0795 206.501 64.0795ZM210.357 64.0795C210.111 64.0795 209.901 63.9917 209.725 63.8161C209.55 63.6404 209.462 63.4299 209.462 63.1847C209.462 62.9394 209.55 62.7289 209.725 62.5533C209.901 62.3776 210.111 62.2898 210.357 62.2898C210.602 62.2898 210.812 62.3776 210.988 62.5533C211.164 62.7289 211.252 62.9394 211.252 63.1847C211.252 63.3471 211.21 63.4962 211.127 63.6321C211.048 63.768 210.94 63.8774 210.804 63.9602C210.672 64.0398 210.522 64.0795 210.357 64.0795Z" fill="black"/>
<path d="M282.646 64.0795C282.401 64.0795 282.19 63.9917 282.014 63.8161C281.839 63.6404 281.751 63.4299 281.751 63.1847C281.751 62.9394 281.839 62.7289 282.014 62.5533C282.19 62.3776 282.401 62.2898 282.646 62.2898C282.891 62.2898 283.102 62.3776 283.277 62.5533C283.453 62.7289 283.541 62.9394 283.541 63.1847C283.541 63.3471 283.499 63.4962 283.416 63.6321C283.337 63.768 283.229 63.8774 283.093 63.9602C282.961 64.0398 282.811 64.0795 282.646 64.0795ZM286.501 64.0795C286.256 64.0795 286.046 63.9917 285.87 63.8161C285.694 63.6404 285.606 63.4299 285.606 63.1847C285.606 62.9394 285.694 62.7289 285.87 62.5533C286.046 62.3776 286.256 62.2898 286.501 62.2898C286.747 62.2898 286.957 62.3776 287.133 62.5533C287.308 62.7289 287.396 62.9394 287.396 63.1847C287.396 63.3471 287.355 63.4962 287.272 63.6321C287.192 63.768 287.085 63.8774 286.949 63.9602C286.816 64.0398 286.667 64.0795 286.501 64.0795ZM290.357 64.0795C290.111 64.0795 289.901 63.9917 289.725 63.8161C289.55 63.6404 289.462 63.4299 289.462 63.1847C289.462 62.9394 289.55 62.7289 289.725 62.5533C289.901 62.3776 290.111 62.2898 290.357 62.2898C290.602 62.2898 290.812 62.3776 290.988 62.5533C291.164 62.7289 291.252 62.9394 291.252 63.1847C291.252 63.3471 291.21 63.4962 291.127 63.6321C291.048 63.768 290.94 63.8774 290.804 63.9602C290.672 64.0398 290.522 64.0795 290.357 64.0795Z" fill="black"/>
<path d="M300 120L295 117.113L295 122.887L300 120ZM0 120L4.37114e-08 120.5L295.5 120.5L295.5 120L295.5 119.5L-4.37114e-08 119.5L0 120Z" fill="black" fill-opacity="0.75"/>
<path d="M281.139 125.545V126.256H278.312V125.545H281.139ZM279.136 124.239H279.974V129.438C279.974 129.674 280.009 129.852 280.077 129.97C280.148 130.086 280.238 130.164 280.347 130.205C280.459 130.242 280.576 130.261 280.699 130.261C280.791 130.261 280.867 130.257 280.926 130.247C280.985 130.235 281.033 130.226 281.068 130.219L281.239 130.972C281.182 130.993 281.103 131.014 281.001 131.036C280.899 131.059 280.77 131.071 280.614 131.071C280.377 131.071 280.145 131.02 279.918 130.918C279.693 130.817 279.506 130.661 279.357 130.453C279.21 130.245 279.136 129.982 279.136 129.665V124.239ZM282.4 131V125.545H283.238V131H282.4ZM282.826 124.636C282.663 124.636 282.522 124.581 282.403 124.469C282.287 124.358 282.229 124.224 282.229 124.068C282.229 123.912 282.287 123.778 282.403 123.667C282.522 123.556 282.663 123.5 282.826 123.5C282.989 123.5 283.129 123.556 283.245 123.667C283.363 123.778 283.423 123.912 283.423 124.068C283.423 124.224 283.363 124.358 283.245 124.469C283.129 124.581 282.989 124.636 282.826 124.636ZM284.773 131V125.545H285.583V126.398H285.654C285.767 126.107 285.951 125.88 286.204 125.719C286.457 125.556 286.762 125.474 287.117 125.474C287.477 125.474 287.776 125.556 288.015 125.719C288.257 125.88 288.445 126.107 288.58 126.398H288.637C288.776 126.116 288.986 125.892 289.265 125.727C289.544 125.558 289.879 125.474 290.27 125.474C290.758 125.474 291.157 125.627 291.467 125.933C291.777 126.236 291.932 126.708 291.932 127.349V131H291.094V127.349C291.094 126.947 290.984 126.659 290.764 126.487C290.544 126.314 290.284 126.227 289.986 126.227C289.602 126.227 289.305 126.343 289.095 126.575C288.884 126.805 288.779 127.096 288.779 127.449V131H287.926V127.264C287.926 126.954 287.826 126.704 287.624 126.515C287.423 126.323 287.164 126.227 286.847 126.227C286.629 126.227 286.425 126.285 286.236 126.401C286.049 126.517 285.897 126.678 285.781 126.884C285.668 127.088 285.611 127.323 285.611 127.591V131H284.773ZM295.751 131.114C295.226 131.114 294.772 130.998 294.391 130.766C294.012 130.531 293.72 130.205 293.514 129.786C293.31 129.364 293.209 128.874 293.209 128.315C293.209 127.757 293.31 127.264 293.514 126.838C293.72 126.41 294.006 126.076 294.373 125.837C294.743 125.595 295.174 125.474 295.666 125.474C295.95 125.474 296.231 125.522 296.508 125.616C296.785 125.711 297.037 125.865 297.264 126.078C297.491 126.289 297.672 126.568 297.807 126.916C297.942 127.264 298.01 127.693 298.01 128.202V128.557H293.805V127.832H297.157C297.157 127.525 297.096 127.25 296.973 127.009C296.852 126.767 296.679 126.576 296.454 126.437C296.232 126.297 295.969 126.227 295.666 126.227C295.332 126.227 295.043 126.31 294.8 126.476C294.558 126.639 294.372 126.852 294.242 127.115C294.112 127.378 294.047 127.66 294.047 127.96V128.443C294.047 128.855 294.118 129.204 294.26 129.491C294.404 129.775 294.604 129.991 294.86 130.141C295.116 130.287 295.413 130.361 295.751 130.361C295.971 130.361 296.17 130.33 296.348 130.268C296.528 130.205 296.683 130.11 296.813 129.984C296.943 129.857 297.044 129.698 297.115 129.509L297.925 129.736C297.839 130.01 297.696 130.252 297.495 130.46C297.294 130.666 297.045 130.827 296.749 130.943C296.453 131.057 296.121 131.114 295.751 131.114Z" fill="black"/>
<path d="M47 80.8926L46.7197 81.0293L6.71973 100.585L6 100.937V55.3789L6.28027 55.2422L46.2803 35.6865L47 35.335V80.8926Z" fill="#FFE1C4" stroke="#FF7600"/>
<path d="M77 80.8926L76.7197 81.0293L36.7197 100.585L36 100.937V55.3789L36.2803 55.2422L76.2803 35.6865L77 35.335V80.8926Z" fill="#D4FEC6" stroke="#2EB800"/>
<path d="M107 80.8926L106.72 81.0293L66.7197 100.585L66 100.937V55.3789L66.2803 55.2422L106.28 35.6865L107 35.335V80.8926Z" fill="#D4FEC6" stroke="#2EB800"/>
<path d="M137 80.8926L136.72 81.0293L96.7197 100.585L96 100.937V55.3789L96.2803 55.2422L136.28 35.6865L137 35.335V80.8926Z" fill="#CDD9FF" stroke="#1948E6"/>
<path d="M167 80.8926L166.72 81.0293L126.72 100.585L126 100.937V55.3789L126.28 55.2422L166.28 35.6865L167 35.335V80.8926Z" fill="#D4FEC6" stroke="#2EB800"/>
<path d="M197 80.8926L196.72 81.0293L156.72 100.585L156 100.937V55.3789L156.28 55.2422L196.28 35.6865L197 35.335V80.8926Z" fill="#CDD9FF" stroke="#1948E6"/>
<path d="M277.5 80.8926L277.22 81.0293L237.22 100.585L236.5 100.937V55.3789L236.78 55.2422L276.78 35.6865L277.5 35.335V80.8926Z" fill="#FFE1C4" stroke="#FF7600"/>
<path d="M25.1584 67.2727V76H23.8416V67.2727H25.1584Z" fill="black"/>
<path d="M51.533 76V67.2727H54.729C55.3484 67.2727 55.8612 67.375 56.2674 67.5795C56.6737 67.7812 56.9776 68.0554 57.1793 68.402C57.381 68.7457 57.4819 69.1335 57.4819 69.5653C57.4819 69.929 57.4151 70.2358 57.2816 70.4858C57.1481 70.733 56.9691 70.9318 56.7447 71.0824C56.5231 71.2301 56.2788 71.3381 56.0117 71.4062V71.4915C56.3015 71.5057 56.5842 71.5994 56.8597 71.7727C57.1381 71.9432 57.3683 72.1861 57.5501 72.5014C57.7319 72.8168 57.8228 73.2003 57.8228 73.652C57.8228 74.098 57.7177 74.4986 57.5075 74.8537C57.3001 75.206 56.979 75.4858 56.5444 75.6932C56.1097 75.8977 55.5543 76 54.8782 76H51.533ZM52.8498 74.8707H54.7504C55.381 74.8707 55.8327 74.7486 56.1055 74.5043C56.3782 74.2599 56.5146 73.9545 56.5146 73.5881C56.5146 73.3125 56.445 73.0597 56.3058 72.8295C56.1665 72.5994 55.9677 72.4162 55.7092 72.2798C55.4535 72.1435 55.1495 72.0753 54.7972 72.0753H52.8498V74.8707ZM52.8498 71.0483H54.614C54.9094 71.0483 55.1751 70.9915 55.4109 70.8778C55.6495 70.7642 55.8384 70.6051 55.9776 70.4006C56.1197 70.1932 56.1907 69.9489 56.1907 69.6676C56.1907 69.3068 56.0643 69.0043 55.8114 68.7599C55.5586 68.5156 55.1708 68.3935 54.6481 68.3935H52.8498V71.0483Z" fill="black"/>
<path d="M81.533 76V67.2727H84.729C85.3484 67.2727 85.8612 67.375 86.2674 67.5795C86.6737 67.7812 86.9776 68.0554 87.1793 68.402C87.381 68.7457 87.4819 69.1335 87.4819 69.5653C87.4819 69.929 87.4151 70.2358 87.2816 70.4858C87.1481 70.733 86.9691 70.9318 86.7447 71.0824C86.5231 71.2301 86.2788 71.3381 86.0117 71.4062V71.4915C86.3015 71.5057 86.5842 71.5994 86.8597 71.7727C87.1381 71.9432 87.3683 72.1861 87.5501 72.5014C87.7319 72.8168 87.8228 73.2003 87.8228 73.652C87.8228 74.098 87.7177 74.4986 87.5075 74.8537C87.3001 75.206 86.979 75.4858 86.5444 75.6932C86.1097 75.8977 85.5543 76 84.8782 76H81.533ZM82.8498 74.8707H84.7504C85.381 74.8707 85.8327 74.7486 86.1055 74.5043C86.3782 74.2599 86.5146 73.9545 86.5146 73.5881C86.5146 73.3125 86.445 73.0597 86.3058 72.8295C86.1665 72.5994 85.9677 72.4162 85.7092 72.2798C85.4535 72.1435 85.1495 72.0753 84.7972 72.0753H82.8498V74.8707ZM82.8498 71.0483H84.614C84.9094 71.0483 85.1751 70.9915 85.4109 70.8778C85.6495 70.7642 85.8384 70.6051 85.9776 70.4006C86.1197 70.1932 86.1907 69.9489 86.1907 69.6676C86.1907 69.3068 86.0643 69.0043 85.8114 68.7599C85.5586 68.5156 85.1708 68.3935 84.6481 68.3935H82.8498V71.0483Z" fill="black"/>
<path d="M111.621 76V67.2727H114.732C115.411 67.2727 115.973 67.3963 116.419 67.6435C116.865 67.8906 117.199 68.2287 117.421 68.6577C117.642 69.0838 117.753 69.5639 117.753 70.098C117.753 70.6349 117.641 71.1179 117.416 71.5469C117.195 71.973 116.86 72.3111 116.411 72.5611C115.965 72.8082 115.404 72.9318 114.727 72.9318H112.588V71.8153H114.608C115.037 71.8153 115.385 71.7415 115.652 71.5938C115.919 71.4432 116.115 71.2386 116.24 70.9801C116.365 70.7216 116.428 70.4276 116.428 70.098C116.428 69.7685 116.365 69.4759 116.24 69.2202C116.115 68.9645 115.918 68.7642 115.648 68.6193C115.381 68.4744 115.029 68.402 114.591 68.402H112.938V76H111.621Z" fill="black"/>
<path d="M141.533 76V67.2727H144.729C145.348 67.2727 145.861 67.375 146.267 67.5795C146.674 67.7812 146.978 68.0554 147.179 68.402C147.381 68.7457 147.482 69.1335 147.482 69.5653C147.482 69.929 147.415 70.2358 147.282 70.4858C147.148 70.733 146.969 70.9318 146.745 71.0824C146.523 71.2301 146.279 71.3381 146.012 71.4062V71.4915C146.301 71.5057 146.584 71.5994 146.86 71.7727C147.138 71.9432 147.368 72.1861 147.55 72.5014C147.732 72.8168 147.823 73.2003 147.823 73.652C147.823 74.098 147.718 74.4986 147.507 74.8537C147.3 75.206 146.979 75.4858 146.544 75.6932C146.11 75.8977 145.554 76 144.878 76H141.533ZM142.85 74.8707H144.75C145.381 74.8707 145.833 74.7486 146.105 74.5043C146.378 74.2599 146.515 73.9545 146.515 73.5881C146.515 73.3125 146.445 73.0597 146.306 72.8295C146.167 72.5994 145.968 72.4162 145.709 72.2798C145.453 72.1435 145.15 72.0753 144.797 72.0753H142.85V74.8707ZM142.85 71.0483H144.614C144.909 71.0483 145.175 70.9915 145.411 70.8778C145.65 70.7642 145.838 70.6051 145.978 70.4006C146.12 70.1932 146.191 69.9489 146.191 69.6676C146.191 69.3068 146.064 69.0043 145.811 68.7599C145.559 68.5156 145.171 68.3935 144.648 68.3935H142.85V71.0483Z" fill="black"/>
<path d="M171.621 76V67.2727H174.732C175.411 67.2727 175.973 67.3963 176.419 67.6435C176.865 67.8906 177.199 68.2287 177.421 68.6577C177.642 69.0838 177.753 69.5639 177.753 70.098C177.753 70.6349 177.641 71.1179 177.416 71.5469C177.195 71.973 176.86 72.3111 176.411 72.5611C175.965 72.8082 175.404 72.9318 174.727 72.9318H172.588V71.8153H174.608C175.037 71.8153 175.385 71.7415 175.652 71.5938C175.919 71.4432 176.115 71.2386 176.24 70.9801C176.365 70.7216 176.428 70.4276 176.428 70.098C176.428 69.7685 176.365 69.4759 176.24 69.2202C176.115 68.9645 175.918 68.7642 175.648 68.6193C175.381 68.4744 175.029 68.402 174.591 68.402H172.938V76H171.621Z" fill="black"/>
<path d="M255.658 67.2727V76H254.342V67.2727H255.658Z" fill="black"/>
<path d="M37 39.1353L40.6665 34.6754L34.9709 33.7301L37 39.1353ZM69 38.1353H69.5C69.5 34.1089 67.7695 30.984 65.1051 28.8002C62.453 26.6264 58.8905 25.3942 55.205 25.0855C47.8742 24.4713 39.7675 27.5126 37.266 34.5272L37.7369 34.6952L38.2079 34.8631C40.4924 28.457 48.0172 25.4868 55.1215 26.082C58.6535 26.3779 62.0094 27.5558 64.4712 29.5736C66.9209 31.5815 68.5 34.43 68.5 38.1353H69Z" fill="#2EB800"/>
<path d="M117 44.1355L119.342 38.8581L113.6 39.4689L117 44.1355ZM69 38.1354H69.5C69.5 33.4032 72.0348 29.7688 75.9889 27.3007C79.9555 24.8247 85.3296 23.5425 90.8892 23.5652C102.052 23.6108 113.617 28.884 116.036 39.7712L116.524 39.6628L117.012 39.5543C114.442 27.9864 102.246 22.6116 90.8933 22.5652C85.1956 22.542 79.624 23.8528 75.4593 26.4524C71.2822 29.0597 68.5 32.9834 68.5 38.1354H69Z" fill="#2EB800"/>
<path d="M27 44.1359L30.3263 39.4169L24.5764 38.8957L27 44.1359ZM124 40.4999H124.5C124.5 31.115 118.726 24.0688 110.102 19.3695C101.485 14.6736 89.9609 12.2774 78.2561 12.1744C66.549 12.0714 54.6082 14.2618 45.1502 18.7907C35.6947 23.3182 28.6537 30.2204 26.9146 39.5631L27.4062 39.6546L27.8978 39.7461C29.5568 30.8328 36.2891 24.1424 45.5821 19.6926C54.8725 15.244 66.6554 13.0723 78.2473 13.1743C89.8413 13.2764 101.191 15.6523 109.624 20.2476C118.05 24.8394 123.5 31.6036 123.5 40.4999H124Z" fill="#1948E6"/>
<path d="M107 96.1357L103.391 100.642L109.098 101.515L107 96.1357ZM81 95.1357H80.5C80.5 99.3166 81.8669 102.587 84.0115 104.927C86.1513 107.262 89.0408 108.643 92.0489 109.097C98.0453 110.001 104.651 107.219 106.795 100.74L106.32 100.583L105.845 100.426C103.891 106.332 97.8373 108.958 92.198 108.108C89.3883 107.684 86.7161 106.398 84.7486 104.251C82.7859 102.11 81.5 99.0861 81.5 95.1357H81Z" fill="#2EB800"/>
<path d="M23 94.1357L21.0356 99.5648L26.7195 98.5515L23 94.1357ZM81 95.1357H80.5C80.5 100.014 77.518 103.803 72.7905 106.474C68.058 109.148 61.6407 110.656 54.974 110.957C48.3106 111.257 41.4458 110.349 35.8321 108.233C30.2071 106.113 25.9201 102.816 24.2582 98.3924L23.7902 98.5682L23.3221 98.7441C25.1287 103.552 29.7272 107.001 35.4795 109.169C41.243 111.341 48.2471 112.261 55.019 111.956C61.7876 111.651 68.3721 110.119 73.2825 107.345C78.1979 104.567 81.5 100.499 81.5 95.1357H81Z" fill="#2EB800"/>
<path d="M129 38.1356L132.576 33.6026L126.862 32.7724L129 38.1356ZM185 40.1359H185.5C185.5 33.6268 182.33 28.644 177.52 25.1794C172.723 21.7247 166.293 19.7719 159.699 19.2632C153.103 18.7544 146.296 19.6868 140.73 22.0514C135.165 24.415 130.784 28.237 129.169 33.5349L129.647 33.6807L130.126 33.8266C131.626 28.9062 135.722 25.265 141.12 22.9718C146.517 20.6797 153.159 19.7617 159.622 20.2602C166.087 20.759 172.326 22.6713 176.935 25.9908C181.53 29.3006 184.5 34.0011 184.5 40.1359H185Z" fill="#1948E6"/>
<path d="M172 94.1357L168.341 98.6014L174.038 99.5377L172 94.1357ZM144 93.1357H143.5C143.5 97.3286 144.977 100.604 147.286 102.942C149.587 105.273 152.69 106.647 155.914 107.098C162.332 107.995 169.434 105.234 171.742 98.7422L171.27 98.5748L170.799 98.4073C168.701 104.31 162.168 106.962 156.052 106.108C153.01 105.682 150.121 104.39 147.997 102.239C145.881 100.096 144.5 97.0758 144.5 93.1357H144Z" fill="#2EB800"/>
<path d="M114 93.1357L111.918 98.5209L117.623 97.6311L114 93.1357ZM144 93.1357H143.5C143.5 97.0897 142.007 100.119 139.712 102.256C137.409 104.401 134.274 105.667 130.978 106.028C124.354 106.754 117.314 103.826 115.168 97.4249L114.694 97.5838L114.22 97.7428C116.568 104.746 124.181 107.779 131.087 107.022C134.556 106.642 137.905 105.305 140.394 102.988C142.892 100.661 144.5 97.3666 144.5 93.1357H144Z" fill="#2EB800"/>
<path d="M175 10.8218C175 10.0064 175.156 9.25749 175.469 8.5749C175.782 7.89231 176.185 7.34719 176.678 6.93953C177.171 6.53187 177.688 6.21902 178.228 6.00097C178.768 5.78292 179.28 5.66916 179.764 5.65968C179.792 5.65968 179.835 5.65968 179.892 5.65968C179.949 5.65968 179.987 5.66442 180.006 5.6739C180.868 5.6739 181.632 5.99623 182.295 6.6409L182.48 6.81154L182.907 6.25694C183.163 5.90617 183.31 5.71182 183.347 5.6739C183.357 5.6739 183.376 5.6739 183.404 5.6739C183.433 5.6739 183.461 5.66916 183.49 5.65968H183.547C183.575 5.65968 183.618 5.68812 183.675 5.745V9.72677L183.589 9.81209H183.106C183.049 9.75521 183.016 9.67462 183.006 9.57034C182.921 8.79295 182.693 8.11984 182.324 7.55102C181.954 6.98219 181.504 6.60772 180.973 6.42759C180.793 6.36123 180.556 6.32804 180.262 6.32804C180.025 6.32804 179.788 6.34701 179.551 6.38493C179.314 6.42285 179.029 6.52239 178.697 6.68356C178.366 6.84473 178.072 7.03907 177.816 7.2666C177.56 7.49413 177.327 7.84017 177.119 8.30471C176.91 8.76925 176.778 9.28119 176.721 9.84053C176.683 10.2387 176.664 10.599 176.664 10.9213C176.664 11.6418 176.754 12.277 176.934 12.8269C177.114 13.3767 177.332 13.8033 177.588 14.1067C177.844 14.4101 178.147 14.6613 178.498 14.8604C178.849 15.0595 179.171 15.1875 179.465 15.2444C179.759 15.3012 180.048 15.3344 180.333 15.3439C180.778 15.3439 181.167 15.2444 181.499 15.0453C181.831 14.8462 182.049 14.5855 182.153 14.2631C182.181 14.1683 182.196 13.8839 182.196 13.4099V12.6704C182.186 12.6609 182.162 12.642 182.125 12.6135C182.087 12.5851 182.058 12.5661 182.039 12.5567C182.02 12.5472 181.978 12.533 181.911 12.514C181.845 12.495 181.769 12.4856 181.684 12.4856C181.598 12.4856 181.485 12.4808 181.342 12.4713C181.2 12.4619 181.015 12.4571 180.788 12.4571H180.418V11.803H180.589L182.864 11.8456C183.869 11.8456 184.428 11.8314 184.542 11.803H184.656V12.4571H184.457C184.011 12.4571 183.76 12.514 183.703 12.6278C183.684 12.6657 183.675 13.1729 183.675 14.1494V15.5999C183.618 15.6568 183.575 15.6852 183.547 15.6852C183.509 15.6852 183.423 15.6378 183.291 15.543C183.082 15.4008 182.897 15.2491 182.736 15.0879L182.551 14.9173C182.399 15.1733 182.101 15.415 181.655 15.6425C181.21 15.8701 180.65 15.9886 179.977 15.998C179.133 15.998 178.337 15.7895 177.588 15.3723C176.839 14.9552 176.223 14.3437 175.739 13.5379C175.256 12.7321 175.009 11.8267 175 10.8218Z" fill="black"/>
<path d="M186.163 10.8502C186.163 10.0633 186.305 9.33332 186.59 8.66021C186.874 7.98711 187.244 7.43724 187.699 7.01063C188.154 6.58401 188.656 6.25219 189.206 6.01518C189.756 5.77817 190.316 5.65967 190.884 5.65967C192.145 5.65967 193.25 6.15265 194.198 7.13861C195.146 8.12457 195.625 9.35702 195.634 10.836C195.634 11.6039 195.497 12.3149 195.222 12.9691C194.947 13.6232 194.586 14.1731 194.141 14.6186C193.695 15.0642 193.188 15.4008 192.619 15.6283C192.05 15.8558 191.472 15.9791 190.884 15.998C190.297 16.017 189.723 15.8985 189.164 15.6425C188.604 15.3866 188.097 15.05 187.642 14.6329C187.187 14.2157 186.831 13.6706 186.576 12.9975C186.32 12.3244 186.182 11.6086 186.163 10.8502ZM192.008 6.48446C191.619 6.31382 191.245 6.22849 190.884 6.22849C190.619 6.22849 190.349 6.28063 190.074 6.38492C189.799 6.4892 189.505 6.65037 189.192 6.86842C188.879 7.08647 188.614 7.42302 188.396 7.87808C188.178 8.33314 188.017 8.85456 187.912 9.44235C187.865 9.7078 187.841 10.1107 187.841 10.6511C187.841 12.642 188.329 14.0309 189.306 14.8177C189.78 15.2064 190.292 15.4008 190.842 15.4008H190.899H190.927C191.714 15.4008 192.406 15.0263 193.003 14.2773C193.629 13.4336 193.942 12.2248 193.942 10.6511C193.942 10.1107 193.918 9.7078 193.871 9.44235C193.672 7.99185 193.051 7.00588 192.008 6.48446Z" fill="black"/>
<path d="M198.279 6.83985C198.213 6.77349 198.161 6.73083 198.123 6.71187C198.085 6.6929 198.009 6.67868 197.895 6.6692C197.781 6.65972 197.578 6.6455 197.284 6.62654H196.814V5.97239H199.474C199.692 5.97239 199.986 5.97239 200.355 5.97239C200.725 5.97239 200.986 5.96765 201.137 5.95817C201.972 5.95817 202.635 6.0198 203.128 6.14304C203.621 6.26629 204.076 6.527 204.494 6.92517C205.034 7.42764 205.304 8.02964 205.304 8.73119C205.304 9.37586 205.062 9.93046 204.579 10.395C204.095 10.8595 203.517 11.1677 202.844 11.3193C202.635 11.3667 202.052 11.3952 201.095 11.4047H199.758V13.1111C199.758 14.2393 199.772 14.8223 199.801 14.8603C199.877 14.9645 200.194 15.0214 200.754 15.0309H201.223V15.6851H201.066C200.867 15.6566 200.185 15.6424 199.019 15.6424C197.739 15.6424 197.056 15.6566 196.971 15.6851H196.814V15.0309H197.284C197.682 15.0214 197.924 15.0072 198.009 14.9882C198.094 14.9693 198.184 14.9124 198.279 14.8176V6.83985ZM203.64 8.74541C203.64 8.49892 203.636 8.30931 203.626 8.17659C203.617 8.04386 203.588 7.87321 203.541 7.66464C203.493 7.45608 203.413 7.29965 203.299 7.19537C203.185 7.09108 203.029 6.98206 202.83 6.86829C202.631 6.75453 202.379 6.68342 202.076 6.65498C201.962 6.63602 201.536 6.62654 200.796 6.62654H200.498C200.033 6.62654 199.787 6.6692 199.758 6.75453C199.73 6.79245 199.715 7.47978 199.715 8.81651V10.8216H200.725H201.251C201.735 10.8216 202.133 10.7884 202.446 10.7221C202.759 10.6557 203.034 10.4993 203.271 10.2528C203.517 9.97786 203.64 9.4754 203.64 8.74541Z" fill="black"/>
<path d="M207.06 7.02722C207.06 6.56474 207.093 6.12572 207.16 5.71015C207.227 5.29459 207.304 4.936 207.392 4.63438C207.479 4.33276 207.603 4.03784 207.764 3.74963C207.924 3.46142 208.052 3.23688 208.146 3.07602C208.239 2.91515 208.38 2.74088 208.568 2.55321C208.756 2.36554 208.866 2.25159 208.9 2.21138C208.933 2.17116 209.017 2.10078 209.151 2.00024H209.282H209.322C209.416 2.00024 209.463 2.0304 209.463 2.09073C209.463 2.11084 209.406 2.18121 209.292 2.30186C209.178 2.42251 209.04 2.60013 208.88 2.83472C208.719 3.06931 208.554 3.35753 208.387 3.69936C208.219 4.0412 208.079 4.50368 207.965 5.08681C207.851 5.66994 207.794 6.31674 207.794 7.02722C207.794 7.7377 207.851 8.38115 207.965 8.95758C208.079 9.53401 208.216 9.99984 208.377 10.3551C208.538 10.7103 208.702 10.9985 208.869 11.2197C209.037 11.4409 209.178 11.6185 209.292 11.7526C209.406 11.8866 209.463 11.957 209.463 11.9637C209.463 12.024 209.412 12.0542 209.312 12.0542H209.282H209.151L208.869 11.8129C208.239 11.2432 207.78 10.5327 207.492 9.68147C207.204 8.83023 207.06 7.94548 207.06 7.02722Z" fill="black"/>
<path d="M213.153 9.10818C213.052 9.19532 212.905 9.28915 212.71 9.38969C212.516 9.49023 212.311 9.5405 212.097 9.5405C211.675 9.5405 211.336 9.38969 211.082 9.08807C210.827 8.78645 210.696 8.40105 210.689 7.93187C210.689 7.22809 210.947 6.58129 211.464 5.99145C211.98 5.40162 212.553 5.10335 213.183 5.09665C213.498 5.09665 213.789 5.25752 214.057 5.57924L214.088 5.53903C214.101 5.51892 214.118 5.49881 214.138 5.4787C214.158 5.45859 214.188 5.43178 214.228 5.39827C214.269 5.36476 214.312 5.3413 214.359 5.32789C214.406 5.31449 214.46 5.30443 214.52 5.29773C214.614 5.29773 214.691 5.32789 214.751 5.38822C214.812 5.44854 214.845 5.51222 214.852 5.57924C214.852 5.67978 214.661 6.4908 214.279 8.0123C213.897 9.5338 213.696 10.3113 213.675 10.3448C213.555 10.7068 213.297 11.005 212.901 11.2396C212.506 11.4742 212.053 11.5949 211.544 11.6016C210.599 11.6016 210.126 11.3737 210.126 10.9179C210.126 10.7436 210.187 10.5895 210.307 10.4554C210.428 10.3214 210.582 10.2543 210.77 10.2543C210.87 10.2543 210.964 10.2845 211.051 10.3448C211.138 10.4051 211.185 10.509 211.192 10.6565C211.192 10.7235 211.185 10.7872 211.172 10.8475C211.159 10.9078 211.135 10.9548 211.102 10.9883C211.068 11.0218 211.041 11.0553 211.021 11.0888C211.001 11.1223 210.978 11.1491 210.951 11.1692L210.931 11.1894H210.941C211.008 11.2095 211.209 11.2195 211.544 11.2195C211.799 11.2195 212 11.1793 212.147 11.0989C212.301 11.0251 212.446 10.9145 212.58 10.7671C212.714 10.6196 212.807 10.4621 212.861 10.2945C212.901 10.1672 212.955 9.95942 213.022 9.6712C213.109 9.34948 213.153 9.1618 213.153 9.10818ZM213.887 6.2428L213.846 6.13221C213.826 6.05848 213.809 6.00821 213.796 5.9814C213.783 5.95459 213.763 5.90767 213.736 5.84064C213.709 5.77362 213.675 5.7267 213.635 5.69989C213.595 5.67308 213.551 5.63621 213.505 5.5893C213.458 5.54238 213.397 5.51222 213.324 5.49881C213.25 5.4854 213.176 5.47535 213.102 5.46865C212.807 5.46865 212.523 5.64627 212.248 6.00151C212.047 6.26291 211.879 6.66172 211.745 7.19793C211.611 7.73414 211.544 8.12289 211.544 8.36419C211.544 8.8937 211.752 9.15845 212.167 9.15845C212.543 9.15845 212.911 8.92386 213.273 8.45467L213.354 8.35413L213.887 6.2428Z" fill="black"/>
<path d="M215.425 2.0103L215.465 2.00024C215.499 2.00024 215.532 2.00024 215.566 2.00024H215.686L215.968 2.24154C216.598 2.81126 217.057 3.52174 217.345 4.37298C217.633 5.22421 217.777 6.10896 217.777 7.02722C217.777 7.483 217.744 7.92202 217.677 8.34429C217.61 8.76656 217.533 9.12515 217.446 9.42006C217.359 9.71498 217.235 10.0099 217.074 10.3048C216.913 10.5997 216.785 10.8243 216.692 10.9784C216.598 11.1326 216.46 11.3035 216.279 11.4912C216.098 11.6789 215.991 11.7894 215.958 11.823C215.924 11.8565 215.847 11.9201 215.726 12.014C215.706 12.0341 215.693 12.0475 215.686 12.0542H215.566C215.512 12.0542 215.475 12.0542 215.455 12.0542C215.435 12.0542 215.418 12.0441 215.405 12.024C215.391 12.0039 215.381 11.9738 215.375 11.9336C215.381 11.9268 215.418 11.8833 215.485 11.8029C216.524 10.7237 217.044 9.13185 217.044 7.02722C217.044 4.92259 216.524 3.33072 215.485 2.25159C215.418 2.17116 215.381 2.12759 215.375 2.12089C215.375 2.06727 215.391 2.0304 215.425 2.0103Z" fill="black"/>
<path d="M242 10.8218C242 10.0064 242.156 9.25749 242.469 8.5749C242.782 7.89231 243.185 7.34719 243.678 6.93953C244.171 6.53187 244.688 6.21902 245.228 6.00097C245.768 5.78292 246.28 5.66916 246.764 5.65968C246.792 5.65968 246.835 5.65968 246.892 5.65968C246.949 5.65968 246.987 5.66442 247.006 5.6739C247.868 5.6739 248.632 5.99623 249.295 6.6409L249.48 6.81154L249.907 6.25694C250.163 5.90617 250.31 5.71182 250.347 5.6739C250.357 5.6739 250.376 5.6739 250.404 5.6739C250.433 5.6739 250.461 5.66916 250.49 5.65968H250.547C250.575 5.65968 250.618 5.68812 250.675 5.745V9.72677L250.589 9.81209H250.106C250.049 9.75521 250.016 9.67462 250.006 9.57034C249.921 8.79295 249.693 8.11984 249.324 7.55102C248.954 6.98219 248.504 6.60772 247.973 6.42759C247.793 6.36123 247.556 6.32804 247.262 6.32804C247.025 6.32804 246.788 6.34701 246.551 6.38493C246.314 6.42285 246.029 6.52239 245.697 6.68356C245.366 6.84473 245.072 7.03907 244.816 7.2666C244.56 7.49413 244.327 7.84017 244.119 8.30471C243.91 8.76925 243.778 9.28119 243.721 9.84053C243.683 10.2387 243.664 10.599 243.664 10.9213C243.664 11.6418 243.754 12.277 243.934 12.8269C244.114 13.3767 244.332 13.8033 244.588 14.1067C244.844 14.4101 245.147 14.6613 245.498 14.8604C245.849 15.0595 246.171 15.1875 246.465 15.2444C246.759 15.3012 247.048 15.3344 247.333 15.3439C247.778 15.3439 248.167 15.2444 248.499 15.0453C248.831 14.8462 249.049 14.5855 249.153 14.2631C249.181 14.1683 249.196 13.8839 249.196 13.4099V12.6704C249.186 12.6609 249.162 12.642 249.125 12.6135C249.087 12.5851 249.058 12.5661 249.039 12.5567C249.02 12.5472 248.978 12.533 248.911 12.514C248.845 12.495 248.769 12.4856 248.684 12.4856C248.598 12.4856 248.485 12.4808 248.342 12.4713C248.2 12.4619 248.015 12.4571 247.788 12.4571H247.418V11.803H247.589L249.864 11.8456C250.869 11.8456 251.428 11.8314 251.542 11.803H251.656V12.4571H251.457C251.011 12.4571 250.76 12.514 250.703 12.6278C250.684 12.6657 250.675 13.1729 250.675 14.1494V15.5999C250.618 15.6568 250.575 15.6852 250.547 15.6852C250.509 15.6852 250.423 15.6378 250.291 15.543C250.082 15.4008 249.897 15.2491 249.736 15.0879L249.551 14.9173C249.399 15.1733 249.101 15.415 248.655 15.6425C248.21 15.8701 247.65 15.9886 246.977 15.998C246.133 15.998 245.337 15.7895 244.588 15.3723C243.839 14.9552 243.223 14.3437 242.739 13.5379C242.256 12.7321 242.009 11.8267 242 10.8218Z" fill="black"/>
<path d="M253.163 10.8502C253.163 10.0633 253.305 9.33332 253.59 8.66021C253.874 7.98711 254.244 7.43724 254.699 7.01063C255.154 6.58401 255.657 6.25219 256.206 6.01518C256.756 5.77817 257.316 5.65967 257.884 5.65967C259.145 5.65967 260.25 6.15265 261.198 7.13861C262.146 8.12457 262.625 9.35702 262.634 10.836C262.634 11.6039 262.497 12.3149 262.222 12.9691C261.947 13.6232 261.587 14.1731 261.141 14.6186C260.695 15.0642 260.188 15.4008 259.619 15.6283C259.051 15.8558 258.472 15.9791 257.884 15.998C257.297 16.017 256.723 15.8985 256.164 15.6425C255.604 15.3866 255.097 15.05 254.642 14.6329C254.187 14.2157 253.832 13.6706 253.576 12.9975C253.32 12.3244 253.182 11.6086 253.163 10.8502ZM259.008 6.48446C258.619 6.31382 258.245 6.22849 257.884 6.22849C257.619 6.22849 257.349 6.28063 257.074 6.38492C256.799 6.4892 256.505 6.65037 256.192 6.86842C255.879 7.08647 255.614 7.42302 255.396 7.87808C255.178 8.33314 255.017 8.85456 254.912 9.44235C254.865 9.7078 254.841 10.1107 254.841 10.6511C254.841 12.642 255.329 14.0309 256.306 14.8177C256.78 15.2064 257.292 15.4008 257.842 15.4008H257.899H257.927C258.714 15.4008 259.406 15.0263 260.003 14.2773C260.629 13.4336 260.942 12.2248 260.942 10.6511C260.942 10.1107 260.918 9.7078 260.871 9.44235C260.672 7.99185 260.051 7.00588 259.008 6.48446Z" fill="black"/>
<path d="M265.279 6.83985C265.213 6.77349 265.161 6.73083 265.123 6.71187C265.085 6.6929 265.009 6.67868 264.895 6.6692C264.781 6.65972 264.578 6.6455 264.284 6.62654H263.814V5.97239H266.474C266.692 5.97239 266.986 5.97239 267.355 5.97239C267.725 5.97239 267.986 5.96765 268.137 5.95817C268.972 5.95817 269.635 6.0198 270.128 6.14304C270.621 6.26629 271.076 6.527 271.494 6.92517C272.034 7.42764 272.304 8.02964 272.304 8.73119C272.304 9.37586 272.062 9.93046 271.579 10.395C271.095 10.8595 270.517 11.1677 269.844 11.3193C269.635 11.3667 269.052 11.3952 268.095 11.4047H266.758V13.1111C266.758 14.2393 266.772 14.8223 266.801 14.8603C266.877 14.9645 267.194 15.0214 267.754 15.0309H268.223V15.6851H268.066C267.867 15.6566 267.185 15.6424 266.019 15.6424C264.739 15.6424 264.056 15.6566 263.971 15.6851H263.814V15.0309H264.284C264.682 15.0214 264.924 15.0072 265.009 14.9882C265.094 14.9693 265.184 14.9124 265.279 14.8176V6.83985ZM270.64 8.74541C270.64 8.49892 270.636 8.30931 270.626 8.17659C270.617 8.04386 270.588 7.87321 270.541 7.66464C270.493 7.45608 270.413 7.29965 270.299 7.19537C270.185 7.09108 270.029 6.98206 269.83 6.86829C269.631 6.75453 269.379 6.68342 269.076 6.65498C268.962 6.63602 268.536 6.62654 267.796 6.62654H267.498C267.033 6.62654 266.787 6.6692 266.758 6.75453C266.73 6.79245 266.715 7.47978 266.715 8.81651V10.8216H267.725H268.251C268.735 10.8216 269.133 10.7884 269.446 10.7221C269.759 10.6557 270.034 10.4993 270.271 10.2528C270.517 9.97786 270.64 9.4754 270.64 8.74541Z" fill="black"/>
<path d="M274.06 7.02673C274.06 6.56425 274.093 6.12523 274.16 5.70966C274.227 5.2941 274.304 4.93551 274.391 4.63389C274.479 4.33227 274.603 4.03736 274.763 3.74914C274.924 3.46093 275.052 3.23639 275.146 3.07553C275.239 2.91466 275.38 2.74039 275.568 2.55272C275.755 2.36505 275.866 2.2511 275.9 2.21089C275.933 2.17067 276.017 2.10029 276.151 1.99975H276.282H276.322C276.416 1.99975 276.463 2.02991 276.463 2.09024C276.463 2.11035 276.406 2.18072 276.292 2.30137C276.178 2.42202 276.04 2.59964 275.879 2.83423C275.719 3.06882 275.554 3.35704 275.387 3.69887C275.219 4.04071 275.078 4.50319 274.965 5.08632C274.851 5.66945 274.794 6.31625 274.794 7.02673C274.794 7.73721 274.851 8.38067 274.965 8.95709C275.078 9.53352 275.216 9.99935 275.377 10.3546C275.538 10.7098 275.702 10.998 275.869 11.2192C276.037 11.4404 276.178 11.618 276.292 11.7521C276.406 11.8861 276.463 11.9565 276.463 11.9632C276.463 12.0235 276.412 12.0537 276.312 12.0537H276.282H276.151L275.869 11.8124C275.239 11.2427 274.78 10.5322 274.492 9.68098C274.204 8.82974 274.06 7.94499 274.06 7.02673Z" fill="black"/>
<path d="M280.152 9.10769C280.052 9.19483 279.904 9.28866 279.71 9.3892C279.515 9.48974 279.311 9.54001 279.097 9.54001C278.674 9.54001 278.336 9.3892 278.081 9.08758C277.826 8.78597 277.696 8.40056 277.689 7.93138C277.689 7.2276 277.947 6.5808 278.463 5.99097C278.979 5.40113 279.552 5.10287 280.182 5.09616C280.497 5.09616 280.789 5.25703 281.057 5.57875L281.087 5.53854C281.101 5.51843 281.117 5.49832 281.138 5.47821C281.158 5.45811 281.188 5.4313 281.228 5.39778C281.268 5.36427 281.312 5.34081 281.359 5.3274C281.406 5.314 281.459 5.30395 281.52 5.29724C281.613 5.29724 281.691 5.3274 281.751 5.38773C281.811 5.44805 281.845 5.51173 281.851 5.57875C281.851 5.67929 281.66 6.49031 281.278 8.01181C280.896 9.53331 280.695 10.3108 280.675 10.3443C280.554 10.7063 280.296 11.0045 279.901 11.2391C279.505 11.4737 279.053 11.5944 278.544 11.6011C277.599 11.6011 277.126 11.3732 277.126 10.9174C277.126 10.7431 277.186 10.589 277.307 10.4549C277.428 10.3209 277.582 10.2538 277.769 10.2538C277.87 10.2538 277.964 10.284 278.051 10.3443C278.138 10.4047 278.185 10.5085 278.192 10.656C278.192 10.723 278.185 10.7867 278.172 10.847C278.158 10.9074 278.135 10.9543 278.101 10.9878C278.068 11.0213 278.041 11.0548 278.021 11.0883C278.001 11.1218 277.977 11.1486 277.95 11.1688L277.93 11.1889H277.94C278.007 11.209 278.208 11.219 278.544 11.219C278.798 11.219 278.999 11.1788 279.147 11.0984C279.301 11.0246 279.445 10.9141 279.579 10.7666C279.713 10.6191 279.807 10.4616 279.861 10.2941C279.901 10.1667 279.955 9.95893 280.022 9.67071C280.109 9.34899 280.152 9.16131 280.152 9.10769ZM280.886 6.24231L280.846 6.13172C280.826 6.05799 280.809 6.00772 280.796 5.98091C280.782 5.9541 280.762 5.90718 280.735 5.84016C280.709 5.77313 280.675 5.72621 280.635 5.6994C280.595 5.67259 280.551 5.63573 280.504 5.58881C280.457 5.54189 280.397 5.51173 280.323 5.49832C280.249 5.48492 280.176 5.47486 280.102 5.46816C279.807 5.46816 279.522 5.64578 279.247 6.00102C279.046 6.26242 278.879 6.66123 278.745 7.19744C278.611 7.73365 278.544 8.1224 278.544 8.3637C278.544 8.89321 278.751 9.15796 279.167 9.15796C279.542 9.15796 279.911 8.92337 280.273 8.45419L280.353 8.35365L280.886 6.24231Z" fill="black"/>
<path d="M282.384 7.15753C282.384 7.15753 282.384 7.11397 282.384 7.02683C282.384 6.9397 282.431 6.87267 282.525 6.82575H285.531V5.31766L285.541 3.80957C285.608 3.72243 285.672 3.67886 285.732 3.67886C285.819 3.67886 285.886 3.72913 285.933 3.82967V6.82575H288.929C289.03 6.87937 289.08 6.9464 289.08 7.02683C289.08 7.10726 289.03 7.17429 288.929 7.22791H285.933V10.224C285.88 10.3178 285.819 10.3647 285.752 10.3647H285.732H285.712C285.632 10.3647 285.571 10.3178 285.531 10.224V7.22791H282.525C282.431 7.18099 282.384 7.11397 282.384 7.02683V7.15753Z" fill="black"/>
<path d="M291.785 3.72885L291.654 3.77912C291.56 3.81263 291.426 3.84615 291.252 3.87966C291.078 3.91317 290.883 3.93663 290.669 3.95004H290.478V3.48756H290.669C290.984 3.47415 291.275 3.42388 291.543 3.33675C291.811 3.24961 291.999 3.16918 292.106 3.09545C292.214 3.02172 292.307 2.94799 292.388 2.87427C292.401 2.85416 292.442 2.8441 292.509 2.8441C292.569 2.8441 292.626 2.86421 292.679 2.90443V5.91056L292.69 8.92675C292.736 8.97367 292.777 9.00383 292.81 9.01723C292.844 9.03064 292.924 9.04404 293.051 9.05745C293.179 9.07085 293.387 9.07756 293.675 9.07756H293.936V9.54004H293.826C293.685 9.51993 293.152 9.50988 292.227 9.50988C291.315 9.50988 290.789 9.51993 290.649 9.54004H290.528V9.07756H290.789C290.937 9.07756 291.064 9.07756 291.171 9.07756C291.279 9.07756 291.362 9.07421 291.423 9.0675C291.483 9.0608 291.537 9.05075 291.584 9.03734C291.631 9.02394 291.657 9.01723 291.664 9.01723C291.671 9.01723 291.691 9.00048 291.724 8.96696C291.758 8.93345 291.778 8.92004 291.785 8.92675V3.72885Z" fill="black"/>
<path d="M295.273 2.00981L295.314 1.99975C295.347 1.99975 295.381 1.99975 295.414 1.99975H295.535L295.816 2.24105C296.446 2.81077 296.905 3.52125 297.194 4.37249C297.482 5.22372 297.626 6.10847 297.626 7.02673C297.626 7.48251 297.593 7.92153 297.525 8.3438C297.458 8.76607 297.381 9.12466 297.294 9.41957C297.207 9.71449 297.083 10.0094 296.922 10.3043C296.761 10.5992 296.634 10.8238 296.54 10.9779C296.446 11.1321 296.309 11.303 296.128 11.4907C295.947 11.6784 295.84 11.789 295.806 11.8225C295.773 11.856 295.696 11.9197 295.575 12.0135C295.555 12.0336 295.542 12.047 295.535 12.0537H295.414C295.361 12.0537 295.324 12.0537 295.304 12.0537C295.283 12.0537 295.267 12.0437 295.253 12.0235C295.24 12.0034 295.23 11.9733 295.223 11.9331C295.23 11.9264 295.267 11.8828 295.334 11.8024C296.373 10.7232 296.892 9.13136 296.892 7.02673C296.892 4.9221 296.373 3.33023 295.334 2.2511C295.267 2.17067 295.23 2.1271 295.223 2.1204C295.223 2.06678 295.24 2.02991 295.273 2.00981Z" fill="black"/>
</svg>
