<svg width="381" height="310" viewBox="0 0 381 310" fill="none" xmlns="http://www.w3.org/2000/svg">
<line x1="230.561" y1="233.239" x2="211.561" y2="198.239" stroke="black" stroke-opacity="0.5"/>
<line x1="211.564" y1="137.756" x2="230.564" y2="103.756" stroke="black" stroke-opacity="0.5"/>
<rect x="230.5" y="103.5" width="150" height="130" rx="0.5" stroke="black" stroke-opacity="0.5" stroke-dasharray="6 4"/>
<rect x="285" y="108" width="90" height="120" fill="white"/>
<rect x="235" y="138" width="50" height="90" fill="white"/>
<rect x="0.5" y="16.5" width="211" height="281" rx="7.5" fill="#FFFAF0" stroke="black"/>
<rect x="44" y="154" width="128" height="48" rx="1" fill="#C7E1F3" stroke="#147AC4" stroke-width="2"/>
<path d="M148.627 26.4418V27.5H145.353V26.4418H148.627ZM152.703 24.5455V25.5398H149.567V24.5455H152.703ZM150.341 23.2386H151.627V28.3594C151.627 28.5322 151.653 28.6648 151.705 28.7571C151.759 28.8471 151.83 28.9086 151.918 28.9418C152.005 28.9749 152.102 28.9915 152.209 28.9915C152.289 28.9915 152.363 28.9856 152.429 28.9737C152.498 28.9619 152.55 28.9512 152.585 28.9418L152.802 29.9467C152.733 29.9704 152.635 29.9964 152.507 30.0249C152.382 30.0533 152.228 30.0698 152.046 30.0746C151.724 30.084 151.434 30.0355 151.176 29.929C150.918 29.8201 150.713 29.652 150.561 29.4247C150.412 29.1974 150.339 28.9134 150.341 28.5724V23.2386ZM155.18 26.804V30H153.895V22.7273H155.152V25.4723H155.216C155.344 25.1645 155.541 24.9219 155.809 24.7443C156.079 24.5644 156.422 24.4744 156.839 24.4744C157.218 24.4744 157.548 24.5537 157.83 24.7124C158.111 24.871 158.329 25.103 158.483 25.4084C158.639 25.7138 158.717 26.0866 158.717 26.527V30H157.432V26.7259C157.432 26.3589 157.337 26.0736 157.148 25.87C156.961 25.6641 156.698 25.5611 156.359 25.5611C156.132 25.5611 155.929 25.6108 155.749 25.7102C155.571 25.8073 155.431 25.9482 155.33 26.1328C155.23 26.3175 155.18 26.5412 155.18 26.804ZM166.819 25.9872L165.647 26.1151C165.614 25.9967 165.556 25.8854 165.473 25.7812C165.393 25.6771 165.284 25.593 165.147 25.5291C165.009 25.4652 164.841 25.4332 164.642 25.4332C164.375 25.4332 164.15 25.4912 163.968 25.6072C163.788 25.7232 163.699 25.8736 163.701 26.0582C163.699 26.2169 163.757 26.3459 163.875 26.4453C163.996 26.5447 164.195 26.6264 164.472 26.6903L165.402 26.8892C165.918 27.0005 166.302 27.1768 166.553 27.4183C166.806 27.6598 166.934 27.9759 166.936 28.3665C166.934 28.7098 166.833 29.0128 166.635 29.2756C166.438 29.536 166.165 29.7396 165.814 29.8864C165.464 30.0331 165.061 30.1065 164.607 30.1065C163.939 30.1065 163.402 29.9669 162.995 29.6875C162.587 29.4058 162.345 29.014 162.267 28.5121L163.52 28.3913C163.577 28.6375 163.698 28.8234 163.882 28.9489C164.067 29.0743 164.307 29.1371 164.603 29.1371C164.909 29.1371 165.154 29.0743 165.338 28.9489C165.525 28.8234 165.619 28.6683 165.619 28.4837C165.619 28.3274 165.559 28.1984 165.438 28.0966C165.319 27.9948 165.135 27.9167 164.884 27.8622L163.953 27.6669C163.43 27.558 163.043 27.3745 162.792 27.1165C162.541 26.8561 162.417 26.527 162.419 26.1293C162.417 25.7931 162.508 25.5019 162.693 25.2557C162.88 25.0071 163.139 24.8153 163.471 24.6804C163.804 24.5431 164.189 24.4744 164.625 24.4744C165.264 24.4744 165.767 24.6106 166.134 24.8828C166.503 25.1551 166.732 25.5232 166.819 25.9872ZM171.473 27.706V24.5455H172.759V30H171.512V29.0305H171.455C171.332 29.3359 171.13 29.5857 170.848 29.7798C170.569 29.974 170.224 30.071 169.815 30.071C169.457 30.071 169.141 29.9917 168.866 29.8331C168.594 29.6721 168.381 29.4389 168.227 29.1335C168.073 28.8258 167.996 28.4541 167.996 28.0185V24.5455H169.282V27.8196C169.282 28.1652 169.377 28.4399 169.566 28.6435C169.755 28.8471 170.004 28.9489 170.312 28.9489C170.501 28.9489 170.685 28.9027 170.862 28.8104C171.04 28.718 171.185 28.5807 171.299 28.3984C171.415 28.2138 171.473 27.983 171.473 27.706ZM174.137 30V22.7273H175.423V25.4474H175.476C175.542 25.3149 175.636 25.174 175.757 25.0249C175.877 24.8733 176.041 24.7443 176.247 24.6378C176.453 24.5289 176.715 24.4744 177.035 24.4744C177.456 24.4744 177.836 24.5821 178.175 24.7976C178.516 25.0107 178.786 25.3267 178.985 25.7457C179.186 26.1624 179.286 26.6738 179.286 27.2798C179.286 27.8788 179.188 28.3878 178.992 28.8068C178.795 29.2259 178.528 29.5455 178.189 29.7656C177.851 29.9858 177.467 30.0959 177.039 30.0959C176.726 30.0959 176.467 30.0438 176.261 29.9396C176.055 29.8355 175.889 29.71 175.764 29.5632C175.641 29.4141 175.545 29.2732 175.476 29.1406H175.401V30H174.137ZM175.398 27.2727C175.398 27.6255 175.448 27.9344 175.547 28.1996C175.649 28.4647 175.794 28.6719 175.984 28.821C176.176 28.9678 176.408 29.0412 176.68 29.0412C176.964 29.0412 177.202 28.9654 177.394 28.8139C177.585 28.66 177.73 28.4505 177.827 28.1854C177.926 27.9179 177.976 27.6136 177.976 27.2727C177.976 26.9342 177.927 26.6335 177.83 26.3707C177.733 26.108 177.589 25.902 177.397 25.7528C177.205 25.6037 176.966 25.5291 176.68 25.5291C176.405 25.5291 176.172 25.6013 175.98 25.7457C175.789 25.8902 175.643 26.0926 175.544 26.353C175.446 26.6134 175.398 26.92 175.398 27.2727ZM183.685 26.4418V27.5H180.411V26.4418H183.685ZM186.323 22.7273V30H185.037V22.7273H186.323ZM189.214 30.1101C188.869 30.1101 188.558 30.0485 188.281 29.9254C188.006 29.8 187.788 29.6153 187.627 29.3714C187.469 29.1276 187.389 28.8269 187.389 28.4695C187.389 28.1617 187.446 27.9072 187.56 27.706C187.673 27.5047 187.828 27.3438 188.025 27.223C188.221 27.1023 188.443 27.0111 188.689 26.9496C188.938 26.8857 189.194 26.8395 189.46 26.8111C189.779 26.7779 190.038 26.7483 190.237 26.7223C190.436 26.6939 190.58 26.6513 190.67 26.5945C190.763 26.5353 190.809 26.4441 190.809 26.321V26.2997C190.809 26.0322 190.73 25.825 190.571 25.6783C190.412 25.5315 190.184 25.4581 189.886 25.4581C189.571 25.4581 189.321 25.5268 189.136 25.6641C188.954 25.8014 188.831 25.9635 188.767 26.1506L187.567 25.9801C187.661 25.6487 187.818 25.3717 188.036 25.1491C188.253 24.9242 188.52 24.7562 188.835 24.6449C189.149 24.5312 189.497 24.4744 189.879 24.4744C190.141 24.4744 190.403 24.5052 190.663 24.5668C190.924 24.6283 191.162 24.7301 191.377 24.8722C191.593 25.0118 191.765 25.2024 191.896 25.4439C192.028 25.6854 192.094 25.9872 192.094 26.3494V30H190.859V29.2507H190.816C190.738 29.4022 190.628 29.5443 190.486 29.6768C190.346 29.8071 190.17 29.9124 189.957 29.9929C189.746 30.071 189.499 30.1101 189.214 30.1101ZM189.548 29.1655C189.806 29.1655 190.03 29.1146 190.219 29.0128C190.409 28.9086 190.554 28.7713 190.656 28.6009C190.76 28.4304 190.812 28.2446 190.812 28.0433V27.4006C190.772 27.4337 190.704 27.4645 190.607 27.4929C190.512 27.5213 190.405 27.5462 190.287 27.5675C190.169 27.5888 190.051 27.6077 189.935 27.6243C189.819 27.6409 189.719 27.6551 189.634 27.6669C189.442 27.6929 189.27 27.7356 189.119 27.7947C188.967 27.8539 188.848 27.9368 188.76 28.0433C188.672 28.1475 188.629 28.2824 188.629 28.4482C188.629 28.6849 188.715 28.8636 188.888 28.9844C189.061 29.1051 189.281 29.1655 189.548 29.1655ZM193.991 32.0455C193.816 32.0455 193.653 32.0313 193.504 32.0028C193.357 31.9768 193.24 31.946 193.153 31.9105L193.451 30.9091C193.638 30.9635 193.805 30.9896 193.952 30.9872C194.098 30.9848 194.228 30.9387 194.339 30.8487C194.452 30.7611 194.548 30.6143 194.626 30.4084L194.737 30.1136L192.759 24.5455H194.122L195.379 28.6648H195.436L196.697 24.5455H198.064L195.88 30.6605C195.778 30.9493 195.643 31.1967 195.475 31.4027C195.307 31.611 195.101 31.7696 194.857 31.8786C194.616 31.9898 194.327 32.0455 193.991 32.0455ZM201.183 30.1065C200.636 30.1065 200.164 29.9929 199.766 29.7656C199.37 29.536 199.066 29.2116 198.853 28.7926C198.64 28.3712 198.534 27.8752 198.534 27.3047C198.534 26.7436 198.64 26.2512 198.853 25.8274C199.069 25.4013 199.369 25.0698 199.755 24.8331C200.141 24.594 200.594 24.4744 201.115 24.4744C201.451 24.4744 201.769 24.5289 202.067 24.6378C202.368 24.7443 202.633 24.91 202.862 25.1349C203.094 25.3598 203.277 25.6463 203.409 25.9943C203.542 26.34 203.608 26.7519 203.608 27.2301V27.6243H199.137V26.7578H202.376C202.374 26.5116 202.32 26.2926 202.216 26.1009C202.112 25.9067 201.966 25.754 201.779 25.6428C201.595 25.5315 201.379 25.4759 201.133 25.4759C200.87 25.4759 200.639 25.5398 200.441 25.6676C200.242 25.7931 200.087 25.9588 199.975 26.1648C199.866 26.3684 199.811 26.5921 199.808 26.8359V27.5923C199.808 27.9096 199.866 28.1818 199.982 28.4091C200.098 28.634 200.261 28.8068 200.469 28.9276C200.677 29.0459 200.921 29.1051 201.2 29.1051C201.387 29.1051 201.557 29.0791 201.708 29.027C201.86 28.9725 201.991 28.8932 202.102 28.7891C202.214 28.6849 202.298 28.5559 202.355 28.402L203.555 28.5369C203.479 28.8542 203.335 29.1312 203.122 29.3679C202.911 29.6023 202.641 29.7846 202.312 29.9148C201.983 30.0426 201.606 30.1065 201.183 30.1065ZM204.696 30V24.5455H205.942V25.4545H205.999C206.098 25.1397 206.269 24.897 206.51 24.7266C206.754 24.5537 207.032 24.4673 207.345 24.4673C207.416 24.4673 207.495 24.4709 207.583 24.478C207.673 24.4827 207.747 24.491 207.806 24.5028V25.6854C207.752 25.6664 207.666 25.6499 207.547 25.6357C207.431 25.6191 207.319 25.6108 207.21 25.6108C206.975 25.6108 206.765 25.6617 206.578 25.7635C206.393 25.8629 206.248 26.0014 206.141 26.179C206.034 26.3565 205.981 26.5613 205.981 26.7933V30H204.696Z" fill="black"/>
<path d="M239.881 157V149.727H242.338C242.909 149.727 243.375 149.83 243.737 150.036C244.102 150.24 244.372 150.516 244.547 150.864C244.722 151.212 244.81 151.6 244.81 152.028C244.81 152.457 244.722 152.846 244.547 153.197C244.374 153.547 244.107 153.826 243.744 154.035C243.382 154.241 242.918 154.344 242.352 154.344H240.591V153.562H242.324C242.714 153.562 243.028 153.495 243.265 153.36C243.502 153.225 243.673 153.043 243.78 152.813C243.889 152.581 243.943 152.32 243.943 152.028C243.943 151.737 243.889 151.477 243.78 151.247C243.673 151.018 243.5 150.838 243.261 150.707C243.022 150.575 242.705 150.509 242.31 150.509H240.761V157H239.881ZM248.272 157.114C247.78 157.114 247.348 156.996 246.976 156.762C246.607 156.528 246.318 156.2 246.109 155.778C245.903 155.357 245.8 154.865 245.8 154.301C245.8 153.733 245.903 153.237 246.109 152.813C246.318 152.389 246.607 152.06 246.976 151.826C247.348 151.592 247.78 151.474 248.272 151.474C248.764 151.474 249.195 151.592 249.565 151.826C249.936 152.06 250.225 152.389 250.431 152.813C250.639 153.237 250.744 153.733 250.744 154.301C250.744 154.865 250.639 155.357 250.431 155.778C250.225 156.2 249.936 156.528 249.565 156.762C249.195 156.996 248.764 157.114 248.272 157.114ZM248.272 156.361C248.646 156.361 248.954 156.265 249.195 156.073C249.437 155.881 249.616 155.629 249.732 155.317C249.848 155.004 249.906 154.666 249.906 154.301C249.906 153.937 249.848 153.597 249.732 153.282C249.616 152.967 249.437 152.713 249.195 152.518C248.954 152.324 248.646 152.227 248.272 152.227C247.898 152.227 247.59 152.324 247.349 152.518C247.107 152.713 246.929 152.967 246.812 153.282C246.696 153.597 246.638 153.937 246.638 154.301C246.638 154.666 246.696 155.004 246.812 155.317C246.929 155.629 247.107 155.881 247.349 156.073C247.59 156.265 247.898 156.361 248.272 156.361ZM255.887 152.767L255.134 152.98C255.086 152.855 255.017 152.733 254.924 152.614C254.834 152.494 254.711 152.394 254.555 152.316C254.399 152.238 254.199 152.199 253.955 152.199C253.621 152.199 253.343 152.276 253.12 152.43C252.9 152.581 252.79 152.774 252.79 153.009C252.79 153.217 252.866 153.381 253.017 153.502C253.169 153.623 253.405 153.723 253.727 153.804L254.537 154.003C255.025 154.121 255.388 154.302 255.627 154.546C255.866 154.788 255.986 155.099 255.986 155.48C255.986 155.793 255.896 156.072 255.716 156.318C255.539 156.564 255.29 156.759 254.97 156.901C254.651 157.043 254.279 157.114 253.855 157.114C253.299 157.114 252.838 156.993 252.474 156.751C252.109 156.51 251.878 156.157 251.781 155.693L252.577 155.494C252.653 155.788 252.796 156.008 253.007 156.155C253.22 156.302 253.498 156.375 253.841 156.375C254.232 156.375 254.542 156.292 254.771 156.126C255.003 155.958 255.119 155.757 255.119 155.523C255.119 155.333 255.053 155.175 254.921 155.047C254.788 154.917 254.584 154.82 254.31 154.756L253.401 154.543C252.901 154.424 252.534 154.241 252.3 153.992C252.068 153.741 251.952 153.428 251.952 153.051C251.952 152.743 252.038 152.471 252.211 152.234C252.386 151.998 252.624 151.812 252.925 151.677C253.228 151.542 253.571 151.474 253.955 151.474C254.494 151.474 254.918 151.593 255.226 151.83C255.536 152.066 255.756 152.379 255.887 152.767ZM259.62 151.545V152.256H256.793V151.545H259.62ZM257.617 150.239H258.455V155.438C258.455 155.674 258.489 155.852 258.558 155.97C258.629 156.086 258.719 156.164 258.828 156.205C258.939 156.242 259.056 156.261 259.179 156.261C259.272 156.261 259.347 156.257 259.407 156.247C259.466 156.235 259.513 156.226 259.549 156.219L259.719 156.972C259.662 156.993 259.583 157.014 259.481 157.036C259.379 157.059 259.25 157.071 259.094 157.071C258.857 157.071 258.625 157.02 258.398 156.918C258.173 156.817 257.986 156.661 257.837 156.453C257.69 156.245 257.617 155.982 257.617 155.665V150.239ZM263.81 153.491V154.273H260.628V153.491H263.81ZM265.398 157V149.727H266.279V156.219H269.66V157H265.398ZM276.79 149.727V157H275.938L271.975 151.29H271.904V157H271.023V149.727H271.876L275.853 155.452H275.924V149.727H276.79Z" fill="black"/>
<path d="M295.383 127V119.727H297.84C298.411 119.727 298.877 119.83 299.239 120.036C299.604 120.24 299.874 120.516 300.049 120.864C300.224 121.212 300.312 121.6 300.312 122.028C300.312 122.457 300.224 122.846 300.049 123.197C299.876 123.547 299.608 123.826 299.246 124.035C298.884 124.241 298.42 124.344 297.854 124.344H296.093V123.562H297.826C298.216 123.562 298.53 123.495 298.767 123.36C299.004 123.225 299.175 123.043 299.282 122.813C299.391 122.581 299.445 122.32 299.445 122.028C299.445 121.737 299.391 121.477 299.282 121.247C299.175 121.018 299.002 120.838 298.763 120.707C298.524 120.575 298.207 120.509 297.812 120.509H296.263V127H295.383ZM304.159 119.727V127H303.279V120.651H303.236L301.46 121.83V120.935L303.279 119.727H304.159Z" fill="black"/>
<path d="M356.675 153.719L357.215 153.165L359.09 155.011L362.968 151.148L363.522 151.702L359.09 156.119L356.675 153.719Z" fill="black"/>
<path d="M297.602 158.37C297.549 158.37 297.515 158.36 297.502 158.34L297.322 158.1C297.349 158.02 297.362 157.96 297.362 157.92C297.362 157.893 297.355 157.88 297.342 157.88C297.302 157.88 297.262 157.897 297.222 157.93C297.175 157.963 297.129 157.98 297.082 157.98C297.055 157.973 297.042 157.957 297.042 157.93L297.062 157.8C297.062 157.787 297.055 157.78 297.042 157.78L296.982 157.8L296.902 157.82C296.889 157.807 296.882 157.793 296.882 157.78L296.902 157.62C296.902 157.58 296.892 157.537 296.872 157.49C296.852 157.443 296.835 157.42 296.822 157.42L296.682 157.36C296.702 157.32 296.722 157.277 296.742 157.23C296.762 157.19 296.775 157.147 296.782 157.1C296.782 157.067 296.775 157.02 296.762 156.96C296.755 156.9 296.735 156.827 296.702 156.74C296.802 156.527 296.999 156.24 297.292 155.88C297.585 155.52 297.982 155.073 298.482 154.54C298.142 153.84 297.802 153.04 297.462 152.14L297.412 152.08C297.392 152.053 297.369 152.003 297.342 151.93C297.315 151.85 297.292 151.773 297.272 151.7C297.252 151.62 297.242 151.57 297.242 151.55C297.242 151.53 297.249 151.52 297.262 151.52C297.302 151.52 297.349 151.5 297.402 151.46C297.462 151.413 297.495 151.37 297.502 151.33C297.515 151.297 297.545 151.253 297.592 151.2C297.645 151.147 297.682 151.12 297.702 151.12C297.709 151.12 297.739 151.137 297.792 151.17C297.812 151.177 297.829 151.187 297.842 151.2C297.862 151.207 297.882 151.21 297.902 151.21L297.942 151.2C298.002 151.173 298.042 151.087 298.062 150.94C298.102 150.993 298.139 151.02 298.172 151.02L298.202 151C298.229 150.96 298.245 150.927 298.252 150.9C298.272 150.867 298.292 150.85 298.312 150.85L298.342 150.86C298.382 150.9 298.455 150.99 298.562 151.13C298.669 151.27 298.782 151.427 298.902 151.6C299.029 151.773 299.129 151.927 299.202 152.06C299.262 152.167 299.345 152.303 299.452 152.47C299.559 152.63 299.689 152.82 299.842 153.04C300.262 152.573 300.599 152.207 300.852 151.94C301.105 151.667 301.275 151.493 301.362 151.42C301.449 151.347 301.529 151.273 301.602 151.2C301.675 151.127 301.745 151.057 301.812 150.99C301.939 150.85 302.042 150.747 302.122 150.68L302.482 150.4L302.512 150.41C302.612 150.477 302.669 150.537 302.682 150.59L302.702 150.66L302.842 150.74L302.822 150.85C302.822 150.877 302.839 150.93 302.872 151.01C302.905 151.083 302.935 151.127 302.962 151.14C302.995 151.14 303.025 151.13 303.052 151.11C303.085 151.09 303.132 151.08 303.192 151.08H303.242L303.202 151.24L303.302 151.26L303.322 151.43C303.322 151.517 303.282 151.587 303.202 151.64L303.282 151.76L302.182 152.83C302.029 152.983 301.832 153.19 301.592 153.45C301.359 153.703 301.089 154.013 300.782 154.38C301.175 154.907 301.485 155.32 301.712 155.62C301.945 155.913 302.095 156.097 302.162 156.17C302.295 156.317 302.362 156.42 302.362 156.48C302.362 156.533 302.342 156.607 302.302 156.7C302.269 156.793 302.229 156.877 302.182 156.95C302.135 157.023 302.095 157.06 302.062 157.06L301.762 157.08L301.842 157.36L301.802 157.39C301.762 157.41 301.732 157.42 301.712 157.42H301.662C301.602 157.42 301.562 157.453 301.542 157.52C301.515 157.593 301.465 157.63 301.392 157.63C301.352 157.63 301.315 157.613 301.282 157.58C301.249 157.547 301.199 157.53 301.132 157.53C301.099 157.53 301.075 157.54 301.062 157.56L301.032 157.63C301.025 157.677 301.015 157.717 301.002 157.75C300.995 157.783 300.989 157.807 300.982 157.82C300.969 157.853 300.942 157.87 300.902 157.87H300.872C300.845 157.87 300.812 157.863 300.772 157.85C300.739 157.837 300.695 157.82 300.642 157.8C300.429 157.573 300.015 157 299.402 156.08L298.932 156.68C298.705 156.967 298.529 157.193 298.402 157.36C298.282 157.533 298.209 157.64 298.182 157.68L298.082 157.86C297.895 158.193 297.789 158.36 297.762 158.36L297.602 158.37Z" fill="black"/>
<path d="M327.602 158.37C327.549 158.37 327.515 158.36 327.502 158.34L327.322 158.1C327.349 158.02 327.362 157.96 327.362 157.92C327.362 157.893 327.355 157.88 327.342 157.88C327.302 157.88 327.262 157.897 327.222 157.93C327.175 157.963 327.129 157.98 327.082 157.98C327.055 157.973 327.042 157.957 327.042 157.93L327.062 157.8C327.062 157.787 327.055 157.78 327.042 157.78L326.982 157.8L326.902 157.82C326.889 157.807 326.882 157.793 326.882 157.78L326.902 157.62C326.902 157.58 326.892 157.537 326.872 157.49C326.852 157.443 326.835 157.42 326.822 157.42L326.682 157.36C326.702 157.32 326.722 157.277 326.742 157.23C326.762 157.19 326.775 157.147 326.782 157.1C326.782 157.067 326.775 157.02 326.762 156.96C326.755 156.9 326.735 156.827 326.702 156.74C326.802 156.527 326.999 156.24 327.292 155.88C327.585 155.52 327.982 155.073 328.482 154.54C328.142 153.84 327.802 153.04 327.462 152.14L327.412 152.08C327.392 152.053 327.369 152.003 327.342 151.93C327.315 151.85 327.292 151.773 327.272 151.7C327.252 151.62 327.242 151.57 327.242 151.55C327.242 151.53 327.249 151.52 327.262 151.52C327.302 151.52 327.349 151.5 327.402 151.46C327.462 151.413 327.495 151.37 327.502 151.33C327.515 151.297 327.545 151.253 327.592 151.2C327.645 151.147 327.682 151.12 327.702 151.12C327.709 151.12 327.739 151.137 327.792 151.17C327.812 151.177 327.829 151.187 327.842 151.2C327.862 151.207 327.882 151.21 327.902 151.21L327.942 151.2C328.002 151.173 328.042 151.087 328.062 150.94C328.102 150.993 328.139 151.02 328.172 151.02L328.202 151C328.229 150.96 328.245 150.927 328.252 150.9C328.272 150.867 328.292 150.85 328.312 150.85L328.342 150.86C328.382 150.9 328.455 150.99 328.562 151.13C328.669 151.27 328.782 151.427 328.902 151.6C329.029 151.773 329.129 151.927 329.202 152.06C329.262 152.167 329.345 152.303 329.452 152.47C329.559 152.63 329.689 152.82 329.842 153.04C330.262 152.573 330.599 152.207 330.852 151.94C331.105 151.667 331.275 151.493 331.362 151.42C331.449 151.347 331.529 151.273 331.602 151.2C331.675 151.127 331.745 151.057 331.812 150.99C331.939 150.85 332.042 150.747 332.122 150.68L332.482 150.4L332.512 150.41C332.612 150.477 332.669 150.537 332.682 150.59L332.702 150.66L332.842 150.74L332.822 150.85C332.822 150.877 332.839 150.93 332.872 151.01C332.905 151.083 332.935 151.127 332.962 151.14C332.995 151.14 333.025 151.13 333.052 151.11C333.085 151.09 333.132 151.08 333.192 151.08H333.242L333.202 151.24L333.302 151.26L333.322 151.43C333.322 151.517 333.282 151.587 333.202 151.64L333.282 151.76L332.182 152.83C332.029 152.983 331.832 153.19 331.592 153.45C331.359 153.703 331.089 154.013 330.782 154.38C331.175 154.907 331.485 155.32 331.712 155.62C331.945 155.913 332.095 156.097 332.162 156.17C332.295 156.317 332.362 156.42 332.362 156.48C332.362 156.533 332.342 156.607 332.302 156.7C332.269 156.793 332.229 156.877 332.182 156.95C332.135 157.023 332.095 157.06 332.062 157.06L331.762 157.08L331.842 157.36L331.802 157.39C331.762 157.41 331.732 157.42 331.712 157.42H331.662C331.602 157.42 331.562 157.453 331.542 157.52C331.515 157.593 331.465 157.63 331.392 157.63C331.352 157.63 331.315 157.613 331.282 157.58C331.249 157.547 331.199 157.53 331.132 157.53C331.099 157.53 331.075 157.54 331.062 157.56L331.032 157.63C331.025 157.677 331.015 157.717 331.002 157.75C330.995 157.783 330.989 157.807 330.982 157.82C330.969 157.853 330.942 157.87 330.902 157.87H330.872C330.845 157.87 330.812 157.863 330.772 157.85C330.739 157.837 330.695 157.82 330.642 157.8C330.429 157.573 330.015 157 329.402 156.08L328.932 156.68C328.705 156.967 328.529 157.193 328.402 157.36C328.282 157.533 328.209 157.64 328.182 157.68L328.082 157.86C327.895 158.193 327.789 158.36 327.762 158.36L327.602 158.37Z" fill="black"/>
<path d="M327.602 188.37C327.549 188.37 327.515 188.36 327.502 188.34L327.322 188.1C327.349 188.02 327.362 187.96 327.362 187.92C327.362 187.893 327.355 187.88 327.342 187.88C327.302 187.88 327.262 187.897 327.222 187.93C327.175 187.963 327.129 187.98 327.082 187.98C327.055 187.973 327.042 187.957 327.042 187.93L327.062 187.8C327.062 187.787 327.055 187.78 327.042 187.78L326.982 187.8L326.902 187.82C326.889 187.807 326.882 187.793 326.882 187.78L326.902 187.62C326.902 187.58 326.892 187.537 326.872 187.49C326.852 187.443 326.835 187.42 326.822 187.42L326.682 187.36C326.702 187.32 326.722 187.277 326.742 187.23C326.762 187.19 326.775 187.147 326.782 187.1C326.782 187.067 326.775 187.02 326.762 186.96C326.755 186.9 326.735 186.827 326.702 186.74C326.802 186.527 326.999 186.24 327.292 185.88C327.585 185.52 327.982 185.073 328.482 184.54C328.142 183.84 327.802 183.04 327.462 182.14L327.412 182.08C327.392 182.053 327.369 182.003 327.342 181.93C327.315 181.85 327.292 181.773 327.272 181.7C327.252 181.62 327.242 181.57 327.242 181.55C327.242 181.53 327.249 181.52 327.262 181.52C327.302 181.52 327.349 181.5 327.402 181.46C327.462 181.413 327.495 181.37 327.502 181.33C327.515 181.297 327.545 181.253 327.592 181.2C327.645 181.147 327.682 181.12 327.702 181.12C327.709 181.12 327.739 181.137 327.792 181.17C327.812 181.177 327.829 181.187 327.842 181.2C327.862 181.207 327.882 181.21 327.902 181.21L327.942 181.2C328.002 181.173 328.042 181.087 328.062 180.94C328.102 180.993 328.139 181.02 328.172 181.02L328.202 181C328.229 180.96 328.245 180.927 328.252 180.9C328.272 180.867 328.292 180.85 328.312 180.85L328.342 180.86C328.382 180.9 328.455 180.99 328.562 181.13C328.669 181.27 328.782 181.427 328.902 181.6C329.029 181.773 329.129 181.927 329.202 182.06C329.262 182.167 329.345 182.303 329.452 182.47C329.559 182.63 329.689 182.82 329.842 183.04C330.262 182.573 330.599 182.207 330.852 181.94C331.105 181.667 331.275 181.493 331.362 181.42C331.449 181.347 331.529 181.273 331.602 181.2C331.675 181.127 331.745 181.057 331.812 180.99C331.939 180.85 332.042 180.747 332.122 180.68L332.482 180.4L332.512 180.41C332.612 180.477 332.669 180.537 332.682 180.59L332.702 180.66L332.842 180.74L332.822 180.85C332.822 180.877 332.839 180.93 332.872 181.01C332.905 181.083 332.935 181.127 332.962 181.14C332.995 181.14 333.025 181.13 333.052 181.11C333.085 181.09 333.132 181.08 333.192 181.08H333.242L333.202 181.24L333.302 181.26L333.322 181.43C333.322 181.517 333.282 181.587 333.202 181.64L333.282 181.76L332.182 182.83C332.029 182.983 331.832 183.19 331.592 183.45C331.359 183.703 331.089 184.013 330.782 184.38C331.175 184.907 331.485 185.32 331.712 185.62C331.945 185.913 332.095 186.097 332.162 186.17C332.295 186.317 332.362 186.42 332.362 186.48C332.362 186.533 332.342 186.607 332.302 186.7C332.269 186.793 332.229 186.877 332.182 186.95C332.135 187.023 332.095 187.06 332.062 187.06L331.762 187.08L331.842 187.36L331.802 187.39C331.762 187.41 331.732 187.42 331.712 187.42H331.662C331.602 187.42 331.562 187.453 331.542 187.52C331.515 187.593 331.465 187.63 331.392 187.63C331.352 187.63 331.315 187.613 331.282 187.58C331.249 187.547 331.199 187.53 331.132 187.53C331.099 187.53 331.075 187.54 331.062 187.56L331.032 187.63C331.025 187.677 331.015 187.717 331.002 187.75C330.995 187.783 330.989 187.807 330.982 187.82C330.969 187.853 330.942 187.87 330.902 187.87H330.872C330.845 187.87 330.812 187.863 330.772 187.85C330.739 187.837 330.695 187.82 330.642 187.8C330.429 187.573 330.015 187 329.402 186.08L328.932 186.68C328.705 186.967 328.529 187.193 328.402 187.36C328.282 187.533 328.209 187.64 328.182 187.68L328.082 187.86C327.895 188.193 327.789 188.36 327.762 188.36L327.602 188.37Z" fill="black"/>
<path d="M357.602 188.37C357.549 188.37 357.515 188.36 357.502 188.34L357.322 188.1C357.349 188.02 357.362 187.96 357.362 187.92C357.362 187.893 357.355 187.88 357.342 187.88C357.302 187.88 357.262 187.897 357.222 187.93C357.175 187.963 357.129 187.98 357.082 187.98C357.055 187.973 357.042 187.957 357.042 187.93L357.062 187.8C357.062 187.787 357.055 187.78 357.042 187.78L356.982 187.8L356.902 187.82C356.889 187.807 356.882 187.793 356.882 187.78L356.902 187.62C356.902 187.58 356.892 187.537 356.872 187.49C356.852 187.443 356.835 187.42 356.822 187.42L356.682 187.36C356.702 187.32 356.722 187.277 356.742 187.23C356.762 187.19 356.775 187.147 356.782 187.1C356.782 187.067 356.775 187.02 356.762 186.96C356.755 186.9 356.735 186.827 356.702 186.74C356.802 186.527 356.999 186.24 357.292 185.88C357.585 185.52 357.982 185.073 358.482 184.54C358.142 183.84 357.802 183.04 357.462 182.14L357.412 182.08C357.392 182.053 357.369 182.003 357.342 181.93C357.315 181.85 357.292 181.773 357.272 181.7C357.252 181.62 357.242 181.57 357.242 181.55C357.242 181.53 357.249 181.52 357.262 181.52C357.302 181.52 357.349 181.5 357.402 181.46C357.462 181.413 357.495 181.37 357.502 181.33C357.515 181.297 357.545 181.253 357.592 181.2C357.645 181.147 357.682 181.12 357.702 181.12C357.709 181.12 357.739 181.137 357.792 181.17C357.812 181.177 357.829 181.187 357.842 181.2C357.862 181.207 357.882 181.21 357.902 181.21L357.942 181.2C358.002 181.173 358.042 181.087 358.062 180.94C358.102 180.993 358.139 181.02 358.172 181.02L358.202 181C358.229 180.96 358.245 180.927 358.252 180.9C358.272 180.867 358.292 180.85 358.312 180.85L358.342 180.86C358.382 180.9 358.455 180.99 358.562 181.13C358.669 181.27 358.782 181.427 358.902 181.6C359.029 181.773 359.129 181.927 359.202 182.06C359.262 182.167 359.345 182.303 359.452 182.47C359.559 182.63 359.689 182.82 359.842 183.04C360.262 182.573 360.599 182.207 360.852 181.94C361.105 181.667 361.275 181.493 361.362 181.42C361.449 181.347 361.529 181.273 361.602 181.2C361.675 181.127 361.745 181.057 361.812 180.99C361.939 180.85 362.042 180.747 362.122 180.68L362.482 180.4L362.512 180.41C362.612 180.477 362.669 180.537 362.682 180.59L362.702 180.66L362.842 180.74L362.822 180.85C362.822 180.877 362.839 180.93 362.872 181.01C362.905 181.083 362.935 181.127 362.962 181.14C362.995 181.14 363.025 181.13 363.052 181.11C363.085 181.09 363.132 181.08 363.192 181.08H363.242L363.202 181.24L363.302 181.26L363.322 181.43C363.322 181.517 363.282 181.587 363.202 181.64L363.282 181.76L362.182 182.83C362.029 182.983 361.832 183.19 361.592 183.45C361.359 183.703 361.089 184.013 360.782 184.38C361.175 184.907 361.485 185.32 361.712 185.62C361.945 185.913 362.095 186.097 362.162 186.17C362.295 186.317 362.362 186.42 362.362 186.48C362.362 186.533 362.342 186.607 362.302 186.7C362.269 186.793 362.229 186.877 362.182 186.95C362.135 187.023 362.095 187.06 362.062 187.06L361.762 187.08L361.842 187.36L361.802 187.39C361.762 187.41 361.732 187.42 361.712 187.42H361.662C361.602 187.42 361.562 187.453 361.542 187.52C361.515 187.593 361.465 187.63 361.392 187.63C361.352 187.63 361.315 187.613 361.282 187.58C361.249 187.547 361.199 187.53 361.132 187.53C361.099 187.53 361.075 187.54 361.062 187.56L361.032 187.63C361.025 187.677 361.015 187.717 361.002 187.75C360.995 187.783 360.989 187.807 360.982 187.82C360.969 187.853 360.942 187.87 360.902 187.87H360.872C360.845 187.87 360.812 187.863 360.772 187.85C360.739 187.837 360.695 187.82 360.642 187.8C360.429 187.573 360.015 187 359.402 186.08L358.932 186.68C358.705 186.967 358.529 187.193 358.402 187.36C358.282 187.533 358.209 187.64 358.182 187.68L358.082 187.86C357.895 188.193 357.789 188.36 357.762 188.36L357.602 188.37Z" fill="black"/>
<path d="M357.602 218.37C357.549 218.37 357.515 218.36 357.502 218.34L357.322 218.1C357.349 218.02 357.362 217.96 357.362 217.92C357.362 217.893 357.355 217.88 357.342 217.88C357.302 217.88 357.262 217.897 357.222 217.93C357.175 217.963 357.129 217.98 357.082 217.98C357.055 217.973 357.042 217.957 357.042 217.93L357.062 217.8C357.062 217.787 357.055 217.78 357.042 217.78L356.982 217.8L356.902 217.82C356.889 217.807 356.882 217.793 356.882 217.78L356.902 217.62C356.902 217.58 356.892 217.537 356.872 217.49C356.852 217.443 356.835 217.42 356.822 217.42L356.682 217.36C356.702 217.32 356.722 217.277 356.742 217.23C356.762 217.19 356.775 217.147 356.782 217.1C356.782 217.067 356.775 217.02 356.762 216.96C356.755 216.9 356.735 216.827 356.702 216.74C356.802 216.527 356.999 216.24 357.292 215.88C357.585 215.52 357.982 215.073 358.482 214.54C358.142 213.84 357.802 213.04 357.462 212.14L357.412 212.08C357.392 212.053 357.369 212.003 357.342 211.93C357.315 211.85 357.292 211.773 357.272 211.7C357.252 211.62 357.242 211.57 357.242 211.55C357.242 211.53 357.249 211.52 357.262 211.52C357.302 211.52 357.349 211.5 357.402 211.46C357.462 211.413 357.495 211.37 357.502 211.33C357.515 211.297 357.545 211.253 357.592 211.2C357.645 211.147 357.682 211.12 357.702 211.12C357.709 211.12 357.739 211.137 357.792 211.17C357.812 211.177 357.829 211.187 357.842 211.2C357.862 211.207 357.882 211.21 357.902 211.21L357.942 211.2C358.002 211.173 358.042 211.087 358.062 210.94C358.102 210.993 358.139 211.02 358.172 211.02L358.202 211C358.229 210.96 358.245 210.927 358.252 210.9C358.272 210.867 358.292 210.85 358.312 210.85L358.342 210.86C358.382 210.9 358.455 210.99 358.562 211.13C358.669 211.27 358.782 211.427 358.902 211.6C359.029 211.773 359.129 211.927 359.202 212.06C359.262 212.167 359.345 212.303 359.452 212.47C359.559 212.63 359.689 212.82 359.842 213.04C360.262 212.573 360.599 212.207 360.852 211.94C361.105 211.667 361.275 211.493 361.362 211.42C361.449 211.347 361.529 211.273 361.602 211.2C361.675 211.127 361.745 211.057 361.812 210.99C361.939 210.85 362.042 210.747 362.122 210.68L362.482 210.4L362.512 210.41C362.612 210.477 362.669 210.537 362.682 210.59L362.702 210.66L362.842 210.74L362.822 210.85C362.822 210.877 362.839 210.93 362.872 211.01C362.905 211.083 362.935 211.127 362.962 211.14C362.995 211.14 363.025 211.13 363.052 211.11C363.085 211.09 363.132 211.08 363.192 211.08H363.242L363.202 211.24L363.302 211.26L363.322 211.43C363.322 211.517 363.282 211.587 363.202 211.64L363.282 211.76L362.182 212.83C362.029 212.983 361.832 213.19 361.592 213.45C361.359 213.703 361.089 214.013 360.782 214.38C361.175 214.907 361.485 215.32 361.712 215.62C361.945 215.913 362.095 216.097 362.162 216.17C362.295 216.317 362.362 216.42 362.362 216.48C362.362 216.533 362.342 216.607 362.302 216.7C362.269 216.793 362.229 216.877 362.182 216.95C362.135 217.023 362.095 217.06 362.062 217.06L361.762 217.08L361.842 217.36L361.802 217.39C361.762 217.41 361.732 217.42 361.712 217.42H361.662C361.602 217.42 361.562 217.453 361.542 217.52C361.515 217.593 361.465 217.63 361.392 217.63C361.352 217.63 361.315 217.613 361.282 217.58C361.249 217.547 361.199 217.53 361.132 217.53C361.099 217.53 361.075 217.54 361.062 217.56L361.032 217.63C361.025 217.677 361.015 217.717 361.002 217.75C360.995 217.783 360.989 217.807 360.982 217.82C360.969 217.853 360.942 217.87 360.902 217.87H360.872C360.845 217.87 360.812 217.863 360.772 217.85C360.739 217.837 360.695 217.82 360.642 217.8C360.429 217.573 360.015 217 359.402 216.08L358.932 216.68C358.705 216.967 358.529 217.193 358.402 217.36C358.282 217.533 358.209 217.64 358.182 217.68L358.082 217.86C357.895 218.193 357.789 218.36 357.762 218.36L357.602 218.37Z" fill="black"/>
<path d="M296.675 183.719L297.215 183.165L299.09 185.011L302.968 181.148L303.522 181.702L299.09 186.119L296.675 183.719Z" fill="black"/>
<path d="M326.675 213.719L327.215 213.165L329.09 215.011L332.968 211.148L333.522 211.702L329.09 216.119L326.675 213.719Z" fill="black"/>
<path d="M296.675 213.719L297.215 213.165L299.09 215.011L302.968 211.148L303.522 211.702L299.09 216.119L296.675 213.719Z" fill="black"/>
<path d="M324.68 127V119.727H327.137C327.707 119.727 328.174 119.83 328.536 120.036C328.901 120.24 329.171 120.516 329.346 120.864C329.521 121.212 329.608 121.6 329.608 122.028C329.608 122.457 329.521 122.846 329.346 123.197C329.173 123.547 328.905 123.826 328.543 124.035C328.181 124.241 327.717 124.344 327.151 124.344H325.39V123.562H327.123C327.513 123.562 327.827 123.495 328.064 123.36C328.3 123.225 328.472 123.043 328.579 122.813C328.688 122.581 328.742 122.32 328.742 122.028C328.742 121.737 328.688 121.477 328.579 121.247C328.472 121.018 328.299 120.838 328.06 120.707C327.821 120.575 327.504 120.509 327.108 120.509H325.56V127H324.68ZM330.899 127V126.361L333.3 123.733C333.582 123.425 333.814 123.158 333.996 122.93C334.178 122.701 334.313 122.485 334.401 122.284C334.491 122.08 334.536 121.867 334.536 121.645C334.536 121.389 334.474 121.168 334.351 120.981C334.23 120.794 334.065 120.649 333.854 120.548C333.643 120.446 333.406 120.395 333.144 120.395C332.864 120.395 332.62 120.453 332.412 120.569C332.206 120.683 332.046 120.842 331.933 121.048C331.821 121.254 331.766 121.496 331.766 121.773H330.928C330.928 121.347 331.026 120.973 331.222 120.651C331.419 120.329 331.686 120.078 332.025 119.898C332.366 119.718 332.748 119.628 333.172 119.628C333.598 119.628 333.976 119.718 334.305 119.898C334.634 120.078 334.892 120.32 335.079 120.626C335.266 120.931 335.36 121.271 335.36 121.645C335.36 121.912 335.311 122.174 335.214 122.43C335.119 122.683 334.954 122.966 334.717 123.278C334.482 123.589 334.157 123.967 333.74 124.415L332.107 126.162V126.219H335.487V127H330.899Z" fill="black"/>
<path d="M354.523 127V119.727H356.981C357.551 119.727 358.018 119.83 358.38 120.036C358.744 120.24 359.014 120.516 359.189 120.864C359.365 121.212 359.452 121.6 359.452 122.028C359.452 122.457 359.365 122.846 359.189 123.197C359.017 123.547 358.749 123.826 358.387 124.035C358.025 124.241 357.561 124.344 356.995 124.344H355.233V123.562H356.966C357.357 123.562 357.671 123.495 357.907 123.36C358.144 123.225 358.316 123.043 358.422 122.813C358.531 122.581 358.586 122.32 358.586 122.028C358.586 121.737 358.531 121.477 358.422 121.247C358.316 121.018 358.143 120.838 357.904 120.707C357.665 120.575 357.348 120.509 356.952 120.509H355.404V127H354.523ZM363.2 127.099C362.732 127.099 362.314 127.019 361.947 126.858C361.582 126.697 361.292 126.473 361.077 126.187C360.864 125.898 360.748 125.563 360.729 125.182H361.624C361.643 125.416 361.723 125.619 361.865 125.789C362.007 125.957 362.193 126.087 362.423 126.18C362.652 126.272 362.907 126.318 363.186 126.318C363.499 126.318 363.776 126.264 364.017 126.155C364.259 126.046 364.448 125.894 364.585 125.7C364.723 125.506 364.791 125.281 364.791 125.026C364.791 124.758 364.725 124.522 364.593 124.319C364.46 124.113 364.266 123.952 364.01 123.836C363.754 123.72 363.442 123.662 363.073 123.662H362.49V122.881H363.073C363.361 122.881 363.615 122.829 363.833 122.724C364.053 122.62 364.224 122.473 364.347 122.284C364.473 122.095 364.536 121.872 364.536 121.616C364.536 121.37 364.481 121.156 364.372 120.974C364.263 120.791 364.11 120.649 363.911 120.548C363.714 120.446 363.482 120.395 363.215 120.395C362.964 120.395 362.727 120.441 362.504 120.533C362.284 120.623 362.104 120.755 361.965 120.928C361.825 121.098 361.749 121.304 361.737 121.545H360.885C360.899 121.164 361.014 120.83 361.23 120.544C361.445 120.255 361.727 120.03 362.075 119.869C362.425 119.708 362.81 119.628 363.229 119.628C363.679 119.628 364.065 119.719 364.387 119.901C364.709 120.081 364.956 120.319 365.129 120.615C365.302 120.911 365.388 121.231 365.388 121.574C365.388 121.983 365.28 122.333 365.065 122.621C364.852 122.91 364.562 123.11 364.195 123.222V123.278C364.654 123.354 365.013 123.549 365.271 123.864C365.529 124.177 365.658 124.564 365.658 125.026C365.658 125.421 365.55 125.776 365.335 126.091C365.122 126.403 364.83 126.65 364.461 126.83C364.092 127.009 363.672 127.099 363.2 127.099Z" fill="black"/>
<path d="M239.881 187V179.727H242.338C242.909 179.727 243.375 179.83 243.737 180.036C244.102 180.24 244.372 180.516 244.547 180.864C244.722 181.212 244.81 181.6 244.81 182.028C244.81 182.457 244.722 182.846 244.547 183.197C244.374 183.547 244.107 183.826 243.744 184.035C243.382 184.241 242.918 184.344 242.352 184.344H240.591V183.562H242.324C242.714 183.562 243.028 183.495 243.265 183.36C243.502 183.225 243.673 183.043 243.78 182.813C243.889 182.581 243.943 182.32 243.943 182.028C243.943 181.737 243.889 181.477 243.78 181.247C243.673 181.018 243.5 180.838 243.261 180.707C243.022 180.575 242.705 180.509 242.31 180.509H240.761V187H239.881ZM246.115 187V181.545H246.924V182.369H246.981C247.081 182.099 247.261 181.88 247.521 181.712C247.781 181.544 248.075 181.46 248.402 181.46C248.463 181.46 248.54 181.461 248.632 181.464C248.725 181.466 248.795 181.47 248.842 181.474V182.327C248.814 182.32 248.748 182.309 248.647 182.295C248.547 182.278 248.442 182.27 248.331 182.27C248.065 182.27 247.829 182.326 247.62 182.437C247.414 182.546 247.251 182.697 247.13 182.891C247.012 183.083 246.953 183.302 246.953 183.548V187H246.115ZM251.956 187.114C251.431 187.114 250.977 186.998 250.596 186.766C250.217 186.531 249.925 186.205 249.719 185.786C249.516 185.364 249.414 184.874 249.414 184.315C249.414 183.757 249.516 183.264 249.719 182.838C249.925 182.41 250.212 182.076 250.578 181.837C250.948 181.595 251.379 181.474 251.871 181.474C252.155 181.474 252.436 181.522 252.713 181.616C252.99 181.711 253.242 181.865 253.469 182.078C253.696 182.289 253.877 182.568 254.012 182.916C254.147 183.264 254.215 183.693 254.215 184.202V184.557H250.01V183.832H253.363C253.363 183.525 253.301 183.25 253.178 183.009C253.057 182.767 252.884 182.576 252.659 182.437C252.437 182.297 252.174 182.227 251.871 182.227C251.537 182.227 251.248 182.31 251.005 182.476C250.763 182.639 250.577 182.852 250.447 183.115C250.317 183.378 250.252 183.66 250.252 183.96V184.443C250.252 184.855 250.323 185.204 250.465 185.491C250.609 185.775 250.809 185.991 251.065 186.141C251.321 186.287 251.618 186.361 251.956 186.361C252.176 186.361 252.375 186.33 252.553 186.268C252.733 186.205 252.888 186.11 253.018 185.984C253.148 185.857 253.249 185.698 253.32 185.509L254.13 185.736C254.044 186.01 253.901 186.252 253.7 186.46C253.499 186.666 253.25 186.827 252.954 186.943C252.658 187.057 252.326 187.114 251.956 187.114ZM258.615 183.491V184.273H255.433V183.491H258.615ZM260.203 187V179.727H261.084V186.219H264.464V187H260.203ZM271.595 179.727V187H270.743L266.78 181.29H266.709V187H265.828V179.727H266.68L270.657 185.452H270.729V179.727H271.595Z" fill="black"/>
<path d="M240.881 217V209.727H243.338C243.909 209.727 244.375 209.83 244.737 210.036C245.102 210.24 245.372 210.516 245.547 210.864C245.722 211.212 245.81 211.6 245.81 212.028C245.81 212.457 245.722 212.846 245.547 213.197C245.374 213.547 245.107 213.826 244.744 214.035C244.382 214.241 243.918 214.344 243.352 214.344H241.591V213.562H243.324C243.714 213.562 244.028 213.495 244.265 213.36C244.502 213.225 244.673 213.043 244.78 212.813C244.889 212.581 244.943 212.32 244.943 212.028C244.943 211.737 244.889 211.477 244.78 211.247C244.673 211.018 244.5 210.838 244.261 210.707C244.022 210.575 243.705 210.509 243.31 210.509H241.761V217H240.881ZM249.343 217.114C248.817 217.114 248.364 216.998 247.983 216.766C247.604 216.531 247.312 216.205 247.106 215.786C246.902 215.364 246.8 214.874 246.8 214.315C246.8 213.757 246.902 213.264 247.106 212.838C247.312 212.41 247.598 212.076 247.965 211.837C248.335 211.595 248.765 211.474 249.258 211.474C249.542 211.474 249.822 211.522 250.099 211.616C250.376 211.711 250.629 211.865 250.856 212.078C251.083 212.289 251.264 212.568 251.399 212.916C251.534 213.264 251.602 213.693 251.602 214.202V214.557H247.397V213.832H250.749C250.749 213.525 250.688 213.25 250.565 213.009C250.444 212.767 250.271 212.576 250.046 212.437C249.824 212.297 249.561 212.227 249.258 212.227C248.924 212.227 248.635 212.31 248.391 212.476C248.15 212.639 247.964 212.852 247.834 213.115C247.704 213.378 247.638 213.66 247.638 213.96V214.443C247.638 214.855 247.71 215.204 247.852 215.491C247.996 215.775 248.196 215.991 248.452 216.141C248.707 216.287 249.004 216.361 249.343 216.361C249.563 216.361 249.762 216.33 249.94 216.268C250.12 216.205 250.275 216.11 250.405 215.984C250.535 215.857 250.636 215.698 250.707 215.509L251.516 215.736C251.431 216.01 251.288 216.252 251.087 216.46C250.885 216.666 250.637 216.827 250.341 216.943C250.045 217.057 249.712 217.114 249.343 217.114ZM252.876 217V211.545H253.686V212.369H253.743C253.842 212.099 254.022 211.88 254.283 211.712C254.543 211.544 254.837 211.46 255.163 211.46C255.225 211.46 255.302 211.461 255.394 211.464C255.487 211.466 255.556 211.47 255.604 211.474V212.327C255.575 212.32 255.51 212.309 255.408 212.295C255.309 212.278 255.204 212.27 255.092 212.27C254.827 212.27 254.59 212.326 254.382 212.437C254.176 212.546 254.013 212.697 253.892 212.891C253.774 213.083 253.714 213.302 253.714 213.548V217H252.876ZM256.597 217V211.545H257.435V217H256.597ZM257.023 210.636C256.86 210.636 256.719 210.581 256.601 210.469C256.485 210.358 256.427 210.224 256.427 210.068C256.427 209.912 256.485 209.778 256.601 209.667C256.719 209.556 256.86 209.5 257.023 209.5C257.187 209.5 257.326 209.556 257.442 209.667C257.561 209.778 257.62 209.912 257.62 210.068C257.62 210.224 257.561 210.358 257.442 210.469C257.326 210.581 257.187 210.636 257.023 210.636ZM262.095 213.491V214.273H258.913V213.491H262.095ZM263.683 217V209.727H264.564V216.219H267.945V217H263.683ZM275.075 209.727V217H274.223L270.26 211.29H270.189V217H269.308V209.727H270.161L274.138 215.452H274.209V209.727H275.075Z" fill="black"/>
<path d="M181.004 228V217.818H184.822C185.605 217.818 186.261 217.964 186.791 218.256C187.325 218.547 187.728 218.948 187.999 219.459C188.274 219.966 188.412 220.543 188.412 221.189C188.412 221.842 188.274 222.422 187.999 222.929C187.724 223.436 187.318 223.835 186.781 224.127C186.244 224.415 185.583 224.56 184.798 224.56H182.267V223.043H184.549C185.006 223.043 185.381 222.964 185.673 222.805C185.964 222.646 186.18 222.427 186.319 222.148C186.461 221.87 186.533 221.55 186.533 221.189C186.533 220.828 186.461 220.509 186.319 220.234C186.18 219.959 185.963 219.746 185.668 219.593C185.376 219.437 185 219.359 184.539 219.359H182.849V228H181.004ZM194.056 217.818V228H192.211V219.613H192.152L189.77 221.134V219.444L192.301 217.818H194.056Z" fill="#F88379"/>
<path d="M181.004 139V128.818H184.822C185.605 128.818 186.261 128.964 186.791 129.256C187.325 129.547 187.728 129.948 187.999 130.459C188.274 130.966 188.412 131.543 188.412 132.189C188.412 132.842 188.274 133.422 187.999 133.929C187.724 134.436 187.318 134.835 186.781 135.127C186.244 135.415 185.583 135.56 184.798 135.56H182.267V134.043H184.549C185.006 134.043 185.381 133.964 185.673 133.805C185.964 133.646 186.18 133.427 186.319 133.148C186.461 132.87 186.533 132.55 186.533 132.189C186.533 131.828 186.461 131.509 186.319 131.234C186.18 130.959 185.963 130.746 185.668 130.593C185.376 130.437 185 130.359 184.539 130.359H182.849V139H181.004ZM189.915 139V137.668L193.449 134.202C193.787 133.861 194.069 133.558 194.295 133.293C194.52 133.027 194.689 132.771 194.802 132.522C194.914 132.273 194.971 132.008 194.971 131.727C194.971 131.405 194.898 131.13 194.752 130.901C194.606 130.669 194.406 130.49 194.15 130.364C193.895 130.238 193.605 130.175 193.28 130.175C192.946 130.175 192.652 130.245 192.4 130.384C192.148 130.52 191.953 130.714 191.814 130.966C191.678 131.218 191.61 131.518 191.61 131.866H189.855C189.855 131.219 190.002 130.658 190.297 130.18C190.592 129.703 190.998 129.334 191.515 129.072C192.036 128.81 192.632 128.679 193.305 128.679C193.988 128.679 194.588 128.807 195.105 129.062C195.622 129.317 196.023 129.667 196.308 130.111C196.596 130.555 196.741 131.062 196.741 131.632C196.741 132.013 196.668 132.388 196.522 132.756C196.376 133.124 196.119 133.531 195.751 133.979C195.387 134.426 194.875 134.968 194.215 135.604L192.46 137.389V137.459H196.895V139H189.915Z" fill="#F88379"/>
<path d="M181.004 79V68.8182H184.822C185.605 68.8182 186.261 68.964 186.791 69.2557C187.325 69.5473 187.728 69.9484 187.999 70.4588C188.274 70.9659 188.412 71.5426 188.412 72.1889C188.412 72.8419 188.274 73.4219 187.999 73.929C187.724 74.4361 187.318 74.8355 186.781 75.1271C186.244 75.4155 185.583 75.5597 184.798 75.5597H182.267V74.0433H184.549C185.006 74.0433 185.381 73.9638 185.673 73.8047C185.964 73.6456 186.18 73.4268 186.319 73.1484C186.461 72.87 186.533 72.5502 186.533 72.1889C186.533 71.8277 186.461 71.5095 186.319 71.2344C186.18 70.9593 185.963 70.7455 185.668 70.593C185.376 70.4373 185 70.3594 184.539 70.3594H182.849V79H181.004ZM193.569 79.1392C192.853 79.1392 192.216 79.0166 191.66 78.7713C191.106 78.526 190.669 78.1847 190.347 77.7472C190.026 77.3097 189.855 76.8042 189.835 76.2308H191.704C191.721 76.5059 191.812 76.7462 191.978 76.9517C192.144 77.1539 192.364 77.3113 192.639 77.424C192.914 77.5367 193.222 77.593 193.564 77.593C193.928 77.593 194.251 77.5301 194.533 77.4041C194.815 77.2749 195.035 77.0959 195.194 76.8672C195.354 76.6385 195.431 76.375 195.428 76.0767C195.431 75.7685 195.352 75.4967 195.189 75.2614C195.027 75.026 194.792 74.8421 194.483 74.7095C194.179 74.5769 193.811 74.5107 193.38 74.5107H192.48V73.0888H193.38C193.734 73.0888 194.044 73.0275 194.309 72.9048C194.578 72.7822 194.788 72.6098 194.941 72.3878C195.093 72.1624 195.168 71.9022 195.165 71.6072C195.168 71.3189 195.103 71.0687 194.971 70.8565C194.841 70.6411 194.657 70.4737 194.419 70.3544C194.184 70.2351 193.907 70.1754 193.589 70.1754C193.277 70.1754 192.989 70.2318 192.724 70.3445C192.458 70.4571 192.245 70.6179 192.082 70.8267C191.92 71.0322 191.834 71.2775 191.824 71.5625H190.049C190.062 70.9924 190.226 70.492 190.541 70.0611C190.859 69.6269 191.283 69.2888 191.814 69.0469C192.344 68.8016 192.939 68.679 193.599 68.679C194.278 68.679 194.868 68.8066 195.368 69.0618C195.872 69.3137 196.262 69.6534 196.537 70.081C196.812 70.5085 196.949 70.9808 196.949 71.4979C196.953 72.0713 196.784 72.5518 196.442 72.9396C196.104 73.3274 195.66 73.581 195.11 73.7003V73.7798C195.826 73.8793 196.374 74.1444 196.756 74.5753C197.14 75.0028 197.331 75.5348 197.327 76.1712C197.327 76.7412 197.165 77.2517 196.84 77.7024C196.519 78.1499 196.074 78.5012 195.508 78.7564C194.944 79.0116 194.298 79.1392 193.569 79.1392Z" fill="#F88379"/>
<line x1="375" y1="228.25" x2="235" y2="228.25" stroke="black" stroke-opacity="0.5" stroke-width="0.5"/>
<line x1="375.5" y1="228.25" x2="375" y2="228.25" stroke="black" stroke-opacity="0.5" stroke-width="0.5"/>
<line x1="375" y1="198.25" x2="235" y2="198.25" stroke="black" stroke-opacity="0.5" stroke-width="0.5"/>
<line x1="375" y1="168.25" x2="235" y2="168.25" stroke="black" stroke-opacity="0.5" stroke-width="0.5"/>
<line x1="375" y1="138.25" x2="235" y2="138.25" stroke="black" stroke-opacity="0.5" stroke-width="0.5"/>
<line x1="375" y1="108.25" x2="285" y2="108.25" stroke="black" stroke-opacity="0.5" stroke-width="0.5"/>
<line x1="375.25" y1="108" x2="375.25" y2="228" stroke="black" stroke-opacity="0.5" stroke-width="0.5"/>
<line x1="345.25" y1="108" x2="345.25" y2="228" stroke="black" stroke-opacity="0.5" stroke-width="0.5"/>
<line x1="315.25" y1="108" x2="315.25" y2="228" stroke="black" stroke-opacity="0.5" stroke-width="0.5"/>
<line x1="285.25" y1="108" x2="285.25" y2="228" stroke="black" stroke-opacity="0.5" stroke-width="0.5"/>
<line x1="235.25" y1="138" x2="235.25" y2="228" stroke="black" stroke-opacity="0.5" stroke-width="0.5"/>
<path d="M55.2638 175H53.9712L57.7099 164.818H58.9826L62.7212 175H61.4286L58.386 166.429H58.3065L55.2638 175ZM55.7411 171.023H60.9513V172.116H55.7411V171.023ZM66.9906 167.364V168.358H63.0332V167.364H66.9906ZM64.1866 165.534H65.3599V172.812C65.3599 173.144 65.408 173.393 65.5041 173.558C65.6035 173.721 65.7295 173.83 65.8819 173.886C66.0377 173.939 66.2018 173.966 66.3741 173.966C66.5034 173.966 66.6094 173.959 66.6923 173.946C66.7752 173.929 66.8414 173.916 66.8912 173.906L67.1298 174.96C67.0502 174.99 66.9392 175.02 66.7967 175.05C66.6542 175.083 66.4735 175.099 66.2548 175.099C65.9234 175.099 65.5985 175.028 65.2804 174.886C64.9655 174.743 64.7037 174.526 64.4949 174.234C64.2894 173.943 64.1866 173.575 64.1866 173.131V165.534ZM72.0765 167.364V168.358H68.1191V167.364H72.0765ZM69.2725 165.534H70.4458V172.812C70.4458 173.144 70.4939 173.393 70.59 173.558C70.6895 173.721 70.8154 173.83 70.9679 173.886C71.1236 173.939 71.2877 173.966 71.46 173.966C71.5893 173.966 71.6954 173.959 71.7782 173.946C71.8611 173.929 71.9274 173.916 71.9771 173.906L72.2157 174.96C72.1362 174.99 72.0252 175.02 71.8826 175.05C71.7401 175.083 71.5595 175.099 71.3407 175.099C71.0093 175.099 70.6845 175.028 70.3663 174.886C70.0514 174.743 69.7896 174.526 69.5808 174.234C69.3753 173.943 69.2725 173.575 69.2725 173.131V165.534ZM76.9611 175.159C76.2253 175.159 75.5906 174.997 75.057 174.672C74.5267 174.344 74.1174 173.886 73.829 173.3C73.544 172.71 73.4015 172.024 73.4015 171.241C73.4015 170.459 73.544 169.77 73.829 169.173C74.1174 168.573 74.5184 168.106 75.0321 167.771C75.5492 167.433 76.1524 167.264 76.8418 167.264C77.2395 167.264 77.6323 167.33 78.0201 167.463C78.4078 167.596 78.7608 167.811 79.079 168.109C79.3972 168.404 79.6507 168.795 79.8397 169.283C80.0286 169.77 80.123 170.37 80.123 171.082V171.58H74.2367V170.565H78.9299C78.9299 170.134 78.8437 169.75 78.6713 169.412C78.5023 169.074 78.2604 168.807 77.9455 168.612C77.6339 168.416 77.266 168.318 76.8418 168.318C76.3745 168.318 75.9701 168.434 75.6287 168.666C75.2907 168.895 75.0305 169.193 74.8482 169.561C74.6659 169.929 74.5748 170.323 74.5748 170.744V171.42C74.5748 171.997 74.6742 172.486 74.873 172.887C75.0752 173.285 75.3553 173.588 75.7132 173.797C76.0712 174.002 76.4872 174.105 76.9611 174.105C77.2694 174.105 77.5478 174.062 77.7963 173.976C78.0482 173.886 78.2653 173.754 78.4476 173.578C78.6299 173.399 78.7708 173.177 78.8702 172.912L80.0037 173.23C79.8844 173.615 79.6839 173.953 79.4022 174.244C79.1204 174.533 78.7724 174.758 78.3581 174.92C77.9438 175.08 77.4782 175.159 76.9611 175.159ZM83.0811 170.406V175H81.9078V167.364H83.0414V168.557H83.1408C83.3198 168.169 83.5916 167.857 83.9561 167.622C84.3207 167.384 84.7914 167.264 85.3681 167.264C85.8851 167.264 86.3375 167.37 86.7253 167.582C87.1131 167.791 87.4147 168.109 87.6301 168.537C87.8456 168.961 87.9533 169.498 87.9533 170.148V175H86.78V170.227C86.78 169.627 86.6242 169.16 86.3127 168.825C86.0011 168.487 85.5736 168.318 85.03 168.318C84.6555 168.318 84.3207 168.399 84.0257 168.562C83.7341 168.724 83.5037 168.961 83.3347 169.273C83.1657 169.584 83.0811 169.962 83.0811 170.406ZM93.4183 167.364V168.358H89.4609V167.364H93.4183ZM90.6143 165.534H91.7876V172.812C91.7876 173.144 91.8357 173.393 91.9318 173.558C92.0313 173.721 92.1572 173.83 92.3097 173.886C92.4654 173.939 92.6295 173.966 92.8018 173.966C92.9311 173.966 93.0372 173.959 93.12 173.946C93.2029 173.929 93.2692 173.916 93.3189 173.906L93.5575 174.96C93.478 174.99 93.367 175.02 93.2244 175.05C93.0819 175.083 92.9013 175.099 92.6825 175.099C92.3511 175.099 92.0263 175.028 91.7081 174.886C91.3932 174.743 91.1314 174.526 90.9226 174.234C90.7171 173.943 90.6143 173.575 90.6143 173.131V165.534ZM95.1832 175V167.364H96.3565V175H95.1832ZM95.7798 166.091C95.5511 166.091 95.3539 166.013 95.1882 165.857C95.0258 165.701 94.9446 165.514 94.9446 165.295C94.9446 165.077 95.0258 164.889 95.1882 164.734C95.3539 164.578 95.5511 164.5 95.7798 164.5C96.0085 164.5 96.2041 164.578 96.3665 164.734C96.5322 164.889 96.6151 165.077 96.6151 165.295C96.6151 165.514 96.5322 165.701 96.3665 165.857C96.2041 166.013 96.0085 166.091 95.7798 166.091ZM101.608 175.159C100.918 175.159 100.314 174.995 99.7931 174.667C99.2761 174.339 98.8717 173.88 98.5801 173.29C98.2917 172.7 98.1475 172.01 98.1475 171.222C98.1475 170.426 98.2917 169.732 98.5801 169.138C98.8717 168.545 99.2761 168.085 99.7931 167.756C100.314 167.428 100.918 167.264 101.608 167.264C102.297 167.264 102.9 167.428 103.417 167.756C103.938 168.085 104.342 168.545 104.631 169.138C104.922 169.732 105.068 170.426 105.068 171.222C105.068 172.01 104.922 172.7 104.631 173.29C104.342 173.88 103.938 174.339 103.417 174.667C102.9 174.995 102.297 175.159 101.608 175.159ZM101.608 174.105C102.131 174.105 102.562 173.971 102.9 173.702C103.238 173.434 103.489 173.081 103.651 172.643C103.814 172.206 103.895 171.732 103.895 171.222C103.895 170.711 103.814 170.236 103.651 169.795C103.489 169.354 103.238 168.998 102.9 168.726C102.562 168.454 102.131 168.318 101.608 168.318C101.084 168.318 100.653 168.454 100.315 168.726C99.9771 168.998 99.7269 169.354 99.5645 169.795C99.402 170.236 99.3208 170.711 99.3208 171.222C99.3208 171.732 99.402 172.206 99.5645 172.643C99.7269 173.081 99.9771 173.434 100.315 173.702C100.653 173.971 101.084 174.105 101.608 174.105ZM108.032 170.406V175H106.859V167.364H107.993V168.557H108.092C108.271 168.169 108.543 167.857 108.907 167.622C109.272 167.384 109.743 167.264 110.319 167.264C110.836 167.264 111.289 167.37 111.676 167.582C112.064 167.791 112.366 168.109 112.581 168.537C112.797 168.961 112.904 169.498 112.904 170.148V175H111.731V170.227C111.731 169.627 111.575 169.16 111.264 168.825C110.952 168.487 110.525 168.318 109.981 168.318C109.607 168.318 109.272 168.399 108.977 168.562C108.685 168.724 108.455 168.961 108.286 169.273C108.117 169.584 108.032 169.962 108.032 170.406ZM122.088 175.159C121.399 175.159 120.794 174.995 120.274 174.667C119.757 174.339 119.352 173.88 119.061 173.29C118.772 172.7 118.628 172.01 118.628 171.222C118.628 170.426 118.772 169.732 119.061 169.138C119.352 168.545 119.757 168.085 120.274 167.756C120.794 167.428 121.399 167.264 122.088 167.264C122.778 167.264 123.381 167.428 123.898 167.756C124.418 168.085 124.823 168.545 125.111 169.138C125.403 169.732 125.548 170.426 125.548 171.222C125.548 172.01 125.403 172.7 125.111 173.29C124.823 173.88 124.418 174.339 123.898 174.667C123.381 174.995 122.778 175.159 122.088 175.159ZM122.088 174.105C122.612 174.105 123.043 173.971 123.381 173.702C123.719 173.434 123.969 173.081 124.132 172.643C124.294 172.206 124.375 171.732 124.375 171.222C124.375 170.711 124.294 170.236 124.132 169.795C123.969 169.354 123.719 168.998 123.381 168.726C123.043 168.454 122.612 168.318 122.088 168.318C121.565 168.318 121.134 168.454 120.796 168.726C120.458 168.998 120.207 169.354 120.045 169.795C119.883 170.236 119.801 170.711 119.801 171.222C119.801 171.732 119.883 172.206 120.045 172.643C120.207 173.081 120.458 173.434 120.796 173.702C121.134 173.971 121.565 174.105 122.088 174.105ZM127.339 175V167.364H128.473V168.517H128.553C128.692 168.139 128.944 167.833 129.308 167.597C129.673 167.362 130.084 167.244 130.541 167.244C130.627 167.244 130.735 167.246 130.864 167.249C130.994 167.253 131.091 167.258 131.158 167.264V168.457C131.118 168.447 131.027 168.433 130.884 168.413C130.745 168.389 130.598 168.378 130.442 168.378C130.071 168.378 129.739 168.456 129.447 168.612C129.159 168.764 128.93 168.976 128.761 169.248C128.596 169.516 128.513 169.823 128.513 170.168V175H127.339ZM136.645 175V164.818H142.75V165.912H137.878V169.352H142.293V170.446H137.878V175H136.645ZM144.862 175V164.818H150.967V165.912H146.095V169.352H150.51V170.446H146.095V175H144.862ZM161.153 164.818V175H159.959L154.411 167.006H154.312V175H153.079V164.818H154.272L159.84 172.832H159.939V164.818H161.153ZM84.6783 181.818H86.1499L89.6101 190.27H89.7294L93.1896 181.818H94.6612V192H93.5078V184.264H93.4084L90.2266 192H89.1129L85.9311 184.264H85.8317V192H84.6783V181.818ZM100.077 192.159C99.3871 192.159 98.7823 191.995 98.2619 191.667C97.7449 191.339 97.3405 190.88 97.0488 190.29C96.7605 189.7 96.6163 189.01 96.6163 188.222C96.6163 187.426 96.7605 186.732 97.0488 186.138C97.3405 185.545 97.7449 185.085 98.2619 184.756C98.7823 184.428 99.3871 184.264 100.077 184.264C100.766 184.264 101.369 184.428 101.886 184.756C102.407 185.085 102.811 185.545 103.099 186.138C103.391 186.732 103.537 187.426 103.537 188.222C103.537 189.01 103.391 189.7 103.099 190.29C102.811 190.88 102.407 191.339 101.886 191.667C101.369 191.995 100.766 192.159 100.077 192.159ZM100.077 191.105C100.6 191.105 101.031 190.971 101.369 190.702C101.707 190.434 101.957 190.081 102.12 189.643C102.282 189.206 102.363 188.732 102.363 188.222C102.363 187.711 102.282 187.236 102.12 186.795C101.957 186.354 101.707 185.998 101.369 185.726C101.031 185.454 100.6 185.318 100.077 185.318C99.5529 185.318 99.122 185.454 98.7839 185.726C98.4458 185.998 98.1956 186.354 98.0332 186.795C97.8708 187.236 97.7896 187.711 97.7896 188.222C97.7896 188.732 97.8708 189.206 98.0332 189.643C98.1956 190.081 98.4458 190.434 98.7839 190.702C99.122 190.971 99.5529 191.105 100.077 191.105ZM108.211 192.159C107.575 192.159 107.013 191.998 106.526 191.677C106.039 191.352 105.658 190.895 105.382 190.305C105.107 189.711 104.97 189.01 104.97 188.202C104.97 187.4 105.107 186.704 105.382 186.114C105.658 185.524 106.04 185.068 106.531 184.746C107.021 184.425 107.588 184.264 108.231 184.264C108.728 184.264 109.121 184.347 109.409 184.513C109.701 184.675 109.923 184.861 110.076 185.07C110.231 185.275 110.352 185.444 110.439 185.577H110.538V181.818H111.711V192H110.578V190.827H110.439C110.352 190.966 110.23 191.142 110.071 191.354C109.912 191.562 109.685 191.75 109.39 191.915C109.095 192.078 108.702 192.159 108.211 192.159ZM108.37 191.105C108.841 191.105 109.239 190.982 109.564 190.737C109.888 190.489 110.135 190.146 110.304 189.708C110.473 189.267 110.558 188.759 110.558 188.182C110.558 187.612 110.475 187.113 110.309 186.685C110.144 186.254 109.898 185.92 109.574 185.681C109.249 185.439 108.848 185.318 108.37 185.318C107.873 185.318 107.459 185.446 107.127 185.701C106.799 185.953 106.552 186.296 106.387 186.73C106.224 187.161 106.143 187.645 106.143 188.182C106.143 188.725 106.226 189.219 106.392 189.663C106.561 190.104 106.809 190.455 107.137 190.717C107.469 190.976 107.88 191.105 108.37 191.105ZM118.836 188.878V184.364H120.009V192H118.836V190.707H118.756C118.577 191.095 118.299 191.425 117.921 191.697C117.543 191.965 117.066 192.099 116.489 192.099C116.012 192.099 115.587 191.995 115.216 191.786C114.845 191.574 114.553 191.256 114.341 190.832C114.129 190.404 114.023 189.866 114.023 189.216V184.364H115.196V189.136C115.196 189.693 115.352 190.137 115.664 190.469C115.979 190.8 116.38 190.966 116.867 190.966C117.158 190.966 117.455 190.891 117.757 190.742C118.062 190.593 118.317 190.364 118.522 190.056C118.731 189.748 118.836 189.355 118.836 188.878ZM123.331 181.818V192H122.158V181.818H123.331ZM128.682 192.159C127.946 192.159 127.311 191.997 126.778 191.672C126.247 191.344 125.838 190.886 125.55 190.3C125.265 189.71 125.122 189.024 125.122 188.241C125.122 187.459 125.265 186.77 125.55 186.173C125.838 185.573 126.239 185.106 126.753 184.771C127.27 184.433 127.873 184.264 128.562 184.264C128.96 184.264 129.353 184.33 129.741 184.463C130.129 184.596 130.482 184.811 130.8 185.109C131.118 185.404 131.371 185.795 131.56 186.283C131.749 186.77 131.844 187.37 131.844 188.082V188.58H125.957V187.565H130.651C130.651 187.134 130.564 186.75 130.392 186.412C130.223 186.074 129.981 185.807 129.666 185.612C129.355 185.416 128.987 185.318 128.562 185.318C128.095 185.318 127.691 185.434 127.349 185.666C127.011 185.895 126.751 186.193 126.569 186.561C126.387 186.929 126.295 187.323 126.295 187.744V188.42C126.295 188.997 126.395 189.486 126.594 189.887C126.796 190.285 127.076 190.588 127.434 190.797C127.792 191.002 128.208 191.105 128.682 191.105C128.99 191.105 129.268 191.062 129.517 190.976C129.769 190.886 129.986 190.754 130.168 190.578C130.351 190.399 130.491 190.177 130.591 189.912L131.724 190.23C131.605 190.615 131.405 190.953 131.123 191.244C130.841 191.533 130.493 191.758 130.079 191.92C129.665 192.08 129.199 192.159 128.682 192.159Z" fill="black"/>
<circle cx="106" cy="271" r="13.75" fill="#FFFEFB" stroke="black" stroke-width="0.5"/>
<circle cx="106" cy="39" r="13.75" fill="#FFFEFB" stroke="black" stroke-width="0.5"/>
<path d="M108.034 266.594C107.457 266.702 107.241 267.135 107.241 267.477C107.241 267.909 107.583 268.053 107.835 268.053C108.376 268.053 108.754 267.585 108.754 267.099C108.754 266.342 107.889 266 107.133 266C106.034 266 105.422 267.081 105.26 267.423C104.845 266.072 103.729 266 103.404 266C101.567 266 100.594 268.36 100.594 268.756C100.594 268.828 100.666 268.918 100.793 268.918C100.937 268.918 100.973 268.81 101.009 268.738C101.621 266.739 102.828 266.36 103.35 266.36C104.161 266.36 104.323 267.117 104.323 267.549C104.323 267.945 104.215 268.36 103.999 269.224L103.386 271.692C103.116 272.773 102.594 273.763 101.639 273.763C101.549 273.763 101.099 273.763 100.72 273.529C101.369 273.403 101.513 272.863 101.513 272.647C101.513 272.286 101.243 272.07 100.901 272.07C100.468 272.07 100 272.448 100 273.025C100 273.781 100.847 274.124 101.621 274.124C102.486 274.124 103.098 273.439 103.476 272.701C103.765 273.763 104.665 274.124 105.332 274.124C107.169 274.124 108.142 271.764 108.142 271.368C108.142 271.278 108.07 271.206 107.962 271.206C107.799 271.206 107.781 271.296 107.727 271.44C107.241 273.025 106.196 273.763 105.386 273.763C104.755 273.763 104.413 273.295 104.413 272.557C104.413 272.16 104.485 271.872 104.773 270.683L105.404 268.234C105.674 267.153 106.286 266.36 107.115 266.36C107.151 266.36 107.655 266.36 108.034 266.594Z" fill="black"/>
<path d="M112.664 268.672C112.676 268.648 112.712 268.492 112.712 268.48C112.712 268.42 112.664 268.312 112.52 268.312L111.307 268.408C110.863 268.444 110.767 268.456 110.767 268.672C110.767 268.84 110.935 268.84 111.079 268.84C111.656 268.84 111.656 268.912 111.656 269.02C111.656 269.056 111.656 269.08 111.596 269.296L110.107 275.252C110.058 275.444 110.058 275.625 110.058 275.637C110.058 276.381 110.671 276.765 111.271 276.765C111.788 276.765 112.064 276.357 112.196 276.093C112.412 275.697 112.592 274.988 112.592 274.928C112.592 274.856 112.556 274.772 112.4 274.772C112.292 274.772 112.256 274.832 112.256 274.844C112.232 274.88 112.172 275.096 112.136 275.228C111.956 275.925 111.728 276.429 111.295 276.429C111.007 276.429 110.923 276.153 110.923 275.865C110.923 275.637 110.959 275.504 110.995 275.348L112.664 268.672Z" fill="black"/>
<circle cx="106" cy="103" r="9.75" fill="#FFFEFB" stroke="black" stroke-width="0.5"/>
<path d="M104.251 42.9609C103.765 43.6454 103.062 44.2578 102.18 44.2578C101.963 44.2578 101.099 44.2218 100.829 43.3932C100.883 43.4112 100.973 43.4112 101.009 43.4112C101.549 43.4112 101.909 42.9429 101.909 42.5286C101.909 42.1143 101.567 41.9702 101.297 41.9702C101.009 41.9702 100.378 42.1864 100.378 43.069C100.378 43.9876 101.153 44.618 102.18 44.618C103.981 44.618 105.8 42.9609 106.304 40.9615L108.07 33.9366C108.088 33.8466 108.124 33.7385 108.124 33.6304C108.124 33.3602 107.907 33.1801 107.637 33.1801C107.475 33.1801 107.097 33.2522 106.953 33.7925L105.62 39.0882C105.53 39.4124 105.53 39.4485 105.386 39.6466C105.025 40.1509 104.431 40.7634 103.566 40.7634C102.558 40.7634 102.468 39.7727 102.468 39.2863C102.468 38.2596 102.954 36.8727 103.44 35.5758C103.639 35.0534 103.747 34.8012 103.747 34.441C103.747 33.6845 103.206 33 102.324 33C100.666 33 100 35.6118 100 35.7559C100 35.828 100.072 35.918 100.198 35.918C100.36 35.918 100.378 35.846 100.45 35.5938C100.883 34.0807 101.567 33.3602 102.27 33.3602C102.432 33.3602 102.738 33.3602 102.738 33.9547C102.738 34.423 102.54 34.9453 102.27 35.6298C101.387 37.9894 101.387 38.5839 101.387 39.0162C101.387 40.7273 102.612 41.1236 103.512 41.1236C104.035 41.1236 104.683 40.9615 105.314 40.295L105.332 40.3131C105.061 41.3758 104.881 42.0783 104.251 42.9609Z" fill="black"/>
<path d="M111.259 35.6718C111.271 35.6478 111.308 35.4916 111.308 35.4796C111.308 35.4196 111.259 35.3115 111.115 35.3115L109.903 35.4076C109.458 35.4436 109.362 35.4556 109.362 35.6718C109.362 35.8399 109.53 35.8399 109.674 35.8399C110.251 35.8399 110.251 35.9119 110.251 36.02C110.251 36.056 110.251 36.0801 110.191 36.2962L108.702 42.2523C108.654 42.4445 108.654 42.6246 108.654 42.6366C108.654 43.3811 109.266 43.7654 109.867 43.7654C110.383 43.7654 110.659 43.3571 110.791 43.0929C111.007 42.6966 111.187 41.9881 111.187 41.9281C111.187 41.856 111.151 41.772 110.995 41.772C110.887 41.772 110.851 41.832 110.851 41.844C110.827 41.8801 110.767 42.0962 110.731 42.2283C110.551 42.9248 110.323 43.4291 109.891 43.4291C109.602 43.4291 109.518 43.1529 109.518 42.8647C109.518 42.6366 109.554 42.5045 109.59 42.3484L111.259 35.6718Z" fill="black"/>
<path d="M143.606 22.3603C143.618 22.3362 143.654 22.1801 143.654 22.1681C143.654 22.1081 143.606 22 143.462 22L142.249 22.0961C141.805 22.1321 141.708 22.1441 141.708 22.3603C141.708 22.5284 141.877 22.5284 142.021 22.5284C142.597 22.5284 142.597 22.6004 142.597 22.7085C142.597 22.7445 142.597 22.7685 142.537 22.9847L141.048 28.9408C141 29.1329 141 29.3131 141 29.3251C141 30.0696 141.612 30.4538 142.213 30.4538C142.729 30.4538 143.005 30.0456 143.137 29.7814C143.354 29.3851 143.534 28.6766 143.534 28.6166C143.534 28.5445 143.498 28.4605 143.342 28.4605C143.234 28.4605 143.198 28.5205 143.198 28.5325C143.174 28.5685 143.113 28.7847 143.077 28.9168C142.897 29.6133 142.669 30.1176 142.237 30.1176C141.949 30.1176 141.865 29.8414 141.865 29.5532C141.865 29.3251 141.901 29.193 141.937 29.0369L143.606 22.3603Z" fill="black"/>
<path d="M106 285L103.113 290L108.887 290L106 285ZM106 310L106.5 310L106.5 289.5L106 289.5L105.5 289.5L105.5 310L106 310Z" fill="black"/>
<path d="M106 0L103.113 5L108.887 5L106 0ZM106 25L106.5 25L106.5 4.5L106 4.5L105.5 4.5L105.5 25L106 25Z" fill="black"/>
<path d="M106 203L103.113 208L108.887 208L106 203ZM106 257L106.5 257L106.5 207.5L106 207.5L105.5 207.5L105.5 257L106 257Z" fill="black"/>
<path d="M106 113L103.113 118L108.887 118L106 113ZM106 153L106.5 153L106.5 117.5L106 117.5L105.5 117.5L105.5 153L106 153Z" fill="black"/>
<line x1="34" y1="222.25" x2="178" y2="222.25" stroke="#F88379" stroke-width="1.5" stroke-dasharray="4 2"/>
<line x1="16" y1="242.5" x2="106" y2="242.5" stroke="black"/>
<path d="M96 103.5L91 100.613L91 106.387L96 103.5ZM16 103.5L16 104L91.5 104L91.5 103.5L91.5 103L16 103L16 103.5Z" fill="black"/>
<line x1="16.5" y1="103" x2="16.5" y2="243" stroke="black"/>
<line x1="34" y1="133.25" x2="178" y2="133.25" stroke="#F88379" stroke-width="1.5" stroke-dasharray="4 2"/>
<path d="M106 53L103.113 58L108.887 58L106 53ZM106 93L106.5 93L106.5 57.5L106 57.5L105.5 57.5L105.5 93L106 93Z" fill="black"/>
<line x1="34" y1="73.25" x2="178" y2="73.25" stroke="#F88379" stroke-width="1.5" stroke-dasharray="4 2"/>
<path d="M106.283 103.283H110.51C110.724 103.283 111 103.283 111 103.008C111 102.717 110.74 102.717 110.51 102.717H106.283V98.49C106.283 98.2757 106.283 98 106.008 98C105.717 98 105.717 98.2603 105.717 98.49V102.717H101.49C101.276 102.717 101 102.717 101 102.992C101 103.283 101.26 103.283 101.49 103.283H105.717V107.51C105.717 107.724 105.717 108 105.992 108C106.283 108 106.283 107.74 106.283 107.51V103.283Z" fill="black"/>
</svg>
