<svg width="300" height="130" viewBox="0 0 300 130" fill="none" xmlns="http://www.w3.org/2000/svg">
<rect width="220" height="116" rx="4" fill="#DCDCDC" fill-opacity="0.5"/>
<rect x="230" width="70" height="116" rx="4" fill="#DCDCDC" fill-opacity="0.5"/>
<path d="M201.494 64.1136C201.144 64.1136 200.843 63.9882 200.592 63.7372C200.341 63.4863 200.216 63.1856 200.216 62.8352C200.216 62.4848 200.341 62.1842 200.592 61.9332C200.843 61.6823 201.144 61.5568 201.494 61.5568C201.844 61.5568 202.145 61.6823 202.396 61.9332C202.647 62.1842 202.772 62.4848 202.772 62.8352C202.772 63.0672 202.713 63.2803 202.595 63.4744C202.481 63.6686 202.327 63.8248 202.133 63.9432C201.944 64.0568 201.731 64.1136 201.494 64.1136ZM207.002 64.1136C206.651 64.1136 206.351 63.9882 206.1 63.7372C205.849 63.4863 205.723 63.1856 205.723 62.8352C205.723 62.4848 205.849 62.1842 206.1 61.9332C206.351 61.6823 206.651 61.5568 207.002 61.5568C207.352 61.5568 207.653 61.6823 207.904 61.9332C208.155 62.1842 208.28 62.4848 208.28 62.8352C208.28 63.0672 208.221 63.2803 208.103 63.4744C207.989 63.6686 207.835 63.8248 207.641 63.9432C207.452 64.0568 207.239 64.1136 207.002 64.1136ZM212.51 64.1136C212.159 64.1136 211.859 63.9882 211.608 63.7372C211.357 63.4863 211.231 63.1856 211.231 62.8352C211.231 62.4848 211.357 62.1842 211.608 61.9332C211.859 61.6823 212.159 61.5568 212.51 61.5568C212.86 61.5568 213.161 61.6823 213.412 61.9332C213.663 62.1842 213.788 62.4848 213.788 62.8352C213.788 63.0672 213.729 63.2803 213.61 63.4744C213.497 63.6686 213.343 63.8248 213.149 63.9432C212.959 64.0568 212.746 64.1136 212.51 64.1136Z" fill="black"/>
<path d="M281.494 64.1136C281.144 64.1136 280.843 63.9882 280.592 63.7372C280.341 63.4863 280.216 63.1856 280.216 62.8352C280.216 62.4848 280.341 62.1842 280.592 61.9332C280.843 61.6823 281.144 61.5568 281.494 61.5568C281.844 61.5568 282.145 61.6823 282.396 61.9332C282.647 62.1842 282.772 62.4848 282.772 62.8352C282.772 63.0672 282.713 63.2803 282.595 63.4744C282.481 63.6686 282.327 63.8248 282.133 63.9432C281.944 64.0568 281.731 64.1136 281.494 64.1136ZM287.002 64.1136C286.651 64.1136 286.351 63.9882 286.1 63.7372C285.849 63.4863 285.723 63.1856 285.723 62.8352C285.723 62.4848 285.849 62.1842 286.1 61.9332C286.351 61.6823 286.651 61.5568 287.002 61.5568C287.352 61.5568 287.653 61.6823 287.904 61.9332C288.155 62.1842 288.28 62.4848 288.28 62.8352C288.28 63.0672 288.221 63.2803 288.103 63.4744C287.989 63.6686 287.835 63.8248 287.641 63.9432C287.452 64.0568 287.239 64.1136 287.002 64.1136ZM292.51 64.1136C292.159 64.1136 291.859 63.9882 291.608 63.7372C291.357 63.4863 291.231 63.1856 291.231 62.8352C291.231 62.4848 291.357 62.1842 291.608 61.9332C291.859 61.6823 292.159 61.5568 292.51 61.5568C292.86 61.5568 293.161 61.6823 293.412 61.9332C293.663 62.1842 293.788 62.4848 293.788 62.8352C293.788 63.0672 293.729 63.2803 293.61 63.4744C293.497 63.6686 293.343 63.8248 293.149 63.9432C292.959 64.0568 292.746 64.1136 292.51 64.1136Z" fill="black"/>
<path d="M300 118L297.5 116.557L297.5 119.443L300 118ZM0 118L2.18557e-08 118.25L297.75 118.25L297.75 118L297.75 117.75L-2.18557e-08 117.75L0 118Z" fill="black" fill-opacity="0.75"/>
<path d="M282.139 122.545V123.256H279.312V122.545H282.139ZM280.136 121.239H280.974V126.438C280.974 126.674 281.009 126.852 281.077 126.97C281.148 127.086 281.238 127.164 281.347 127.205C281.459 127.242 281.576 127.261 281.699 127.261C281.791 127.261 281.867 127.257 281.926 127.247C281.985 127.235 282.033 127.226 282.068 127.219L282.239 127.972C282.182 127.993 282.103 128.014 282.001 128.036C281.899 128.059 281.77 128.071 281.614 128.071C281.377 128.071 281.145 128.02 280.918 127.918C280.693 127.817 280.506 127.661 280.357 127.453C280.21 127.245 280.136 126.982 280.136 126.665V121.239ZM283.4 128V122.545H284.238V128H283.4ZM283.826 121.636C283.663 121.636 283.522 121.581 283.403 121.469C283.287 121.358 283.229 121.224 283.229 121.068C283.229 120.912 283.287 120.778 283.403 120.667C283.522 120.556 283.663 120.5 283.826 120.5C283.989 120.5 284.129 120.556 284.245 120.667C284.363 120.778 284.423 120.912 284.423 121.068C284.423 121.224 284.363 121.358 284.245 121.469C284.129 121.581 283.989 121.636 283.826 121.636ZM285.773 128V122.545H286.583V123.398H286.654C286.767 123.107 286.951 122.88 287.204 122.719C287.457 122.556 287.762 122.474 288.117 122.474C288.477 122.474 288.776 122.556 289.015 122.719C289.257 122.88 289.445 123.107 289.58 123.398H289.637C289.776 123.116 289.986 122.892 290.265 122.727C290.544 122.558 290.879 122.474 291.27 122.474C291.758 122.474 292.157 122.627 292.467 122.933C292.777 123.236 292.932 123.708 292.932 124.349V128H292.094V124.349C292.094 123.947 291.984 123.659 291.764 123.487C291.544 123.314 291.284 123.227 290.986 123.227C290.602 123.227 290.305 123.343 290.095 123.575C289.884 123.805 289.779 124.096 289.779 124.449V128H288.926V124.264C288.926 123.954 288.826 123.704 288.624 123.515C288.423 123.323 288.164 123.227 287.847 123.227C287.629 123.227 287.425 123.285 287.236 123.401C287.049 123.517 286.897 123.678 286.781 123.884C286.668 124.088 286.611 124.323 286.611 124.591V128H285.773ZM296.751 128.114C296.226 128.114 295.772 127.998 295.391 127.766C295.012 127.531 294.72 127.205 294.514 126.786C294.31 126.364 294.209 125.874 294.209 125.315C294.209 124.757 294.31 124.264 294.514 123.838C294.72 123.41 295.006 123.076 295.373 122.837C295.743 122.595 296.174 122.474 296.666 122.474C296.95 122.474 297.231 122.522 297.508 122.616C297.785 122.711 298.037 122.865 298.264 123.078C298.491 123.289 298.672 123.568 298.807 123.916C298.942 124.264 299.01 124.693 299.01 125.202V125.557H294.805V124.832H298.157C298.157 124.525 298.096 124.25 297.973 124.009C297.852 123.767 297.679 123.576 297.454 123.437C297.232 123.297 296.969 123.227 296.666 123.227C296.332 123.227 296.043 123.31 295.8 123.476C295.558 123.639 295.372 123.852 295.242 124.115C295.112 124.378 295.047 124.66 295.047 124.96V125.443C295.047 125.855 295.118 126.204 295.26 126.491C295.404 126.775 295.604 126.991 295.86 127.141C296.116 127.287 296.413 127.361 296.751 127.361C296.971 127.361 297.17 127.33 297.348 127.268C297.528 127.205 297.683 127.11 297.813 126.984C297.943 126.857 298.044 126.698 298.115 126.509L298.925 126.736C298.839 127.01 298.696 127.252 298.495 127.46C298.294 127.666 298.045 127.827 297.749 127.943C297.453 128.057 297.121 128.114 296.751 128.114Z" fill="black"/>
<path d="M6.5 98.1356V53.6912L46.5 34.1356V78.5801L6.5 98.1356Z" fill="#FFE1C4" stroke="#FF7600"/>
<path d="M36.5 98.1356V53.6912L76.5 34.1356V78.5801L36.5 98.1356Z" fill="#D4FEC6" stroke="#2EB800"/>
<path d="M66.5 98.1356V53.6912L106.5 34.1356V78.5801L66.5 98.1356Z" fill="#D4FEC6" stroke="#2EB800"/>
<path d="M96.5 98.1356V53.6912L136.5 34.1356V78.5801L96.5 98.1356Z" fill="#CDD9FF" stroke="#1948E6"/>
<path d="M126.5 98.1356V53.6912L166.5 34.1356V78.5801L126.5 98.1356Z" fill="#D4FEC6" stroke="#2EB800"/>
<path d="M156.5 98.1356V53.6912L196.5 34.1356V78.5801L156.5 98.1356Z" fill="#CDD9FF" stroke="#1948E6"/>
<path d="M237 98.1356V53.6912L277 34.1356V78.5801L237 98.1356Z" fill="#FFE1C4" stroke="#FF7600"/>
<path d="M25.0257 65.2727V74H23.9689V65.2727H25.0257Z" fill="black"/>
<path d="M51.6545 74V65.2727H54.7056C55.3136 65.2727 55.815 65.3778 56.2099 65.5881C56.6048 65.7955 56.8988 66.0753 57.092 66.4276C57.2852 66.777 57.3817 67.1648 57.3817 67.5909C57.3817 67.9659 57.315 68.2756 57.1815 68.5199C57.0508 68.7642 56.8775 68.9574 56.6616 69.0994C56.4485 69.2415 56.217 69.3466 55.967 69.4148V69.5C56.234 69.517 56.5025 69.6108 56.7724 69.7812C57.0423 69.9517 57.2681 70.196 57.4499 70.5142C57.6317 70.8324 57.7227 71.2216 57.7227 71.6818C57.7227 72.1193 57.6232 72.5128 57.4244 72.8622C57.2255 73.2116 56.9116 73.4886 56.4826 73.6932C56.0536 73.8977 55.4954 74 54.8079 74H51.6545ZM52.7113 73.0625H54.8079C55.4982 73.0625 55.9883 72.929 56.2781 72.6619C56.5707 72.392 56.717 72.0653 56.717 71.6818C56.717 71.3864 56.6417 71.1136 56.4911 70.8636C56.3406 70.6108 56.1261 70.4091 55.8477 70.2585C55.5692 70.1051 55.2397 70.0284 54.859 70.0284H52.7113V73.0625ZM52.7113 69.108H54.6715C54.9897 69.108 55.2766 69.0455 55.5323 68.9205C55.7908 68.7955 55.9954 68.6193 56.146 68.392C56.2994 68.1648 56.3761 67.8977 56.3761 67.5909C56.3761 67.2074 56.2425 66.8821 55.9755 66.6151C55.7085 66.3452 55.2852 66.2102 54.7056 66.2102H52.7113V69.108Z" fill="black"/>
<path d="M81.6545 74V65.2727H84.7056C85.3136 65.2727 85.815 65.3778 86.2099 65.5881C86.6048 65.7955 86.8988 66.0753 87.092 66.4276C87.2852 66.777 87.3817 67.1648 87.3817 67.5909C87.3817 67.9659 87.315 68.2756 87.1815 68.5199C87.0508 68.7642 86.8775 68.9574 86.6616 69.0994C86.4485 69.2415 86.217 69.3466 85.967 69.4148V69.5C86.234 69.517 86.5025 69.6108 86.7724 69.7812C87.0423 69.9517 87.2681 70.196 87.4499 70.5142C87.6317 70.8324 87.7227 71.2216 87.7227 71.6818C87.7227 72.1193 87.6232 72.5128 87.4244 72.8622C87.2255 73.2116 86.9116 73.4886 86.4826 73.6932C86.0536 73.8977 85.4954 74 84.8079 74H81.6545ZM82.7113 73.0625H84.8079C85.4982 73.0625 85.9883 72.929 86.2781 72.6619C86.5707 72.392 86.717 72.0653 86.717 71.6818C86.717 71.3864 86.6417 71.1136 86.4911 70.8636C86.3406 70.6108 86.1261 70.4091 85.8477 70.2585C85.5692 70.1051 85.2397 70.0284 84.859 70.0284H82.7113V73.0625ZM82.7113 69.108H84.6715C84.9897 69.108 85.2766 69.0455 85.5323 68.9205C85.7908 68.7955 85.9954 68.6193 86.146 68.392C86.2994 68.1648 86.3761 67.8977 86.3761 67.5909C86.3761 67.2074 86.2425 66.8821 85.9755 66.6151C85.7085 66.3452 85.2852 66.2102 84.7056 66.2102H82.7113V69.108Z" fill="black"/>
<path d="M111.748 74V65.2727H114.697C115.382 65.2727 115.941 65.3963 116.376 65.6435C116.814 65.8878 117.137 66.2188 117.348 66.6364C117.558 67.054 117.663 67.5199 117.663 68.0341C117.663 68.5483 117.558 69.0156 117.348 69.4361C117.14 69.8565 116.819 70.1918 116.385 70.4418C115.95 70.6889 115.393 70.8125 114.714 70.8125H112.6V69.875H114.68C115.149 69.875 115.525 69.794 115.809 69.6321C116.093 69.4702 116.299 69.2514 116.427 68.9759C116.558 68.6974 116.623 68.3835 116.623 68.0341C116.623 67.6847 116.558 67.3722 116.427 67.0966C116.299 66.821 116.092 66.6051 115.805 66.4489C115.518 66.2898 115.137 66.2102 114.663 66.2102H112.805V74H111.748Z" fill="black"/>
<path d="M141.654 74V65.2727H144.706C145.314 65.2727 145.815 65.3778 146.21 65.5881C146.605 65.7955 146.899 66.0753 147.092 66.4276C147.285 66.777 147.382 67.1648 147.382 67.5909C147.382 67.9659 147.315 68.2756 147.181 68.5199C147.051 68.7642 146.877 68.9574 146.662 69.0994C146.449 69.2415 146.217 69.3466 145.967 69.4148V69.5C146.234 69.517 146.502 69.6108 146.772 69.7812C147.042 69.9517 147.268 70.196 147.45 70.5142C147.632 70.8324 147.723 71.2216 147.723 71.6818C147.723 72.1193 147.623 72.5128 147.424 72.8622C147.225 73.2116 146.912 73.4886 146.483 73.6932C146.054 73.8977 145.495 74 144.808 74H141.654ZM142.711 73.0625H144.808C145.498 73.0625 145.988 72.929 146.278 72.6619C146.571 72.392 146.717 72.0653 146.717 71.6818C146.717 71.3864 146.642 71.1136 146.491 70.8636C146.341 70.6108 146.126 70.4091 145.848 70.2585C145.569 70.1051 145.24 70.0284 144.859 70.0284H142.711V73.0625ZM142.711 69.108H144.672C144.99 69.108 145.277 69.0455 145.532 68.9205C145.791 68.7955 145.995 68.6193 146.146 68.392C146.299 68.1648 146.376 67.8977 146.376 67.5909C146.376 67.2074 146.243 66.8821 145.975 66.6151C145.708 66.3452 145.285 66.2102 144.706 66.2102H142.711V69.108Z" fill="black"/>
<path d="M171.748 74V65.2727H174.697C175.382 65.2727 175.941 65.3963 176.376 65.6435C176.814 65.8878 177.137 66.2188 177.348 66.6364C177.558 67.054 177.663 67.5199 177.663 68.0341C177.663 68.5483 177.558 69.0156 177.348 69.4361C177.14 69.8565 176.819 70.1918 176.385 70.4418C175.95 70.6889 175.393 70.8125 174.714 70.8125H172.6V69.875H174.68C175.149 69.875 175.525 69.794 175.809 69.6321C176.093 69.4702 176.299 69.2514 176.427 68.9759C176.558 68.6974 176.623 68.3835 176.623 68.0341C176.623 67.6847 176.558 67.3722 176.427 67.0966C176.299 66.821 176.092 66.6051 175.805 66.4489C175.518 66.2898 175.137 66.2102 174.663 66.2102H172.805V74H171.748Z" fill="black"/>
<path d="M255.526 65.2727V74H254.469V65.2727H255.526Z" fill="black"/>
<path d="M37.0001 37.1353L40.6666 32.6754L34.971 31.7301L37.0001 37.1353ZM69.0001 36.1353H69.5001C69.5001 32.1089 67.7696 28.984 65.1053 26.8002C62.4531 24.6264 58.8907 23.3942 55.2051 23.0855C47.8743 22.4713 39.7676 25.5126 37.2661 32.5272L37.7371 32.6952L38.208 32.8631C40.4925 26.457 48.0173 23.4868 55.1216 24.082C58.6536 24.3779 62.0095 25.5558 64.4713 27.5736C66.921 29.5815 68.5001 32.43 68.5001 36.1353H69.0001Z" fill="#2EB800"/>
<path d="M117 42.1356L119.342 36.8583L113.6 37.4691L117 42.1356ZM69 36.1356H69.5C69.5 31.4033 72.0348 27.7689 75.9889 25.3008C79.9555 22.8248 85.3296 21.5426 90.8892 21.5654C102.052 21.611 113.617 26.8841 116.036 37.7713L116.524 37.6629L117.012 37.5544C114.442 25.9865 102.246 20.6118 90.8933 20.5654C85.1956 20.5421 79.624 21.8529 75.4593 24.4525C71.2822 27.0599 68.5 30.9836 68.5 36.1356H69Z" fill="#2EB800"/>
<path d="M27 42.1361L30.3266 37.4173L24.5767 36.8958L27 42.1361ZM124 39.1359H124.5C124.5 29.7518 118.726 22.6693 110.104 17.9141C101.488 13.1621 89.9643 10.6903 78.2594 10.5106C66.5524 10.3308 54.6112 12.443 45.1526 16.9101C35.6963 21.3761 28.6539 28.2332 26.9147 37.5658L27.4062 37.6575L27.8977 37.7491C29.5566 28.848 36.2874 22.2028 45.5797 17.8143C54.8695 13.4269 66.652 11.3325 78.244 11.5105C89.838 11.6885 101.188 14.1388 109.621 18.7898C118.049 23.4375 123.5 30.2388 123.5 39.1359H124Z" fill="#1948E6"/>
<path d="M107 94.1356L103.391 98.6418L109.098 99.5146L107 94.1356ZM81 93.1356H80.5C80.5 97.3165 81.8669 100.587 84.0115 102.927C86.1513 105.262 89.0408 106.643 92.0489 107.096C98.0453 108 104.651 105.219 106.795 98.7397L106.32 98.5827L105.845 98.4256C103.891 104.332 97.8373 106.958 92.198 106.108C89.3883 105.684 86.7161 104.398 84.7486 102.251C82.7859 100.11 81.5 97.0859 81.5 93.1356H81Z" fill="#2EB800"/>
<path d="M23 92.1356L21.0356 97.5646L26.7195 96.5514L23 92.1356ZM81 93.1356H80.5C80.5 98.0136 77.518 101.803 72.7905 104.474C68.058 107.148 61.6407 108.656 54.974 108.957C48.3106 109.257 41.4458 108.349 35.8321 106.233C30.2071 104.113 25.9201 100.815 24.2582 96.3922L23.7902 96.5681L23.3221 96.744C25.1287 101.552 29.7272 105.001 35.4795 107.169C41.243 109.341 48.2471 110.261 55.019 109.956C61.7876 109.651 68.3721 108.119 73.2825 105.344C78.1979 102.567 81.5 98.4987 81.5 93.1356H81Z" fill="#2EB800"/>
<path d="M129 36.1356L132.576 31.6026L126.862 30.7724L129 36.1356ZM185 38.1359H185.5C185.5 31.6268 182.33 26.644 177.52 23.1794C172.723 19.7247 166.293 17.7719 159.699 17.2632C153.103 16.7544 146.296 17.6868 140.73 20.0514C135.165 22.415 130.784 26.237 129.169 31.5349L129.647 31.6807L130.126 31.8266C131.626 26.9062 135.722 23.265 141.12 20.9718C146.517 18.6797 153.159 17.7617 159.622 18.2602C166.087 18.759 172.326 20.6713 176.935 23.9908C181.53 27.3006 184.5 32.0011 184.5 38.1359H185Z" fill="#1948E6"/>
<path d="M172 92.1356L168.341 96.6013L174.038 97.5376L172 92.1356ZM144 91.1356H143.5C143.5 95.3285 144.977 98.6041 147.286 100.942C149.587 103.273 152.69 104.647 155.914 105.098C162.332 105.995 169.434 103.234 171.742 96.7421L171.27 96.5746L170.799 96.4072C168.701 102.309 162.168 104.962 156.052 104.107C153.01 103.682 150.121 102.39 147.997 100.239C145.881 98.0957 144.5 95.0757 144.5 91.1356H144Z" fill="#2EB800"/>
<path d="M114 91.1356L111.918 96.5208L117.623 95.631L114 91.1356ZM144 91.1356H143.5C143.5 95.0896 142.007 98.1189 139.712 100.256C137.409 102.401 134.274 103.667 130.978 104.028C124.354 104.754 117.314 101.826 115.168 95.4248L114.694 95.5837L114.22 95.7427C116.568 102.745 124.181 105.779 131.087 105.022C134.556 104.642 137.905 103.305 140.394 100.987C142.892 98.6611 144.5 95.3665 144.5 91.1356H144Z" fill="#2EB800"/>
<path d="M173.946 8.80398V12H172.661V6.54545H173.889V7.4723H173.953C174.079 7.1669 174.279 6.92424 174.553 6.74432C174.83 6.56439 175.172 6.47443 175.58 6.47443C175.956 6.47443 176.284 6.55492 176.563 6.71591C176.845 6.87689 177.063 7.11009 177.217 7.41548C177.373 7.72088 177.45 8.09138 177.447 8.52699V12H176.162V8.72585C176.162 8.36127 176.067 8.07599 175.878 7.87003C175.691 7.66406 175.432 7.56108 175.1 7.56108C174.875 7.56108 174.675 7.6108 174.5 7.71023C174.327 7.80729 174.191 7.94815 174.092 8.13281C173.995 8.31747 173.946 8.54119 173.946 8.80398ZM182.06 8.44176V9.5H178.786V8.44176H182.06ZM186.136 6.54545V7.53977H183.001V6.54545H186.136ZM183.775 5.23864H185.06V10.3594C185.06 10.5322 185.086 10.6648 185.138 10.7571C185.193 10.8471 185.264 10.9086 185.351 10.9418C185.439 10.9749 185.536 10.9915 185.643 10.9915C185.723 10.9915 185.796 10.9856 185.863 10.9737C185.931 10.9619 185.983 10.9512 186.019 10.9418L186.236 11.9467C186.167 11.9704 186.069 11.9964 185.941 12.0249C185.815 12.0533 185.662 12.0698 185.479 12.0746C185.157 12.084 184.867 12.0355 184.609 11.929C184.351 11.8201 184.146 11.652 183.995 11.4247C183.846 11.1974 183.772 10.9134 183.775 10.5724V5.23864ZM188.614 8.80398V12H187.328V4.72727H188.586V7.4723H188.65C188.777 7.16454 188.975 6.92187 189.243 6.74432C189.512 6.56439 189.856 6.47443 190.272 6.47443C190.651 6.47443 190.981 6.55374 191.263 6.71236C191.545 6.87098 191.763 7.10298 191.917 7.40838C192.073 7.71378 192.151 8.08665 192.151 8.52699V12H190.865V8.72585C190.865 8.3589 190.771 8.07363 190.581 7.87003C190.394 7.66406 190.132 7.56108 189.793 7.56108C189.566 7.56108 189.362 7.6108 189.182 7.71023C189.005 7.80729 188.865 7.94815 188.763 8.13281C188.664 8.31747 188.614 8.54119 188.614 8.80398ZM200.871 7.04972C200.812 6.85795 200.73 6.68632 200.626 6.5348C200.524 6.38092 200.401 6.24953 200.256 6.14062C200.114 6.03172 199.951 5.95005 199.766 5.8956C199.582 5.83878 199.38 5.81037 199.163 5.81037C198.772 5.81037 198.424 5.90862 198.119 6.10511C197.813 6.30161 197.573 6.59044 197.398 6.97159C197.225 7.35038 197.138 7.81203 197.138 8.35653C197.138 8.90578 197.225 9.37098 197.398 9.75213C197.571 10.1333 197.811 10.4233 198.119 10.6222C198.426 10.8187 198.784 10.9169 199.191 10.9169C199.56 10.9169 199.88 10.8459 200.15 10.7038C200.422 10.5618 200.632 10.3606 200.778 10.1001C200.925 9.83736 200.999 9.52959 200.999 9.17685L201.297 9.22301H199.322V8.19318H202.273V9.06676C202.273 9.68939 202.141 10.228 201.876 10.6825C201.611 11.1371 201.246 11.4875 200.782 11.7337C200.318 11.9775 199.785 12.0994 199.184 12.0994C198.514 12.0994 197.926 11.9491 197.419 11.6484C196.915 11.3454 196.521 10.9157 196.237 10.3594C195.955 9.80066 195.814 9.13778 195.814 8.37074C195.814 7.78362 195.897 7.25923 196.062 6.79759C196.231 6.33594 196.465 5.94413 196.766 5.62216C197.066 5.29782 197.419 5.05161 197.824 4.88352C198.229 4.71307 198.669 4.62784 199.145 4.62784C199.547 4.62784 199.923 4.68703 200.271 4.8054C200.619 4.9214 200.928 5.08712 201.197 5.30256C201.47 5.51799 201.693 5.77367 201.869 6.0696C202.044 6.36553 202.159 6.69223 202.213 7.04972H200.871ZM210.046 8.36364C210.046 9.14725 209.899 9.81842 209.606 10.3771C209.314 10.9335 208.917 11.3596 208.412 11.6555C207.911 11.9515 207.341 12.0994 206.704 12.0994C206.068 12.0994 205.497 11.9515 204.993 11.6555C204.491 11.3572 204.093 10.9299 203.8 10.3736C203.508 9.81487 203.363 9.14489 203.363 8.36364C203.363 7.58002 203.508 6.91004 203.8 6.35369C204.093 5.79498 204.491 5.36766 204.993 5.07173C205.497 4.7758 206.068 4.62784 206.704 4.62784C207.341 4.62784 207.911 4.7758 208.412 5.07173C208.917 5.36766 209.314 5.79498 209.606 6.35369C209.899 6.91004 210.046 7.58002 210.046 8.36364ZM208.721 8.36364C208.721 7.81203 208.635 7.34683 208.462 6.96804C208.292 6.58688 208.055 6.29924 207.752 6.10511C207.449 5.90862 207.1 5.81037 206.704 5.81037C206.309 5.81037 205.96 5.90862 205.657 6.10511C205.354 6.29924 205.116 6.58688 204.943 6.96804C204.773 7.34683 204.687 7.81203 204.687 8.36364C204.687 8.91525 204.773 9.38163 204.943 9.76278C205.116 10.1416 205.354 10.4292 205.657 10.6257C205.96 10.8198 206.309 10.9169 206.704 10.9169C207.1 10.9169 207.449 10.8198 207.752 10.6257C208.055 10.4292 208.292 10.1416 208.462 9.76278C208.635 9.38163 208.721 8.91525 208.721 8.36364ZM211.292 12V4.72727H214.019C214.578 4.72727 215.046 4.83144 215.425 5.03977C215.806 5.24811 216.094 5.53456 216.288 5.89915C216.484 6.26136 216.583 6.6733 216.583 7.13494C216.583 7.60133 216.484 8.01562 216.288 8.37784C216.092 8.74006 215.801 9.02533 215.418 9.23366C215.034 9.43963 214.562 9.54261 214.001 9.54261H212.194V8.45952H213.824C214.15 8.45952 214.418 8.4027 214.626 8.28906C214.834 8.17543 214.988 8.01918 215.088 7.82031C215.19 7.62145 215.24 7.39299 215.24 7.13494C215.24 6.87689 215.19 6.64962 215.088 6.45312C214.988 6.25663 214.833 6.10393 214.623 5.99503C214.414 5.88376 214.145 5.82812 213.816 5.82812H212.609V12H211.292Z" fill="black"/>
<path d="M232.98 9.0348C232.98 8.14702 233.097 7.33144 233.332 6.58807C233.568 5.84233 233.92 5.15341 234.386 4.52131H235.597C235.417 4.75568 235.249 5.04332 235.093 5.38423C234.937 5.72277 234.801 6.09446 234.685 6.49929C234.571 6.90175 234.481 7.3196 234.415 7.75284C234.351 8.18608 234.319 8.6134 234.319 9.0348C234.319 9.59588 234.375 10.1641 234.486 10.7393C234.599 11.3146 234.752 11.8473 234.944 12.3374C235.138 12.8298 235.356 13.2322 235.597 13.5447H234.386C233.92 12.9126 233.568 12.2249 233.332 11.4815C233.097 10.7358 232.98 9.92022 232.98 9.0348ZM237.882 8.80398V12H236.596V6.54545H237.825V7.4723H237.889C238.014 7.1669 238.214 6.92424 238.489 6.74432C238.766 6.56439 239.108 6.47443 239.515 6.47443C239.892 6.47443 240.219 6.55492 240.499 6.71591C240.78 6.87689 240.998 7.11009 241.152 7.41548C241.308 7.72088 241.385 8.09138 241.383 8.52699V12H240.097V8.72585C240.097 8.36127 240.003 8.07599 239.813 7.87003C239.626 7.66406 239.367 7.56108 239.036 7.56108C238.811 7.56108 238.611 7.6108 238.436 7.71023C238.263 7.80729 238.127 7.94815 238.027 8.13281C237.93 8.31747 237.882 8.54119 237.882 8.80398ZM244.835 11.5703V6.65554H245.95V11.5703H244.835ZM242.935 9.67045V8.5554H247.85V9.67045H242.935ZM252.362 4.72727V12H251.045V6.00923H251.002L249.301 7.09588V5.88849L251.109 4.72727H252.362ZM256.517 9.0348C256.517 9.92022 256.399 10.7358 256.162 11.4815C255.928 12.2249 255.577 12.9126 255.111 13.5447H253.9C254.082 13.3104 254.25 13.0239 254.404 12.6854C254.56 12.3468 254.695 11.9751 254.809 11.5703C254.925 11.1655 255.015 10.7464 255.079 10.3132C255.145 9.87997 255.178 9.45384 255.178 9.0348C255.178 8.47372 255.121 7.90554 255.008 7.33026C254.897 6.75497 254.744 6.22112 254.55 5.72869C254.358 5.23627 254.141 4.83381 253.9 4.52131H255.111C255.577 5.15341 255.928 5.84233 256.162 6.58807C256.399 7.33144 256.517 8.14702 256.517 9.0348ZM261.465 8.44176V9.5H258.191V8.44176H261.465ZM265.54 6.54545V7.53977H262.405V6.54545H265.54ZM263.179 5.23864H264.464V10.3594C264.464 10.5322 264.491 10.6648 264.543 10.7571C264.597 10.8471 264.668 10.9086 264.756 10.9418C264.843 10.9749 264.94 10.9915 265.047 10.9915C265.127 10.9915 265.201 10.9856 265.267 10.9737C265.336 10.9619 265.388 10.9512 265.423 10.9418L265.64 11.9467C265.571 11.9704 265.473 11.9964 265.345 12.0249C265.22 12.0533 265.066 12.0698 264.884 12.0746C264.562 12.084 264.272 12.0355 264.013 11.929C263.755 11.8201 263.551 11.652 263.399 11.4247C263.25 11.1974 263.177 10.9134 263.179 10.5724V5.23864ZM268.018 8.80398V12H266.733V4.72727H267.99V7.4723H268.054C268.182 7.16454 268.379 6.92187 268.647 6.74432C268.917 6.56439 269.26 6.47443 269.677 6.47443C270.055 6.47443 270.386 6.55374 270.667 6.71236C270.949 6.87098 271.167 7.10298 271.321 7.40838C271.477 7.71378 271.555 8.08665 271.555 8.52699V12H270.27V8.72585C270.27 8.3589 270.175 8.07363 269.986 7.87003C269.799 7.66406 269.536 7.56108 269.197 7.56108C268.97 7.56108 268.766 7.6108 268.586 7.71023C268.409 7.80729 268.269 7.94815 268.167 8.13281C268.068 8.31747 268.018 8.54119 268.018 8.80398ZM280.275 7.04972C280.216 6.85795 280.134 6.68632 280.03 6.5348C279.928 6.38092 279.805 6.24953 279.661 6.14062C279.519 6.03172 279.355 5.95005 279.171 5.8956C278.986 5.83878 278.785 5.81037 278.567 5.81037C278.176 5.81037 277.828 5.90862 277.523 6.10511C277.218 6.30161 276.977 6.59044 276.802 6.97159C276.629 7.35038 276.543 7.81203 276.543 8.35653C276.543 8.90578 276.629 9.37098 276.802 9.75213C276.975 10.1333 277.215 10.4233 277.523 10.6222C277.831 10.8187 278.188 10.9169 278.595 10.9169C278.965 10.9169 279.284 10.8459 279.554 10.7038C279.826 10.5618 280.036 10.3606 280.183 10.1001C280.329 9.83736 280.403 9.52959 280.403 9.17685L280.701 9.22301H278.727V8.19318H281.678V9.06676C281.678 9.68939 281.545 10.228 281.28 10.6825C281.015 11.1371 280.65 11.4875 280.186 11.7337C279.722 11.9775 279.19 12.0994 278.588 12.0994C277.918 12.0994 277.33 11.9491 276.823 11.6484C276.319 11.3454 275.925 10.9157 275.641 10.3594C275.359 9.80066 275.218 9.13778 275.218 8.37074C275.218 7.78362 275.301 7.25923 275.467 6.79759C275.635 6.33594 275.869 5.94413 276.17 5.62216C276.471 5.29782 276.823 5.05161 277.228 4.88352C277.633 4.71307 278.073 4.62784 278.549 4.62784C278.952 4.62784 279.327 4.68703 279.675 4.8054C280.023 4.9214 280.332 5.08712 280.602 5.30256C280.874 5.51799 281.098 5.77367 281.273 6.0696C281.448 6.36553 281.563 6.69223 281.617 7.04972H280.275ZM289.45 8.36364C289.45 9.14725 289.304 9.81842 289.01 10.3771C288.719 10.9335 288.321 11.3596 287.817 11.6555C287.315 11.9515 286.746 12.0994 286.109 12.0994C285.472 12.0994 284.901 11.9515 284.397 11.6555C283.895 11.3572 283.497 10.9299 283.204 10.3736C282.913 9.81487 282.767 9.14489 282.767 8.36364C282.767 7.58002 282.913 6.91004 283.204 6.35369C283.497 5.79498 283.895 5.36766 284.397 5.07173C284.901 4.7758 285.472 4.62784 286.109 4.62784C286.746 4.62784 287.315 4.7758 287.817 5.07173C288.321 5.36766 288.719 5.79498 289.01 6.35369C289.304 6.91004 289.45 7.58002 289.45 8.36364ZM288.126 8.36364C288.126 7.81203 288.039 7.34683 287.866 6.96804C287.696 6.58688 287.459 6.29924 287.156 6.10511C286.853 5.90862 286.504 5.81037 286.109 5.81037C285.713 5.81037 285.364 5.90862 285.061 6.10511C284.758 6.29924 284.52 6.58688 284.347 6.96804C284.177 7.34683 284.092 7.81203 284.092 8.36364C284.092 8.91525 284.177 9.38163 284.347 9.76278C284.52 10.1416 284.758 10.4292 285.061 10.6257C285.364 10.8198 285.713 10.9169 286.109 10.9169C286.504 10.9169 286.853 10.8198 287.156 10.6257C287.459 10.4292 287.696 10.1416 287.866 9.76278C288.039 9.38163 288.126 8.91525 288.126 8.36364ZM290.696 12V4.72727H293.423C293.982 4.72727 294.451 4.83144 294.829 5.03977C295.211 5.24811 295.498 5.53456 295.692 5.89915C295.889 6.26136 295.987 6.6733 295.987 7.13494C295.987 7.60133 295.889 8.01562 295.692 8.37784C295.496 8.74006 295.206 9.02533 294.822 9.23366C294.439 9.43963 293.966 9.54261 293.405 9.54261H291.598V8.45952H293.228C293.555 8.45952 293.822 8.4027 294.03 8.28906C294.239 8.17543 294.393 8.01918 294.492 7.82031C294.594 7.62145 294.645 7.39299 294.645 7.13494C294.645 6.87689 294.594 6.64962 294.492 6.45312C294.393 6.25663 294.238 6.10393 294.027 5.99503C293.818 5.88376 293.55 5.82812 293.221 5.82812H292.013V12H290.696Z" fill="black"/>
</svg>
