<svg width="368" height="257" viewBox="0 0 368 257" fill="none" xmlns="http://www.w3.org/2000/svg">
<rect x="1" y="18" width="106" height="238" rx="5" stroke="#B32F2F" stroke-width="2" stroke-linejoin="round"/>
<rect x="131" y="18" width="106" height="238" rx="5" stroke="#3C749B" stroke-width="2" stroke-linejoin="round"/>
<rect x="261" y="18" width="106" height="238" rx="5" stroke="#5D8F5D" stroke-width="2" stroke-linejoin="round"/>
<rect x="4.5" y="30.5" width="99" height="218" rx="2.5" fill="#FFFAF0" stroke="black"/>
<path d="M54 179L51.1133 184L56.8868 184L54 179ZM54 219L54.5 219L54.5 183.5L54 183.5L53.5 183.5L53.5 219L54 219Z" fill="black"/>
<path d="M54 111L51.1132 116L56.8867 116L54 111ZM54 149L54.5 149L54.5 115.5L54 115.5L53.5 115.5L53.5 149L54 149Z" fill="black"/>
<rect x="11.5" y="65.5" width="85" height="17" fill="#FFFFCB" stroke="black" stroke-linejoin="round"/>
<path d="M47.5831 70.7273V78H46.5746L42.8778 72.6662H42.8104V78H41.7131V70.7273H42.7287L46.429 76.0682H46.4964V70.7273H47.5831ZM51.3961 78.1101C50.8848 78.1101 50.4385 77.9929 50.0574 77.7585C49.6762 77.5241 49.3803 77.1963 49.1696 76.7749C48.9589 76.3535 48.8535 75.861 48.8535 75.2976C48.8535 74.7318 48.9589 74.237 49.1696 73.8132C49.3803 73.3894 49.6762 73.0604 50.0574 72.826C50.4385 72.5916 50.8848 72.4744 51.3961 72.4744C51.9075 72.4744 52.3538 72.5916 52.7349 72.826C53.1161 73.0604 53.412 73.3894 53.6227 73.8132C53.8334 74.237 53.9387 74.7318 53.9387 75.2976C53.9387 75.861 53.8334 76.3535 53.6227 76.7749C53.412 77.1963 53.1161 77.5241 52.7349 77.7585C52.3538 77.9929 51.9075 78.1101 51.3961 78.1101ZM51.3997 77.2188C51.7311 77.2188 52.0057 77.1312 52.2235 76.956C52.4413 76.7808 52.6023 76.5476 52.7065 76.2564C52.813 75.9652 52.8663 75.6444 52.8663 75.294C52.8663 74.946 52.813 74.6264 52.7065 74.3352C52.6023 74.0417 52.4413 73.8061 52.2235 73.6286C52.0057 73.451 51.7311 73.3622 51.3997 73.3622C51.0659 73.3622 50.7889 73.451 50.5687 73.6286C50.3509 73.8061 50.1887 74.0417 50.0822 74.3352C49.978 74.6264 49.926 74.946 49.926 75.294C49.926 75.6444 49.978 75.9652 50.0822 76.2564C50.1887 76.5476 50.3509 76.7808 50.5687 76.956C50.7889 77.1312 51.0659 77.2188 51.3997 77.2188ZM55.1239 78V72.5455H56.1502V73.4119H56.207C56.3065 73.1184 56.4817 72.8875 56.7326 72.7195C56.9859 72.549 57.2724 72.4638 57.592 72.4638C57.6583 72.4638 57.7364 72.4661 57.8263 72.4709C57.9187 72.4756 57.9909 72.4815 58.043 72.4886V73.5043C58.0004 73.4924 57.9246 73.4794 57.8157 73.4652C57.7068 73.4486 57.5979 73.4403 57.489 73.4403C57.238 73.4403 57.0143 73.4936 56.8178 73.6001C56.6237 73.7043 56.4698 73.8499 56.3562 74.0369C56.2425 74.2216 56.1857 74.4323 56.1857 74.669V78H55.1239ZM58.9618 78V72.5455H59.981V73.4332H60.0485C60.1621 73.1326 60.348 72.8982 60.606 72.7301C60.8641 72.5597 61.173 72.4744 61.5328 72.4744C61.8974 72.4744 62.2028 72.5597 62.449 72.7301C62.6976 72.9006 62.8811 73.1349 62.9995 73.4332H63.0563C63.1865 73.142 63.3936 72.91 63.6777 72.7372C63.9618 72.562 64.3004 72.4744 64.6934 72.4744C65.1882 72.4744 65.5918 72.6295 65.9043 72.9396C66.2192 73.2498 66.3766 73.7173 66.3766 74.3423V78H65.3148V74.4418C65.3148 74.0724 65.2142 73.8049 65.013 73.6392C64.8117 73.4735 64.5714 73.3906 64.2921 73.3906C63.9464 73.3906 63.6777 73.4972 63.486 73.7102C63.2942 73.9209 63.1983 74.192 63.1983 74.5234V78H62.1401V74.3743C62.1401 74.0784 62.0478 73.8404 61.8631 73.6605C61.6784 73.4806 61.4382 73.3906 61.1422 73.3906C60.941 73.3906 60.7551 73.4439 60.5847 73.5504C60.4166 73.6546 60.2805 73.8002 60.1763 73.9872C60.0745 74.1742 60.0236 74.3909 60.0236 74.6371V78H58.9618Z" fill="black"/>
<path d="M54 55L56.8868 60L51.1132 60L54 55ZM54 65L53.5 65L53.5 59.5L54 59.5L54.5 59.5L54.5 65L54 65Z" fill="black"/>
<path d="M54 21L51.1132 26L56.8868 26L54 21ZM54 33L54.5 33L54.5 25.5L54 25.5L53.5 25.5L53.5 33L54 33Z" fill="black"/>
<path d="M54 241L51.1132 246L56.8868 246L54 241ZM54 253L54.5 253L54.5 245.5L54 245.5L53.5 245.5L53.5 253L54 253Z" fill="black"/>
<path d="M54 83L56.8868 88L51.1132 88L54 83ZM54 93L53.5 93L53.5 87.5L54 87.5L54.5 87.5L54.5 93L54 93Z" fill="black"/>
<rect x="11.5" y="149.5" width="85" height="29" fill="#C5C5FB" stroke="black" stroke-linejoin="round"/>
<path d="M16.1897 162H15.0249L17.6421 154.727H18.9099L21.5271 162H20.3623L18.3062 156.048H18.2494L16.1897 162ZM16.385 159.152H20.1634V160.075H16.385V159.152ZM24.6965 156.545V157.398H21.7171V156.545H24.6965ZM22.5161 155.239H23.5779V160.398C23.5779 160.604 23.6086 160.759 23.6702 160.864C23.7317 160.965 23.811 161.035 23.9081 161.073C24.0075 161.109 24.1153 161.126 24.2313 161.126C24.3165 161.126 24.3911 161.121 24.455 161.109C24.5189 161.097 24.5686 161.087 24.6041 161.08L24.7959 161.957C24.7343 161.981 24.6468 162.005 24.5331 162.028C24.4195 162.054 24.2774 162.069 24.107 162.071C23.8276 162.076 23.5672 162.026 23.3257 161.922C23.0843 161.818 22.8889 161.657 22.7398 161.439C22.5906 161.221 22.5161 160.948 22.5161 160.619V155.239ZM28.4172 156.545V157.398H25.4378V156.545H28.4172ZM26.2368 155.239H27.2986V160.398C27.2986 160.604 27.3293 160.759 27.3909 160.864C27.4524 160.965 27.5318 161.035 27.6288 161.073C27.7282 161.109 27.836 161.126 27.952 161.126C28.0372 161.126 28.1118 161.121 28.1757 161.109C28.2396 161.097 28.2893 161.087 28.3248 161.08L28.5166 161.957C28.455 161.981 28.3675 162.005 28.2538 162.028C28.1402 162.054 27.9981 162.069 27.8277 162.071C27.5483 162.076 27.2879 162.026 27.0464 161.922C26.805 161.818 26.6096 161.657 26.4605 161.439C26.3113 161.221 26.2368 160.948 26.2368 160.619V155.239ZM31.884 162.11C31.3466 162.11 30.8837 161.995 30.4955 161.766C30.1096 161.534 29.8113 161.208 29.6006 160.789C29.3923 160.368 29.2881 159.874 29.2881 159.308C29.2881 158.75 29.3923 158.257 29.6006 157.831C29.8113 157.405 30.1048 157.072 30.4813 156.833C30.8601 156.594 31.3028 156.474 31.8094 156.474C32.1172 156.474 32.4155 156.525 32.7043 156.627C32.9931 156.729 33.2523 156.889 33.482 157.107C33.7116 157.324 33.8927 157.607 34.0253 157.955C34.1579 158.301 34.2242 158.721 34.2242 159.216V159.592H29.8882V158.797H33.1837C33.1837 158.518 33.1269 158.27 33.0132 158.055C32.8996 157.837 32.7398 157.665 32.5338 157.54C32.3302 157.414 32.0911 157.352 31.8165 157.352C31.5182 157.352 31.2578 157.425 31.0352 157.572C30.8151 157.716 30.6446 157.906 30.5239 158.14C30.4055 158.372 30.3463 158.624 30.3463 158.896V159.518C30.3463 159.882 30.4102 160.192 30.5381 160.448C30.6683 160.704 30.8494 160.899 31.0814 161.034C31.3134 161.167 31.5845 161.233 31.8946 161.233C32.0959 161.233 32.2793 161.205 32.445 161.148C32.6108 161.089 32.754 161.001 32.8747 160.885C32.9955 160.769 33.0878 160.626 33.1517 160.455L34.1567 160.636C34.0762 160.932 33.9318 161.192 33.7235 161.414C33.5175 161.634 33.2583 161.806 32.9458 161.929C32.6356 162.05 32.2817 162.11 31.884 162.11ZM36.464 158.761V162H35.4023V156.545H36.4214V157.433H36.4889C36.6144 157.144 36.8109 156.912 37.0784 156.737C37.3483 156.562 37.688 156.474 38.0976 156.474C38.4693 156.474 38.7948 156.553 39.0741 156.709C39.3535 156.863 39.5701 157.092 39.724 157.398C39.8779 157.703 39.9548 158.081 39.9548 158.531V162H38.893V158.658C38.893 158.263 38.79 157.954 38.5841 157.732C38.3781 157.507 38.0952 157.394 37.7354 157.394C37.4891 157.394 37.2702 157.447 37.0784 157.554C36.889 157.661 36.7387 157.817 36.6274 158.023C36.5185 158.226 36.464 158.473 36.464 158.761ZM43.925 156.545V157.398H40.9456V156.545H43.925ZM41.7446 155.239H42.8064V160.398C42.8064 160.604 42.8372 160.759 42.8987 160.864C42.9603 160.965 43.0396 161.035 43.1366 161.073C43.2361 161.109 43.3438 161.126 43.4598 161.126C43.545 161.126 43.6196 161.121 43.6835 161.109C43.7474 161.097 43.7971 161.087 43.8327 161.08L44.0244 161.957C43.9629 161.981 43.8753 162.005 43.7616 162.028C43.648 162.054 43.5059 162.069 43.3355 162.071C43.0561 162.076 42.7957 162.026 42.5542 161.922C42.3128 161.818 42.1175 161.657 41.9683 161.439C41.8192 161.221 41.7446 160.948 41.7446 160.619V155.239ZM45.0995 162V156.545H46.1613V162H45.0995ZM45.6357 155.704C45.4511 155.704 45.2925 155.642 45.1599 155.519C45.0297 155.394 44.9646 155.245 44.9646 155.072C44.9646 154.897 45.0297 154.747 45.1599 154.624C45.2925 154.499 45.4511 154.436 45.6357 154.436C45.8204 154.436 45.9778 154.499 46.108 154.624C46.2406 154.747 46.3069 154.897 46.3069 155.072C46.3069 155.245 46.2406 155.394 46.108 155.519C45.9778 155.642 45.8204 155.704 45.6357 155.704ZM49.8873 162.11C49.376 162.11 48.9297 161.993 48.5486 161.759C48.1674 161.524 47.8715 161.196 47.6608 160.775C47.4501 160.353 47.3447 159.861 47.3447 159.298C47.3447 158.732 47.4501 158.237 47.6608 157.813C47.8715 157.389 48.1674 157.06 48.5486 156.826C48.9297 156.592 49.376 156.474 49.8873 156.474C50.3987 156.474 50.845 156.592 51.2261 156.826C51.6073 157.06 51.9032 157.389 52.1139 157.813C52.3246 158.237 52.43 158.732 52.43 159.298C52.43 159.861 52.3246 160.353 52.1139 160.775C51.9032 161.196 51.6073 161.524 51.2261 161.759C50.845 161.993 50.3987 162.11 49.8873 162.11ZM49.8909 161.219C50.2223 161.219 50.497 161.131 50.7148 160.956C50.9326 160.781 51.0935 160.548 51.1977 160.256C51.3042 159.965 51.3575 159.644 51.3575 159.294C51.3575 158.946 51.3042 158.626 51.1977 158.335C51.0935 158.042 50.9326 157.806 50.7148 157.629C50.497 157.451 50.2223 157.362 49.8909 157.362C49.5571 157.362 49.2801 157.451 49.0599 157.629C48.8421 157.806 48.68 158.042 48.5734 158.335C48.4693 158.626 48.4172 158.946 48.4172 159.294C48.4172 159.644 48.4693 159.965 48.5734 160.256C48.68 160.548 48.8421 160.781 49.0599 160.956C49.2801 161.131 49.5571 161.219 49.8909 161.219ZM54.6769 158.761V162H53.6151V156.545H54.6343V157.433H54.7018C54.8273 157.144 55.0238 156.912 55.2913 156.737C55.5612 156.562 55.9009 156.474 56.3105 156.474C56.6821 156.474 57.0077 156.553 57.287 156.709C57.5664 156.863 57.783 157.092 57.9369 157.398C58.0908 157.703 58.1677 158.081 58.1677 158.531V162H57.1059V158.658C57.1059 158.263 57.0029 157.954 56.797 157.732C56.591 157.507 56.3081 157.394 55.9482 157.394C55.702 157.394 55.483 157.447 55.2913 157.554C55.1019 157.661 54.9516 157.817 54.8403 158.023C54.7314 158.226 54.6769 158.473 54.6769 158.761ZM64.5358 162.11C64.0244 162.11 63.5782 161.993 63.197 161.759C62.8158 161.524 62.5199 161.196 62.3092 160.775C62.0985 160.353 61.9932 159.861 61.9932 159.298C61.9932 158.732 62.0985 158.237 62.3092 157.813C62.5199 157.389 62.8158 157.06 63.197 156.826C63.5782 156.592 64.0244 156.474 64.5358 156.474C65.0471 156.474 65.4934 156.592 65.8746 156.826C66.2557 157.06 66.5516 157.389 66.7623 157.813C66.973 158.237 67.0784 158.732 67.0784 159.298C67.0784 159.861 66.973 160.353 66.7623 160.775C66.5516 161.196 66.2557 161.524 65.8746 161.759C65.4934 161.993 65.0471 162.11 64.5358 162.11ZM64.5393 161.219C64.8708 161.219 65.1454 161.131 65.3632 160.956C65.581 160.781 65.742 160.548 65.8461 160.256C65.9527 159.965 66.0059 159.644 66.0059 159.294C66.0059 158.946 65.9527 158.626 65.8461 158.335C65.742 158.042 65.581 157.806 65.3632 157.629C65.1454 157.451 64.8708 157.362 64.5393 157.362C64.2055 157.362 63.9285 157.451 63.7084 157.629C63.4906 157.806 63.3284 158.042 63.2219 158.335C63.1177 158.626 63.0656 158.946 63.0656 159.294C63.0656 159.644 63.1177 159.965 63.2219 160.256C63.3284 160.548 63.4906 160.781 63.7084 160.956C63.9285 161.131 64.2055 161.219 64.5393 161.219ZM68.2636 162V156.545H69.2899V157.412H69.3467C69.4461 157.118 69.6213 156.888 69.8722 156.719C70.1256 156.549 70.412 156.464 70.7316 156.464C70.7979 156.464 70.876 156.466 70.966 156.471C71.0583 156.476 71.1305 156.482 71.1826 156.489V157.504C71.14 157.492 71.0642 157.479 70.9553 157.465C70.8464 157.449 70.7375 157.44 70.6286 157.44C70.3777 157.44 70.154 157.494 69.9575 157.6C69.7633 157.704 69.6095 157.85 69.4958 158.037C69.3822 158.222 69.3254 158.432 69.3254 158.669V162H68.2636ZM74.8332 162V154.727H79.3431V155.672H75.9305V157.888H79.02V158.829H75.9305V162H74.8332ZM80.6926 162V154.727H85.2025V155.672H81.7899V157.888H84.8794V158.829H81.7899V162H80.6926ZM92.422 154.727V162H91.4134L87.7167 156.666H87.6492V162H86.5519V154.727H87.5676L91.2678 160.068H91.3353V154.727H92.422ZM37.0158 166.727H38.3475L40.6628 172.381H40.748L43.0634 166.727H44.3951V174H43.351V168.737H43.2836L41.1387 173.989H40.2722L38.1273 168.734H38.0598V174H37.0158V166.727ZM48.2028 174.11C47.6914 174.11 47.2451 173.993 46.864 173.759C46.4828 173.524 46.1869 173.196 45.9762 172.775C45.7655 172.353 45.6602 171.861 45.6602 171.298C45.6602 170.732 45.7655 170.237 45.9762 169.813C46.1869 169.389 46.4828 169.06 46.864 168.826C47.2451 168.592 47.6914 168.474 48.2028 168.474C48.7141 168.474 49.1604 168.592 49.5415 168.826C49.9227 169.06 50.2186 169.389 50.4293 169.813C50.64 170.237 50.7454 170.732 50.7454 171.298C50.7454 171.861 50.64 172.353 50.4293 172.775C50.2186 173.196 49.9227 173.524 49.5415 173.759C49.1604 173.993 48.7141 174.11 48.2028 174.11ZM48.2063 173.219C48.5378 173.219 48.8124 173.131 49.0302 172.956C49.248 172.781 49.409 172.548 49.5131 172.256C49.6197 171.965 49.6729 171.644 49.6729 171.294C49.6729 170.946 49.6197 170.626 49.5131 170.335C49.409 170.042 49.248 169.806 49.0302 169.629C48.8124 169.451 48.5378 169.362 48.2063 169.362C47.8725 169.362 47.5955 169.451 47.3754 169.629C47.1576 169.806 46.9954 170.042 46.8888 170.335C46.7847 170.626 46.7326 170.946 46.7326 171.294C46.7326 171.644 46.7847 171.965 46.8888 172.256C46.9954 172.548 47.1576 172.781 47.3754 172.956C47.5955 173.131 47.8725 173.219 48.2063 173.219ZM53.9725 174.107C53.5321 174.107 53.1391 173.994 52.7935 173.769C52.4502 173.542 52.1803 173.219 51.9838 172.8C51.7897 172.378 51.6926 171.873 51.6926 171.283C51.6926 170.694 51.7909 170.19 51.9874 169.771C52.1863 169.352 52.4585 169.031 52.8042 168.808C53.1498 168.586 53.5416 168.474 53.9796 168.474C54.3181 168.474 54.5904 168.531 54.7963 168.645C55.0047 168.756 55.1657 168.886 55.2793 169.036C55.3953 169.185 55.4853 169.316 55.5492 169.43H55.6131V166.727H56.6749V174H55.638V173.151H55.5492C55.4853 173.267 55.3929 173.4 55.2722 173.549C55.1538 173.698 54.9905 173.828 54.7821 173.94C54.5738 174.051 54.3039 174.107 53.9725 174.107ZM54.2069 173.201C54.5123 173.201 54.7703 173.121 54.981 172.96C55.1941 172.796 55.3551 172.57 55.464 172.281C55.5752 171.992 55.6309 171.656 55.6309 171.273C55.6309 170.894 55.5764 170.562 55.4675 170.278C55.3586 169.994 55.1988 169.773 54.9881 169.614C54.7774 169.456 54.517 169.376 54.2069 169.376C53.8873 169.376 53.6209 169.459 53.4078 169.625C53.1948 169.791 53.0338 170.017 52.9249 170.303C52.8184 170.59 52.7651 170.913 52.7651 171.273C52.7651 171.637 52.8195 171.965 52.9284 172.256C53.0373 172.548 53.1983 172.778 53.4114 172.949C53.6268 173.117 53.892 173.201 54.2069 173.201ZM61.6456 171.738V168.545H62.7109V174H61.6669V173.055H61.6101C61.4846 173.347 61.2834 173.589 61.0064 173.783C60.7318 173.975 60.3897 174.071 59.9801 174.071C59.6297 174.071 59.3196 173.994 59.0497 173.84C58.7822 173.684 58.5715 173.453 58.4176 173.148C58.2661 172.842 58.1903 172.465 58.1903 172.015V168.545H59.2521V171.887C59.2521 172.259 59.3551 172.555 59.5611 172.775C59.767 172.995 60.0346 173.105 60.3636 173.105C60.5625 173.105 60.7602 173.055 60.9567 172.956C61.1555 172.857 61.3201 172.706 61.4503 172.505C61.5829 172.304 61.648 172.048 61.6456 171.738ZM65.1994 166.727V174H64.1376V166.727H65.1994ZM68.9787 174.11C68.4413 174.11 67.9785 173.995 67.5902 173.766C67.2043 173.534 66.906 173.208 66.6953 172.789C66.487 172.368 66.3828 171.874 66.3828 171.308C66.3828 170.75 66.487 170.257 66.6953 169.831C66.906 169.405 67.1996 169.072 67.576 168.833C67.9548 168.594 68.3975 168.474 68.9041 168.474C69.2119 168.474 69.5102 168.525 69.799 168.627C70.0878 168.729 70.3471 168.889 70.5767 169.107C70.8063 169.324 70.9875 169.607 71.12 169.955C71.2526 170.301 71.3189 170.721 71.3189 171.216V171.592H66.983V170.797H70.2784C70.2784 170.518 70.2216 170.27 70.108 170.055C69.9943 169.837 69.8345 169.665 69.6286 169.54C69.425 169.414 69.1858 169.352 68.9112 169.352C68.6129 169.352 68.3525 169.425 68.13 169.572C67.9098 169.716 67.7393 169.906 67.6186 170.14C67.5002 170.372 67.4411 170.624 67.4411 170.896V171.518C67.4411 171.882 67.505 172.192 67.6328 172.448C67.763 172.704 67.9441 172.899 68.1761 173.034C68.4081 173.167 68.6792 173.233 68.9893 173.233C69.1906 173.233 69.3741 173.205 69.5398 173.148C69.7055 173.089 69.8487 173.001 69.9695 172.885C70.0902 172.769 70.1825 172.626 70.2464 172.455L71.2514 172.636C71.1709 172.932 71.0265 173.192 70.8182 173.414C70.6122 173.634 70.353 173.806 70.0405 173.929C69.7304 174.05 69.3764 174.11 68.9787 174.11Z" fill="black"/>
<circle cx="54" cy="230" r="10.5" fill="#FFFEFB" stroke="black" stroke-linejoin="round"/>
<path d="M48.2834 227.551C48.3612 227.084 48.6613 226.545 49.1837 225.934C49.7061 225.322 50.3507 225.011 51.1176 225C51.5066 225 51.8623 225.1 52.1846 225.3C52.507 225.5 52.7459 225.75 52.9015 226.05C53.3683 225.35 53.9296 225 54.5854 225C54.9966 225 55.3523 225.122 55.6524 225.367C55.9525 225.611 56.1081 225.939 56.1192 226.35C56.1192 226.673 56.0414 226.934 55.8858 227.134C55.7302 227.334 55.5801 227.456 55.4356 227.501C55.2911 227.545 55.1633 227.567 55.0522 227.567C54.841 227.567 54.6687 227.506 54.5354 227.384C54.402 227.262 54.3353 227.101 54.3353 226.901C54.3353 226.389 54.6132 226.039 55.1689 225.85C55.0466 225.706 54.8243 225.634 54.502 225.634C54.3575 225.634 54.2519 225.645 54.1852 225.667C53.7629 225.845 53.4517 226.212 53.2516 226.767C52.5848 229.224 52.2513 230.657 52.2513 231.069C52.2513 231.38 52.3402 231.602 52.5181 231.735C52.6959 231.869 52.8904 231.936 53.1016 231.936C53.5128 231.936 53.9185 231.752 54.3186 231.385C54.7187 231.019 54.9911 230.568 55.1355 230.035C55.1689 229.924 55.2022 229.863 55.2356 229.852C55.2689 229.84 55.3578 229.829 55.5023 229.818H55.569C55.7357 229.818 55.8191 229.863 55.8191 229.952C55.8191 229.963 55.808 230.024 55.7857 230.135C55.6079 230.768 55.2634 231.33 54.7521 231.819C54.2408 232.308 53.6462 232.552 52.9682 232.552C52.1902 232.552 51.6011 232.202 51.201 231.502C50.7453 232.191 50.2229 232.536 49.6338 232.536H49.5338C48.9892 232.536 48.6002 232.391 48.3668 232.102C48.1334 231.813 48.0111 231.508 48 231.185C48 230.83 48.1056 230.541 48.3168 230.318C48.5279 230.096 48.778 229.985 49.067 229.985C49.5449 229.985 49.7839 230.218 49.7839 230.685C49.7839 230.907 49.7172 231.102 49.5838 231.269C49.4504 231.435 49.3226 231.547 49.2004 231.602C49.0781 231.658 49.0059 231.685 48.9836 231.685L48.9336 231.702C48.9336 231.713 48.967 231.735 49.0337 231.769C49.1003 231.802 49.1893 231.841 49.3004 231.885C49.4115 231.93 49.5171 231.947 49.6172 231.936C50.0173 231.936 50.3618 231.685 50.6508 231.185C50.7509 231.007 50.8787 230.63 51.0343 230.052C51.1899 229.474 51.3455 228.873 51.5011 228.251C51.6567 227.629 51.7456 227.262 51.7678 227.151C51.8234 226.851 51.8512 226.634 51.8512 226.5C51.8512 226.189 51.7678 225.967 51.6011 225.834C51.4344 225.7 51.2454 225.634 51.0343 225.634C50.5897 225.634 50.1729 225.811 49.7839 226.167C49.3949 226.523 49.1226 226.978 48.967 227.534C48.9447 227.634 48.917 227.69 48.8836 227.701C48.8503 227.712 48.7613 227.723 48.6169 227.734H48.3835C48.3168 227.668 48.2834 227.606 48.2834 227.551Z" fill="black"/>
<path d="M58.3318 234.174C58.3318 234.434 58.43 234.563 58.6265 234.563C58.9172 234.563 59.1648 234.151 59.3691 233.326C59.4162 233.168 59.4555 233.086 59.4869 233.078C59.5026 233.07 59.5419 233.066 59.6048 233.066H59.6519C59.7227 233.066 59.7698 233.066 59.7934 233.066C59.817 233.066 59.8366 233.074 59.8523 233.09C59.868 233.106 59.8759 233.133 59.8759 233.172C59.868 233.22 59.8563 233.282 59.8405 233.361C59.8248 233.44 59.7816 233.589 59.7109 233.809C59.6402 234.029 59.5616 234.214 59.4751 234.363C59.3887 234.512 59.2669 234.658 59.1097 234.799C58.9526 234.94 58.7719 235.007 58.5675 234.999C58.2847 234.999 58.0214 234.913 57.7778 234.74C57.5342 234.567 57.4085 234.276 57.4006 233.868C57.4006 233.774 57.4046 233.707 57.4124 233.667L58.1786 230.626C58.6736 228.623 58.9212 227.589 58.9212 227.526C58.9212 227.503 58.9172 227.483 58.9094 227.467C58.9015 227.452 58.8858 227.436 58.8622 227.42C58.8386 227.405 58.819 227.397 58.8033 227.397C58.7876 227.397 58.7561 227.393 58.709 227.385C58.6618 227.377 58.6304 227.373 58.6147 227.373C58.599 227.373 58.5636 227.369 58.5086 227.361C58.4536 227.354 58.4143 227.354 58.3907 227.361C58.3122 227.361 58.2611 227.361 58.2375 227.361C58.2139 227.361 58.1825 227.357 58.1432 227.35C58.1039 227.342 58.0804 227.33 58.0725 227.314C58.0646 227.299 58.0607 227.275 58.0607 227.244C58.0607 227.228 58.0686 227.173 58.0843 227.079C58.1236 226.929 58.1668 226.847 58.2139 226.831C58.2611 226.815 58.544 226.792 59.0626 226.76C59.1805 226.752 59.3141 226.745 59.4634 226.737C59.6127 226.729 59.7305 226.717 59.817 226.701C59.9034 226.686 59.9466 226.682 59.9466 226.69C60.0409 226.69 60.0881 226.721 60.0881 226.784C60.0881 226.87 59.8013 228.049 59.2276 230.32C58.654 232.591 58.3593 233.781 58.3436 233.891C58.3436 233.907 58.3436 233.939 58.3436 233.986C58.3436 234.033 58.3397 234.072 58.3318 234.104V234.174Z" fill="black"/>
<circle cx="54" cy="44" r="10.5" fill="#FFFEFB" stroke="black" stroke-linejoin="round"/>
<path d="M49 41.396C49 41.2517 49.0773 41.0044 49.2318 40.6541C49.3864 40.3038 49.6337 39.938 49.9737 39.5568C50.3137 39.1756 50.6949 38.9901 51.1174 39.0004C51.5398 39.0004 51.8798 39.1189 52.1374 39.3559C52.395 39.5929 52.529 39.9226 52.5393 40.345C52.5187 40.5408 52.5032 40.649 52.4929 40.6696C52.4929 40.7005 52.4105 40.9375 52.2456 41.3805C52.0808 41.8236 51.9108 42.3233 51.7356 42.8797C51.5604 43.4361 51.478 43.8791 51.4883 44.2089C51.4883 44.6519 51.5604 44.961 51.7047 45.1362C51.8489 45.3113 52.0653 45.4041 52.3538 45.4144C52.5908 45.4144 52.8123 45.3577 53.0184 45.2444C53.2245 45.131 53.3842 45.0125 53.4975 44.8889C53.6108 44.7652 53.7499 44.5952 53.9148 44.3789C53.9148 44.3686 53.9406 44.2655 53.9921 44.0698C54.0436 43.874 54.1157 43.57 54.2084 43.1579C54.3012 42.7457 54.3991 42.3645 54.5021 42.0142C54.8936 40.4687 55.11 39.6598 55.1512 39.5877C55.2852 39.3095 55.5067 39.1704 55.8158 39.1704C55.9497 39.1704 56.0579 39.2065 56.1404 39.2786C56.2228 39.3507 56.2795 39.4125 56.3104 39.4641C56.3413 39.5156 56.3516 39.5619 56.3413 39.6032C56.3413 39.7371 56.0888 40.819 55.584 42.8488C55.0791 44.8786 54.7906 45.9914 54.7185 46.1871C54.43 47.0423 53.9302 47.7224 53.2193 48.2272C52.5084 48.7321 51.7974 48.9897 51.0865 49C50.6228 49 50.2158 48.8867 49.8655 48.66C49.5152 48.4333 49.34 48.0933 49.34 47.6399C49.34 47.4133 49.3761 47.2226 49.4482 47.0681C49.5203 46.9135 49.6182 46.8002 49.7419 46.7281C49.8655 46.6559 49.9685 46.6044 50.051 46.5735C50.1334 46.5426 50.221 46.5271 50.3137 46.5271C50.7671 46.5271 50.9937 46.7435 50.9937 47.1763C50.9937 47.3823 50.9319 47.5627 50.8083 47.7172C50.6846 47.8718 50.5661 47.9748 50.4528 48.0263C50.3395 48.0778 50.2725 48.1036 50.2519 48.1036L50.2055 48.119C50.2261 48.1706 50.324 48.2324 50.4992 48.3045C50.6743 48.3766 50.8495 48.4127 51.0246 48.4127H51.1483C51.3235 48.4127 51.4574 48.4024 51.5501 48.3818C51.8901 48.2891 52.2044 48.0933 52.4929 47.7945C52.7814 47.4957 53.0029 47.1763 53.1575 46.8363C53.312 46.4962 53.4305 46.2077 53.513 45.9708C53.5954 45.7338 53.6366 45.5792 53.6366 45.5071L53.5439 45.5689C53.482 45.6101 53.3842 45.6668 53.2502 45.7389C53.1163 45.8111 52.9823 45.8729 52.8484 45.9244C52.6423 45.9759 52.4414 46.0017 52.2456 46.0017C51.7717 46.0017 51.3544 45.8883 50.9937 45.6617C50.6331 45.435 50.3961 45.0692 50.2828 44.5643C50.2725 44.4922 50.2673 44.3325 50.2673 44.0852C50.2673 43.4979 50.4476 42.7303 50.8083 41.7824C51.1689 40.8344 51.3492 40.2317 51.3492 39.9741C51.3492 39.9638 51.3492 39.9535 51.3492 39.9432C51.3492 39.8504 51.3492 39.7886 51.3492 39.7577C51.3492 39.7268 51.3286 39.6907 51.2874 39.6495C51.2462 39.6083 51.1895 39.5877 51.1174 39.5877H51.0556C50.8186 39.5877 50.6022 39.6856 50.4064 39.8814C50.2107 40.0771 50.0561 40.2883 49.9428 40.515C49.8294 40.7417 49.7419 40.9581 49.68 41.1642C49.6182 41.3702 49.577 41.4836 49.5564 41.5042C49.5358 41.5248 49.4534 41.5351 49.3091 41.5351H49.0927C49.0309 41.4733 49 41.4269 49 41.396Z" fill="black"/>
<path d="M57.527 47.5053C57.527 47.7457 57.6181 47.8659 57.8002 47.8659C58.0697 47.8659 58.2992 47.4834 58.4886 46.7186C58.5323 46.5729 58.5687 46.4964 58.5979 46.4891C58.6125 46.4818 58.6489 46.4782 58.7072 46.4782H58.7509C58.8164 46.4782 58.8601 46.4782 58.882 46.4782C58.9038 46.4782 58.922 46.4854 58.9366 46.5C58.9512 46.5146 58.9585 46.5401 58.9585 46.5765C58.9512 46.6202 58.9403 46.6785 58.9257 46.7513C58.9111 46.8242 58.8711 46.9626 58.8055 47.1666C58.7399 47.3705 58.6671 47.5417 58.587 47.6801C58.5068 47.8185 58.3939 47.9533 58.2482 48.0844C58.1025 48.2155 57.935 48.2775 57.7456 48.2702C57.4833 48.2702 57.2393 48.19 57.0135 48.0298C56.7877 47.8695 56.6711 47.6 56.6638 47.2212C56.6638 47.1338 56.6675 47.0719 56.6747 47.0354L57.385 44.2163C57.8439 42.3587 58.0734 41.4008 58.0734 41.3425C58.0734 41.3207 58.0697 41.3024 58.0625 41.2879C58.0552 41.2733 58.0406 41.2587 58.0188 41.2442C57.9969 41.2296 57.9787 41.2223 57.9641 41.2223C57.9496 41.2223 57.9204 41.2187 57.8767 41.2114C57.833 41.2041 57.8039 41.2005 57.7893 41.2005C57.7747 41.2005 57.7419 41.1968 57.6909 41.1895C57.64 41.1823 57.6035 41.1823 57.5817 41.1895C57.5088 41.1895 57.4615 41.1895 57.4396 41.1895C57.4178 41.1895 57.3886 41.1859 57.3522 41.1786C57.3158 41.1713 57.2939 41.1604 57.2867 41.1458C57.2794 41.1313 57.2757 41.1094 57.2757 41.0803C57.2757 41.0657 57.283 41.0147 57.2976 40.9273C57.334 40.7889 57.3741 40.7124 57.4178 40.6978C57.4615 40.6833 57.7237 40.6614 58.2045 40.6323C58.3138 40.625 58.4376 40.6177 58.576 40.6104C58.7144 40.6031 58.8237 40.5922 58.9038 40.5776C58.984 40.5631 59.024 40.5594 59.024 40.5667C59.1114 40.5667 59.1552 40.5958 59.1552 40.6541C59.1552 40.7342 58.8893 41.8269 58.3575 43.9322C57.8257 46.0374 57.5525 47.1411 57.538 47.243C57.538 47.2576 57.538 47.2868 57.538 47.3305C57.538 47.3742 57.5343 47.4106 57.527 47.4397V47.5053Z" fill="black"/>
<circle cx="54" cy="102" r="8.5" fill="#FFFEFB" stroke="black" stroke-linejoin="round"/>
<path d="M51.4276 102.778C51.294 102.778 51.1084 102.778 50.8708 102.778C50.6333 102.778 50.4551 102.785 50.3363 102.8C49.8909 102.8 49.5568 102.748 49.3341 102.644C49.1114 102.541 49 102.326 49 102C49 101.674 49.1114 101.459 49.3341 101.356C49.5568 101.252 49.8909 101.2 50.3363 101.2C50.4402 101.2 50.611 101.2 50.8486 101.2C51.0861 101.2 51.2791 101.207 51.4276 101.222H53.2094V99.4L53.2316 97.5778C53.4246 97.1926 53.6771 97 53.9889 97C54.078 97 54.1596 97.0074 54.2339 97.0222C54.3081 97.037 54.3749 97.0741 54.4343 97.1333C54.4937 97.1926 54.5308 97.237 54.5457 97.2667C54.5605 97.2963 54.605 97.3556 54.6793 97.4444L54.7684 97.5778V101.222H56.5501H57.7305C58.1314 101.222 58.4061 101.244 58.5546 101.289C58.703 101.333 58.8218 101.459 58.9109 101.667C58.9703 101.785 59 101.896 59 102C59 102.163 58.948 102.311 58.8441 102.444C58.7402 102.578 58.614 102.674 58.4655 102.733C58.3764 102.763 57.7379 102.778 56.5501 102.778H54.7684V106.422C54.5308 106.807 54.271 107 53.9889 107C53.8107 107 53.6622 106.956 53.5434 106.867C53.4246 106.778 53.3356 106.681 53.2762 106.578L53.2316 106.422L53.2094 104.6V102.778H51.4276Z" fill="black"/>
<path d="M8.5 215.5H8V216H8.5V215.5ZM8.5 102V101.5H8V102H8.5ZM45 102L40 99.1132V104.887L45 102ZM53.5 215.5V215H8.5V215.5V216H53.5V215.5ZM8.5 215.5H9V102H8.5H8V215.5H8.5ZM8.5 102V102.5H40.5V102V101.5H8.5V102Z" fill="black"/>
<rect x="134.5" y="30.5" width="99" height="218" rx="2.5" fill="#FFFAF0" stroke="black"/>
<rect x="141.5" y="189.5" width="85" height="17" fill="#FFFFCB" stroke="black" stroke-linejoin="round"/>
<path d="M177.583 194.727V202H176.575L172.878 196.666H172.81V202H171.713V194.727H172.729L176.429 200.068H176.496V194.727H177.583ZM181.396 202.11C180.885 202.11 180.439 201.993 180.057 201.759C179.676 201.524 179.38 201.196 179.17 200.775C178.959 200.353 178.854 199.861 178.854 199.298C178.854 198.732 178.959 198.237 179.17 197.813C179.38 197.389 179.676 197.06 180.057 196.826C180.439 196.592 180.885 196.474 181.396 196.474C181.907 196.474 182.354 196.592 182.735 196.826C183.116 197.06 183.412 197.389 183.623 197.813C183.833 198.237 183.939 198.732 183.939 199.298C183.939 199.861 183.833 200.353 183.623 200.775C183.412 201.196 183.116 201.524 182.735 201.759C182.354 201.993 181.907 202.11 181.396 202.11ZM181.4 201.219C181.731 201.219 182.006 201.131 182.224 200.956C182.441 200.781 182.602 200.548 182.706 200.256C182.813 199.965 182.866 199.644 182.866 199.294C182.866 198.946 182.813 198.626 182.706 198.335C182.602 198.042 182.441 197.806 182.224 197.629C182.006 197.451 181.731 197.362 181.4 197.362C181.066 197.362 180.789 197.451 180.569 197.629C180.351 197.806 180.189 198.042 180.082 198.335C179.978 198.626 179.926 198.946 179.926 199.294C179.926 199.644 179.978 199.965 180.082 200.256C180.189 200.548 180.351 200.781 180.569 200.956C180.789 201.131 181.066 201.219 181.4 201.219ZM185.124 202V196.545H186.15V197.412H186.207C186.306 197.118 186.482 196.888 186.733 196.719C186.986 196.549 187.272 196.464 187.592 196.464C187.658 196.464 187.736 196.466 187.826 196.471C187.919 196.476 187.991 196.482 188.043 196.489V197.504C188 197.492 187.925 197.479 187.816 197.465C187.707 197.449 187.598 197.44 187.489 197.44C187.238 197.44 187.014 197.494 186.818 197.6C186.624 197.704 186.47 197.85 186.356 198.037C186.243 198.222 186.186 198.432 186.186 198.669V202H185.124ZM188.962 202V196.545H189.981V197.433H190.048C190.162 197.133 190.348 196.898 190.606 196.73C190.864 196.56 191.173 196.474 191.533 196.474C191.897 196.474 192.203 196.56 192.449 196.73C192.698 196.901 192.881 197.135 192.999 197.433H193.056C193.186 197.142 193.394 196.91 193.678 196.737C193.962 196.562 194.3 196.474 194.693 196.474C195.188 196.474 195.592 196.629 195.904 196.94C196.219 197.25 196.377 197.717 196.377 198.342V202H195.315V198.442C195.315 198.072 195.214 197.805 195.013 197.639C194.812 197.473 194.571 197.391 194.292 197.391C193.946 197.391 193.678 197.497 193.486 197.71C193.294 197.921 193.198 198.192 193.198 198.523V202H192.14V198.374C192.14 198.078 192.048 197.84 191.863 197.661C191.678 197.481 191.438 197.391 191.142 197.391C190.941 197.391 190.755 197.444 190.585 197.55C190.417 197.655 190.28 197.8 190.176 197.987C190.075 198.174 190.024 198.391 190.024 198.637V202H188.962Z" fill="black"/>
<path d="M184 207L181.113 212L186.887 212L184 207ZM184 219L184.5 219L184.5 211.5L184 211.5L183.5 211.5L183.5 219L184 219Z" fill="black"/>
<path d="M184 111L181.113 116L186.887 116L184 111ZM184 149L184.5 149L184.5 115.5L184 115.5L183.5 115.5L183.5 149L184 149Z" fill="black"/>
<path d="M184 179L186.887 184L181.113 184L184 179ZM184 189L183.5 189L183.5 183.5L184 183.5L184.5 183.5L184.5 189L184 189Z" fill="black"/>
<path d="M184 21L181.113 26L186.887 26L184 21ZM184 33L184.5 33L184.5 25.5L184 25.5L183.5 25.5L183.5 33L184 33Z" fill="black"/>
<path d="M184 241L181.113 246L186.887 246L184 241ZM184 253L184.5 253L184.5 245.5L184 245.5L183.5 245.5L183.5 253L184 253Z" fill="black"/>
<path d="M184 55L181.113 60L186.887 60L184 55ZM184 93L184.5 93L184.5 59.5L184 59.5L183.5 59.5L183.5 93L184 93Z" fill="black"/>
<rect x="141.5" y="149.5" width="85" height="29" fill="#C5C5FB" stroke="black" stroke-linejoin="round"/>
<path d="M146.19 162H145.025L147.642 154.727H148.91L151.527 162H150.362L148.306 156.048H148.249L146.19 162ZM146.385 159.152H150.163V160.075H146.385V159.152ZM154.696 156.545V157.398H151.717V156.545H154.696ZM152.516 155.239H153.578V160.398C153.578 160.604 153.609 160.759 153.67 160.864C153.732 160.965 153.811 161.035 153.908 161.073C154.008 161.109 154.115 161.126 154.231 161.126C154.316 161.126 154.391 161.121 154.455 161.109C154.519 161.097 154.569 161.087 154.604 161.08L154.796 161.957C154.734 161.981 154.647 162.005 154.533 162.028C154.419 162.054 154.277 162.069 154.107 162.071C153.828 162.076 153.567 162.026 153.326 161.922C153.084 161.818 152.889 161.657 152.74 161.439C152.591 161.221 152.516 160.948 152.516 160.619V155.239ZM158.417 156.545V157.398H155.438V156.545H158.417ZM156.237 155.239H157.299V160.398C157.299 160.604 157.329 160.759 157.391 160.864C157.452 160.965 157.532 161.035 157.629 161.073C157.728 161.109 157.836 161.126 157.952 161.126C158.037 161.126 158.112 161.121 158.176 161.109C158.24 161.097 158.289 161.087 158.325 161.08L158.517 161.957C158.455 161.981 158.367 162.005 158.254 162.028C158.14 162.054 157.998 162.069 157.828 162.071C157.548 162.076 157.288 162.026 157.046 161.922C156.805 161.818 156.61 161.657 156.46 161.439C156.311 161.221 156.237 160.948 156.237 160.619V155.239ZM161.884 162.11C161.347 162.11 160.884 161.995 160.495 161.766C160.11 161.534 159.811 161.208 159.601 160.789C159.392 160.368 159.288 159.874 159.288 159.308C159.288 158.75 159.392 158.257 159.601 157.831C159.811 157.405 160.105 157.072 160.481 156.833C160.86 156.594 161.303 156.474 161.809 156.474C162.117 156.474 162.415 156.525 162.704 156.627C162.993 156.729 163.252 156.889 163.482 157.107C163.712 157.324 163.893 157.607 164.025 157.955C164.158 158.301 164.224 158.721 164.224 159.216V159.592H159.888V158.797H163.184C163.184 158.518 163.127 158.27 163.013 158.055C162.9 157.837 162.74 157.665 162.534 157.54C162.33 157.414 162.091 157.352 161.816 157.352C161.518 157.352 161.258 157.425 161.035 157.572C160.815 157.716 160.645 157.906 160.524 158.14C160.406 158.372 160.346 158.624 160.346 158.896V159.518C160.346 159.882 160.41 160.192 160.538 160.448C160.668 160.704 160.849 160.899 161.081 161.034C161.313 161.167 161.584 161.233 161.895 161.233C162.096 161.233 162.279 161.205 162.445 161.148C162.611 161.089 162.754 161.001 162.875 160.885C162.995 160.769 163.088 160.626 163.152 160.455L164.157 160.636C164.076 160.932 163.932 161.192 163.723 161.414C163.517 161.634 163.258 161.806 162.946 161.929C162.636 162.05 162.282 162.11 161.884 162.11ZM166.464 158.761V162H165.402V156.545H166.421V157.433H166.489C166.614 157.144 166.811 156.912 167.078 156.737C167.348 156.562 167.688 156.474 168.098 156.474C168.469 156.474 168.795 156.553 169.074 156.709C169.353 156.863 169.57 157.092 169.724 157.398C169.878 157.703 169.955 158.081 169.955 158.531V162H168.893V158.658C168.893 158.263 168.79 157.954 168.584 157.732C168.378 157.507 168.095 157.394 167.735 157.394C167.489 157.394 167.27 157.447 167.078 157.554C166.889 157.661 166.739 157.817 166.627 158.023C166.518 158.226 166.464 158.473 166.464 158.761ZM173.925 156.545V157.398H170.946V156.545H173.925ZM171.745 155.239H172.806V160.398C172.806 160.604 172.837 160.759 172.899 160.864C172.96 160.965 173.04 161.035 173.137 161.073C173.236 161.109 173.344 161.126 173.46 161.126C173.545 161.126 173.62 161.121 173.684 161.109C173.747 161.097 173.797 161.087 173.833 161.08L174.024 161.957C173.963 161.981 173.875 162.005 173.762 162.028C173.648 162.054 173.506 162.069 173.335 162.071C173.056 162.076 172.796 162.026 172.554 161.922C172.313 161.818 172.117 161.657 171.968 161.439C171.819 161.221 171.745 160.948 171.745 160.619V155.239ZM175.1 162V156.545H176.161V162H175.1ZM175.636 155.704C175.451 155.704 175.292 155.642 175.16 155.519C175.03 155.394 174.965 155.245 174.965 155.072C174.965 154.897 175.03 154.747 175.16 154.624C175.292 154.499 175.451 154.436 175.636 154.436C175.82 154.436 175.978 154.499 176.108 154.624C176.241 154.747 176.307 154.897 176.307 155.072C176.307 155.245 176.241 155.394 176.108 155.519C175.978 155.642 175.82 155.704 175.636 155.704ZM179.887 162.11C179.376 162.11 178.93 161.993 178.549 161.759C178.167 161.524 177.871 161.196 177.661 160.775C177.45 160.353 177.345 159.861 177.345 159.298C177.345 158.732 177.45 158.237 177.661 157.813C177.871 157.389 178.167 157.06 178.549 156.826C178.93 156.592 179.376 156.474 179.887 156.474C180.399 156.474 180.845 156.592 181.226 156.826C181.607 157.06 181.903 157.389 182.114 157.813C182.325 158.237 182.43 158.732 182.43 159.298C182.43 159.861 182.325 160.353 182.114 160.775C181.903 161.196 181.607 161.524 181.226 161.759C180.845 161.993 180.399 162.11 179.887 162.11ZM179.891 161.219C180.222 161.219 180.497 161.131 180.715 160.956C180.933 160.781 181.094 160.548 181.198 160.256C181.304 159.965 181.358 159.644 181.358 159.294C181.358 158.946 181.304 158.626 181.198 158.335C181.094 158.042 180.933 157.806 180.715 157.629C180.497 157.451 180.222 157.362 179.891 157.362C179.557 157.362 179.28 157.451 179.06 157.629C178.842 157.806 178.68 158.042 178.573 158.335C178.469 158.626 178.417 158.946 178.417 159.294C178.417 159.644 178.469 159.965 178.573 160.256C178.68 160.548 178.842 160.781 179.06 160.956C179.28 161.131 179.557 161.219 179.891 161.219ZM184.677 158.761V162H183.615V156.545H184.634V157.433H184.702C184.827 157.144 185.024 156.912 185.291 156.737C185.561 156.562 185.901 156.474 186.31 156.474C186.682 156.474 187.008 156.553 187.287 156.709C187.566 156.863 187.783 157.092 187.937 157.398C188.091 157.703 188.168 158.081 188.168 158.531V162H187.106V158.658C187.106 158.263 187.003 157.954 186.797 157.732C186.591 157.507 186.308 157.394 185.948 157.394C185.702 157.394 185.483 157.447 185.291 157.554C185.102 157.661 184.952 157.817 184.84 158.023C184.731 158.226 184.677 158.473 184.677 158.761ZM194.536 162.11C194.024 162.11 193.578 161.993 193.197 161.759C192.816 161.524 192.52 161.196 192.309 160.775C192.099 160.353 191.993 159.861 191.993 159.298C191.993 158.732 192.099 158.237 192.309 157.813C192.52 157.389 192.816 157.06 193.197 156.826C193.578 156.592 194.024 156.474 194.536 156.474C195.047 156.474 195.493 156.592 195.875 156.826C196.256 157.06 196.552 157.389 196.762 157.813C196.973 158.237 197.078 158.732 197.078 159.298C197.078 159.861 196.973 160.353 196.762 160.775C196.552 161.196 196.256 161.524 195.875 161.759C195.493 161.993 195.047 162.11 194.536 162.11ZM194.539 161.219C194.871 161.219 195.145 161.131 195.363 160.956C195.581 160.781 195.742 160.548 195.846 160.256C195.953 159.965 196.006 159.644 196.006 159.294C196.006 158.946 195.953 158.626 195.846 158.335C195.742 158.042 195.581 157.806 195.363 157.629C195.145 157.451 194.871 157.362 194.539 157.362C194.206 157.362 193.929 157.451 193.708 157.629C193.491 157.806 193.328 158.042 193.222 158.335C193.118 158.626 193.066 158.946 193.066 159.294C193.066 159.644 193.118 159.965 193.222 160.256C193.328 160.548 193.491 160.781 193.708 160.956C193.929 161.131 194.206 161.219 194.539 161.219ZM198.264 162V156.545H199.29V157.412H199.347C199.446 157.118 199.621 156.888 199.872 156.719C200.126 156.549 200.412 156.464 200.732 156.464C200.798 156.464 200.876 156.466 200.966 156.471C201.058 156.476 201.131 156.482 201.183 156.489V157.504C201.14 157.492 201.064 157.479 200.955 157.465C200.846 157.449 200.738 157.44 200.629 157.44C200.378 157.44 200.154 157.494 199.957 157.6C199.763 157.704 199.609 157.85 199.496 158.037C199.382 158.222 199.325 158.432 199.325 158.669V162H198.264ZM204.833 162V154.727H209.343V155.672H205.93V157.888H209.02V158.829H205.93V162H204.833ZM210.693 162V154.727H215.203V155.672H211.79V157.888H214.879V158.829H211.79V162H210.693ZM222.422 154.727V162H221.413L217.717 156.666H217.649V162H216.552V154.727H217.568L221.268 160.068H221.335V154.727H222.422ZM167.016 166.727H168.347L170.663 172.381H170.748L173.063 166.727H174.395V174H173.351V168.737H173.284L171.139 173.989H170.272L168.127 168.734H168.06V174H167.016V166.727ZM178.203 174.11C177.691 174.11 177.245 173.993 176.864 173.759C176.483 173.524 176.187 173.196 175.976 172.775C175.766 172.353 175.66 171.861 175.66 171.298C175.66 170.732 175.766 170.237 175.976 169.813C176.187 169.389 176.483 169.06 176.864 168.826C177.245 168.592 177.691 168.474 178.203 168.474C178.714 168.474 179.16 168.592 179.542 168.826C179.923 169.06 180.219 169.389 180.429 169.813C180.64 170.237 180.745 170.732 180.745 171.298C180.745 171.861 180.64 172.353 180.429 172.775C180.219 173.196 179.923 173.524 179.542 173.759C179.16 173.993 178.714 174.11 178.203 174.11ZM178.206 173.219C178.538 173.219 178.812 173.131 179.03 172.956C179.248 172.781 179.409 172.548 179.513 172.256C179.62 171.965 179.673 171.644 179.673 171.294C179.673 170.946 179.62 170.626 179.513 170.335C179.409 170.042 179.248 169.806 179.03 169.629C178.812 169.451 178.538 169.362 178.206 169.362C177.873 169.362 177.596 169.451 177.375 169.629C177.158 169.806 176.995 170.042 176.889 170.335C176.785 170.626 176.733 170.946 176.733 171.294C176.733 171.644 176.785 171.965 176.889 172.256C176.995 172.548 177.158 172.781 177.375 172.956C177.596 173.131 177.873 173.219 178.206 173.219ZM183.972 174.107C183.532 174.107 183.139 173.994 182.794 173.769C182.45 173.542 182.18 173.219 181.984 172.8C181.79 172.378 181.693 171.873 181.693 171.283C181.693 170.694 181.791 170.19 181.987 169.771C182.186 169.352 182.459 169.031 182.804 168.808C183.15 168.586 183.542 168.474 183.98 168.474C184.318 168.474 184.59 168.531 184.796 168.645C185.005 168.756 185.166 168.886 185.279 169.036C185.395 169.185 185.485 169.316 185.549 169.43H185.613V166.727H186.675V174H185.638V173.151H185.549C185.485 173.267 185.393 173.4 185.272 173.549C185.154 173.698 184.99 173.828 184.782 173.94C184.574 174.051 184.304 174.107 183.972 174.107ZM184.207 173.201C184.512 173.201 184.77 173.121 184.981 172.96C185.194 172.796 185.355 172.57 185.464 172.281C185.575 171.992 185.631 171.656 185.631 171.273C185.631 170.894 185.576 170.562 185.468 170.278C185.359 169.994 185.199 169.773 184.988 169.614C184.777 169.456 184.517 169.376 184.207 169.376C183.887 169.376 183.621 169.459 183.408 169.625C183.195 169.791 183.034 170.017 182.925 170.303C182.818 170.59 182.765 170.913 182.765 171.273C182.765 171.637 182.82 171.965 182.928 172.256C183.037 172.548 183.198 172.778 183.411 172.949C183.627 173.117 183.892 173.201 184.207 173.201ZM191.646 171.738V168.545H192.711V174H191.667V173.055H191.61C191.485 173.347 191.283 173.589 191.006 173.783C190.732 173.975 190.39 174.071 189.98 174.071C189.63 174.071 189.32 173.994 189.05 173.84C188.782 173.684 188.571 173.453 188.418 173.148C188.266 172.842 188.19 172.465 188.19 172.015V168.545H189.252V171.887C189.252 172.259 189.355 172.555 189.561 172.775C189.767 172.995 190.035 173.105 190.364 173.105C190.563 173.105 190.76 173.055 190.957 172.956C191.156 172.857 191.32 172.706 191.45 172.505C191.583 172.304 191.648 172.048 191.646 171.738ZM195.199 166.727V174H194.138V166.727H195.199ZM198.979 174.11C198.441 174.11 197.978 173.995 197.59 173.766C197.204 173.534 196.906 173.208 196.695 172.789C196.487 172.368 196.383 171.874 196.383 171.308C196.383 170.75 196.487 170.257 196.695 169.831C196.906 169.405 197.2 169.072 197.576 168.833C197.955 168.594 198.397 168.474 198.904 168.474C199.212 168.474 199.51 168.525 199.799 168.627C200.088 168.729 200.347 168.889 200.577 169.107C200.806 169.324 200.987 169.607 201.12 169.955C201.253 170.301 201.319 170.721 201.319 171.216V171.592H196.983V170.797H200.278C200.278 170.518 200.222 170.27 200.108 170.055C199.994 169.837 199.835 169.665 199.629 169.54C199.425 169.414 199.186 169.352 198.911 169.352C198.613 169.352 198.353 169.425 198.13 169.572C197.91 169.716 197.739 169.906 197.619 170.14C197.5 170.372 197.441 170.624 197.441 170.896V171.518C197.441 171.882 197.505 172.192 197.633 172.448C197.763 172.704 197.944 172.899 198.176 173.034C198.408 173.167 198.679 173.233 198.989 173.233C199.191 173.233 199.374 173.205 199.54 173.148C199.705 173.089 199.849 173.001 199.969 172.885C200.09 172.769 200.183 172.626 200.246 172.455L201.251 172.636C201.171 172.932 201.027 173.192 200.818 173.414C200.612 173.634 200.353 173.806 200.04 173.929C199.73 174.05 199.376 174.11 198.979 174.11Z" fill="black"/>
<circle cx="184" cy="230" r="10.5" fill="#FFFEFB" stroke="black" stroke-linejoin="round"/>
<path d="M178.283 227.551C178.361 227.084 178.661 226.545 179.184 225.934C179.706 225.322 180.351 225.011 181.118 225C181.507 225 181.862 225.1 182.185 225.3C182.507 225.5 182.746 225.75 182.902 226.05C183.368 225.35 183.93 225 184.585 225C184.997 225 185.352 225.122 185.652 225.367C185.952 225.611 186.108 225.939 186.119 226.35C186.119 226.673 186.041 226.934 185.886 227.134C185.73 227.334 185.58 227.456 185.436 227.501C185.291 227.545 185.163 227.567 185.052 227.567C184.841 227.567 184.669 227.506 184.535 227.384C184.402 227.262 184.335 227.101 184.335 226.901C184.335 226.389 184.613 226.039 185.169 225.85C185.047 225.706 184.824 225.634 184.502 225.634C184.358 225.634 184.252 225.645 184.185 225.667C183.763 225.845 183.452 226.212 183.252 226.767C182.585 229.224 182.251 230.657 182.251 231.069C182.251 231.38 182.34 231.602 182.518 231.735C182.696 231.869 182.89 231.936 183.102 231.936C183.513 231.936 183.918 231.752 184.319 231.385C184.719 231.019 184.991 230.568 185.136 230.035C185.169 229.924 185.202 229.863 185.236 229.852C185.269 229.84 185.358 229.829 185.502 229.818H185.569C185.736 229.818 185.819 229.863 185.819 229.952C185.819 229.963 185.808 230.024 185.786 230.135C185.608 230.768 185.263 231.33 184.752 231.819C184.241 232.308 183.646 232.552 182.968 232.552C182.19 232.552 181.601 232.202 181.201 231.502C180.745 232.191 180.223 232.536 179.634 232.536H179.534C178.989 232.536 178.6 232.391 178.367 232.102C178.133 231.813 178.011 231.508 178 231.185C178 230.83 178.106 230.541 178.317 230.318C178.528 230.096 178.778 229.985 179.067 229.985C179.545 229.985 179.784 230.218 179.784 230.685C179.784 230.907 179.717 231.102 179.584 231.269C179.45 231.435 179.323 231.547 179.2 231.602C179.078 231.658 179.006 231.685 178.984 231.685L178.934 231.702C178.934 231.713 178.967 231.735 179.034 231.769C179.1 231.802 179.189 231.841 179.3 231.885C179.412 231.93 179.517 231.947 179.617 231.936C180.017 231.936 180.362 231.685 180.651 231.185C180.751 231.007 180.879 230.63 181.034 230.052C181.19 229.474 181.345 228.873 181.501 228.251C181.657 227.629 181.746 227.262 181.768 227.151C181.823 226.851 181.851 226.634 181.851 226.5C181.851 226.189 181.768 225.967 181.601 225.834C181.434 225.7 181.245 225.634 181.034 225.634C180.59 225.634 180.173 225.811 179.784 226.167C179.395 226.523 179.123 226.978 178.967 227.534C178.945 227.634 178.917 227.69 178.884 227.701C178.85 227.712 178.761 227.723 178.617 227.734H178.383C178.317 227.668 178.283 227.606 178.283 227.551Z" fill="black"/>
<path d="M188.332 234.174C188.332 234.434 188.43 234.563 188.626 234.563C188.917 234.563 189.165 234.151 189.369 233.326C189.416 233.168 189.455 233.086 189.487 233.078C189.503 233.07 189.542 233.066 189.605 233.066H189.652C189.723 233.066 189.77 233.066 189.793 233.066C189.817 233.066 189.837 233.074 189.852 233.09C189.868 233.106 189.876 233.133 189.876 233.172C189.868 233.22 189.856 233.282 189.841 233.361C189.825 233.44 189.782 233.589 189.711 233.809C189.64 234.029 189.562 234.214 189.475 234.363C189.389 234.512 189.267 234.658 189.11 234.799C188.953 234.94 188.772 235.007 188.568 234.999C188.285 234.999 188.021 234.913 187.778 234.74C187.534 234.567 187.408 234.276 187.401 233.868C187.401 233.774 187.405 233.707 187.412 233.667L188.179 230.626C188.674 228.623 188.921 227.589 188.921 227.526C188.921 227.503 188.917 227.483 188.909 227.467C188.902 227.452 188.886 227.436 188.862 227.42C188.839 227.405 188.819 227.397 188.803 227.397C188.788 227.397 188.756 227.393 188.709 227.385C188.662 227.377 188.63 227.373 188.615 227.373C188.599 227.373 188.564 227.369 188.509 227.361C188.454 227.354 188.414 227.354 188.391 227.361C188.312 227.361 188.261 227.361 188.238 227.361C188.214 227.361 188.183 227.357 188.143 227.35C188.104 227.342 188.08 227.33 188.072 227.314C188.065 227.299 188.061 227.275 188.061 227.244C188.061 227.228 188.069 227.173 188.084 227.079C188.124 226.929 188.167 226.847 188.214 226.831C188.261 226.815 188.544 226.792 189.063 226.76C189.18 226.752 189.314 226.745 189.463 226.737C189.613 226.729 189.731 226.717 189.817 226.701C189.903 226.686 189.947 226.682 189.947 226.69C190.041 226.69 190.088 226.721 190.088 226.784C190.088 226.87 189.801 228.049 189.228 230.32C188.654 232.591 188.359 233.781 188.344 233.891C188.344 233.907 188.344 233.939 188.344 233.986C188.344 234.033 188.34 234.072 188.332 234.104V234.174Z" fill="black"/>
<circle cx="184" cy="44" r="10.5" fill="#FFFEFB" stroke="black" stroke-linejoin="round"/>
<path d="M179 41.396C179 41.2517 179.077 41.0044 179.232 40.6541C179.386 40.3038 179.634 39.938 179.974 39.5568C180.314 39.1756 180.695 38.9901 181.117 39.0004C181.54 39.0004 181.88 39.1189 182.137 39.3559C182.395 39.5929 182.529 39.9226 182.539 40.345C182.519 40.5408 182.503 40.649 182.493 40.6696C182.493 40.7005 182.41 40.9375 182.246 41.3805C182.081 41.8236 181.911 42.3233 181.736 42.8797C181.56 43.4361 181.478 43.8791 181.488 44.2089C181.488 44.6519 181.56 44.961 181.705 45.1362C181.849 45.3113 182.065 45.4041 182.354 45.4144C182.591 45.4144 182.812 45.3577 183.018 45.2444C183.224 45.131 183.384 45.0125 183.497 44.8889C183.611 44.7652 183.75 44.5952 183.915 44.3789C183.915 44.3686 183.941 44.2655 183.992 44.0698C184.044 43.874 184.116 43.57 184.208 43.1579C184.301 42.7457 184.399 42.3645 184.502 42.0142C184.894 40.4687 185.11 39.6598 185.151 39.5877C185.285 39.3095 185.507 39.1704 185.816 39.1704C185.95 39.1704 186.058 39.2065 186.14 39.2786C186.223 39.3507 186.279 39.4125 186.31 39.4641C186.341 39.5156 186.352 39.5619 186.341 39.6032C186.341 39.7371 186.089 40.819 185.584 42.8488C185.079 44.8786 184.791 45.9914 184.718 46.1871C184.43 47.0423 183.93 47.7224 183.219 48.2272C182.508 48.7321 181.797 48.9897 181.086 49C180.623 49 180.216 48.8867 179.865 48.66C179.515 48.4333 179.34 48.0933 179.34 47.6399C179.34 47.4133 179.376 47.2226 179.448 47.0681C179.52 46.9135 179.618 46.8002 179.742 46.7281C179.865 46.6559 179.969 46.6044 180.051 46.5735C180.133 46.5426 180.221 46.5271 180.314 46.5271C180.767 46.5271 180.994 46.7435 180.994 47.1763C180.994 47.3823 180.932 47.5627 180.808 47.7172C180.685 47.8718 180.566 47.9748 180.453 48.0263C180.339 48.0778 180.272 48.1036 180.252 48.1036L180.206 48.119C180.226 48.1706 180.324 48.2324 180.499 48.3045C180.674 48.3766 180.849 48.4127 181.025 48.4127H181.148C181.323 48.4127 181.457 48.4024 181.55 48.3818C181.89 48.2891 182.204 48.0933 182.493 47.7945C182.781 47.4957 183.003 47.1763 183.157 46.8363C183.312 46.4962 183.431 46.2077 183.513 45.9708C183.595 45.7338 183.637 45.5792 183.637 45.5071L183.544 45.5689C183.482 45.6101 183.384 45.6668 183.25 45.7389C183.116 45.8111 182.982 45.8729 182.848 45.9244C182.642 45.9759 182.441 46.0017 182.246 46.0017C181.772 46.0017 181.354 45.8883 180.994 45.6617C180.633 45.435 180.396 45.0692 180.283 44.5643C180.272 44.4922 180.267 44.3325 180.267 44.0852C180.267 43.4979 180.448 42.7303 180.808 41.7824C181.169 40.8344 181.349 40.2317 181.349 39.9741C181.349 39.9638 181.349 39.9535 181.349 39.9432C181.349 39.8504 181.349 39.7886 181.349 39.7577C181.349 39.7268 181.329 39.6907 181.287 39.6495C181.246 39.6083 181.19 39.5877 181.117 39.5877H181.056C180.819 39.5877 180.602 39.6856 180.406 39.8814C180.211 40.0771 180.056 40.2883 179.943 40.515C179.829 40.7417 179.742 40.9581 179.68 41.1642C179.618 41.3702 179.577 41.4836 179.556 41.5042C179.536 41.5248 179.453 41.5351 179.309 41.5351H179.093C179.031 41.4733 179 41.4269 179 41.396Z" fill="black"/>
<path d="M187.527 47.5053C187.527 47.7457 187.618 47.8659 187.8 47.8659C188.07 47.8659 188.299 47.4834 188.489 46.7186C188.532 46.5729 188.569 46.4964 188.598 46.4891C188.612 46.4818 188.649 46.4782 188.707 46.4782H188.751C188.816 46.4782 188.86 46.4782 188.882 46.4782C188.904 46.4782 188.922 46.4854 188.937 46.5C188.951 46.5146 188.958 46.5401 188.958 46.5765C188.951 46.6202 188.94 46.6785 188.926 46.7513C188.911 46.8242 188.871 46.9626 188.805 47.1666C188.74 47.3705 188.667 47.5417 188.587 47.6801C188.507 47.8185 188.394 47.9533 188.248 48.0844C188.103 48.2155 187.935 48.2775 187.746 48.2702C187.483 48.2702 187.239 48.19 187.013 48.0298C186.788 47.8695 186.671 47.6 186.664 47.2212C186.664 47.1338 186.667 47.0719 186.675 47.0354L187.385 44.2163C187.844 42.3587 188.073 41.4008 188.073 41.3425C188.073 41.3207 188.07 41.3024 188.062 41.2879C188.055 41.2733 188.041 41.2587 188.019 41.2442C187.997 41.2296 187.979 41.2223 187.964 41.2223C187.95 41.2223 187.92 41.2187 187.877 41.2114C187.833 41.2041 187.804 41.2005 187.789 41.2005C187.775 41.2005 187.742 41.1968 187.691 41.1895C187.64 41.1823 187.604 41.1823 187.582 41.1895C187.509 41.1895 187.461 41.1895 187.44 41.1895C187.418 41.1895 187.389 41.1859 187.352 41.1786C187.316 41.1713 187.294 41.1604 187.287 41.1458C187.279 41.1313 187.276 41.1094 187.276 41.0803C187.276 41.0657 187.283 41.0147 187.298 40.9273C187.334 40.7889 187.374 40.7124 187.418 40.6978C187.461 40.6833 187.724 40.6614 188.205 40.6323C188.314 40.625 188.438 40.6177 188.576 40.6104C188.714 40.6031 188.824 40.5922 188.904 40.5776C188.984 40.5631 189.024 40.5594 189.024 40.5667C189.111 40.5667 189.155 40.5958 189.155 40.6541C189.155 40.7342 188.889 41.8269 188.357 43.9322C187.826 46.0374 187.553 47.1411 187.538 47.243C187.538 47.2576 187.538 47.2868 187.538 47.3305C187.538 47.3742 187.534 47.4106 187.527 47.4397V47.5053Z" fill="black"/>
<circle cx="184" cy="102" r="8.5" fill="#FFFEFB" stroke="black" stroke-linejoin="round"/>
<path d="M181.428 102.778C181.294 102.778 181.108 102.778 180.871 102.778C180.633 102.778 180.455 102.785 180.336 102.8C179.891 102.8 179.557 102.748 179.334 102.644C179.111 102.541 179 102.326 179 102C179 101.674 179.111 101.459 179.334 101.356C179.557 101.252 179.891 101.2 180.336 101.2C180.44 101.2 180.611 101.2 180.849 101.2C181.086 101.2 181.279 101.207 181.428 101.222H183.209V99.4L183.232 97.5778C183.425 97.1926 183.677 97 183.989 97C184.078 97 184.16 97.0074 184.234 97.0222C184.308 97.037 184.375 97.0741 184.434 97.1333C184.494 97.1926 184.531 97.237 184.546 97.2667C184.561 97.2963 184.605 97.3556 184.679 97.4444L184.768 97.5778V101.222H186.55H187.731C188.131 101.222 188.406 101.244 188.555 101.289C188.703 101.333 188.822 101.459 188.911 101.667C188.97 101.785 189 101.896 189 102C189 102.163 188.948 102.311 188.844 102.444C188.74 102.578 188.614 102.674 188.465 102.733C188.376 102.763 187.738 102.778 186.55 102.778H184.768V106.422C184.531 106.807 184.271 107 183.989 107C183.811 107 183.662 106.956 183.543 106.867C183.425 106.778 183.336 106.681 183.276 106.578L183.232 106.422L183.209 104.6V102.778H181.428Z" fill="black"/>
<path d="M138.5 215.5H138V216H138.5V215.5ZM138.5 102V101.5H138V102H138.5ZM175 102L170 99.1132V104.887L175 102ZM183.5 215.5V215H138.5V215.5V216H183.5V215.5ZM138.5 215.5H139V102H138.5H138V215.5H138.5ZM138.5 102V102.5H170.5V102V101.5H138.5V102Z" fill="black"/>
<rect x="264.5" y="30.5" width="99" height="218" rx="2.5" fill="#FFFAF0" stroke="black"/>
<rect x="271.5" y="189.5" width="85" height="17" fill="#FFFFCB" stroke="black" stroke-linejoin="round"/>
<path d="M307.583 194.727V202H306.575L302.878 196.666H302.81V202H301.713V194.727H302.729L306.429 200.068H306.496V194.727H307.583ZM311.396 202.11C310.885 202.11 310.439 201.993 310.057 201.759C309.676 201.524 309.38 201.196 309.17 200.775C308.959 200.353 308.854 199.861 308.854 199.298C308.854 198.732 308.959 198.237 309.17 197.813C309.38 197.389 309.676 197.06 310.057 196.826C310.439 196.592 310.885 196.474 311.396 196.474C311.907 196.474 312.354 196.592 312.735 196.826C313.116 197.06 313.412 197.389 313.623 197.813C313.833 198.237 313.939 198.732 313.939 199.298C313.939 199.861 313.833 200.353 313.623 200.775C313.412 201.196 313.116 201.524 312.735 201.759C312.354 201.993 311.907 202.11 311.396 202.11ZM311.4 201.219C311.731 201.219 312.006 201.131 312.224 200.956C312.441 200.781 312.602 200.548 312.706 200.256C312.813 199.965 312.866 199.644 312.866 199.294C312.866 198.946 312.813 198.626 312.706 198.335C312.602 198.042 312.441 197.806 312.224 197.629C312.006 197.451 311.731 197.362 311.4 197.362C311.066 197.362 310.789 197.451 310.569 197.629C310.351 197.806 310.189 198.042 310.082 198.335C309.978 198.626 309.926 198.946 309.926 199.294C309.926 199.644 309.978 199.965 310.082 200.256C310.189 200.548 310.351 200.781 310.569 200.956C310.789 201.131 311.066 201.219 311.4 201.219ZM315.124 202V196.545H316.15V197.412H316.207C316.306 197.118 316.482 196.888 316.733 196.719C316.986 196.549 317.272 196.464 317.592 196.464C317.658 196.464 317.736 196.466 317.826 196.471C317.919 196.476 317.991 196.482 318.043 196.489V197.504C318 197.492 317.925 197.479 317.816 197.465C317.707 197.449 317.598 197.44 317.489 197.44C317.238 197.44 317.014 197.494 316.818 197.6C316.624 197.704 316.47 197.85 316.356 198.037C316.243 198.222 316.186 198.432 316.186 198.669V202H315.124ZM318.962 202V196.545H319.981V197.433H320.048C320.162 197.133 320.348 196.898 320.606 196.73C320.864 196.56 321.173 196.474 321.533 196.474C321.897 196.474 322.203 196.56 322.449 196.73C322.698 196.901 322.881 197.135 322.999 197.433H323.056C323.186 197.142 323.394 196.91 323.678 196.737C323.962 196.562 324.3 196.474 324.693 196.474C325.188 196.474 325.592 196.629 325.904 196.94C326.219 197.25 326.377 197.717 326.377 198.342V202H325.315V198.442C325.315 198.072 325.214 197.805 325.013 197.639C324.812 197.473 324.571 197.391 324.292 197.391C323.946 197.391 323.678 197.497 323.486 197.71C323.294 197.921 323.198 198.192 323.198 198.523V202H322.14V198.374C322.14 198.078 322.048 197.84 321.863 197.661C321.678 197.481 321.438 197.391 321.142 197.391C320.941 197.391 320.755 197.444 320.585 197.55C320.417 197.655 320.28 197.8 320.176 197.987C320.075 198.174 320.024 198.391 320.024 198.637V202H318.962Z" fill="black"/>
<path d="M314 207L311.113 212L316.887 212L314 207ZM314 219L314.5 219L314.5 211.5L314 211.5L313.5 211.5L313.5 219L314 219Z" fill="black"/>
<path d="M314 139L316.887 144L311.113 144L314 139ZM314 149L313.5 149L313.5 143.5L314 143.5L314.5 143.5L314.5 149L314 149Z" fill="black"/>
<path d="M314 179L316.887 184L311.113 184L314 179ZM314 189L313.5 189L313.5 183.5L314 183.5L314.5 183.5L314.5 189L314 189Z" fill="black"/>
<rect x="271.5" y="121.5" width="85" height="17" fill="#FFFFCB" stroke="black" stroke-linejoin="round"/>
<path d="M307.583 126.727V134H306.575L302.878 128.666H302.81V134H301.713V126.727H302.729L306.429 132.068H306.496V126.727H307.583ZM311.396 134.11C310.885 134.11 310.439 133.993 310.057 133.759C309.676 133.524 309.38 133.196 309.17 132.775C308.959 132.353 308.854 131.861 308.854 131.298C308.854 130.732 308.959 130.237 309.17 129.813C309.38 129.389 309.676 129.06 310.057 128.826C310.439 128.592 310.885 128.474 311.396 128.474C311.907 128.474 312.354 128.592 312.735 128.826C313.116 129.06 313.412 129.389 313.623 129.813C313.833 130.237 313.939 130.732 313.939 131.298C313.939 131.861 313.833 132.353 313.623 132.775C313.412 133.196 313.116 133.524 312.735 133.759C312.354 133.993 311.907 134.11 311.396 134.11ZM311.4 133.219C311.731 133.219 312.006 133.131 312.224 132.956C312.441 132.781 312.602 132.548 312.706 132.256C312.813 131.965 312.866 131.644 312.866 131.294C312.866 130.946 312.813 130.626 312.706 130.335C312.602 130.042 312.441 129.806 312.224 129.629C312.006 129.451 311.731 129.362 311.4 129.362C311.066 129.362 310.789 129.451 310.569 129.629C310.351 129.806 310.189 130.042 310.082 130.335C309.978 130.626 309.926 130.946 309.926 131.294C309.926 131.644 309.978 131.965 310.082 132.256C310.189 132.548 310.351 132.781 310.569 132.956C310.789 133.131 311.066 133.219 311.4 133.219ZM315.124 134V128.545H316.15V129.412H316.207C316.306 129.118 316.482 128.888 316.733 128.719C316.986 128.549 317.272 128.464 317.592 128.464C317.658 128.464 317.736 128.466 317.826 128.471C317.919 128.476 317.991 128.482 318.043 128.489V129.504C318 129.492 317.925 129.479 317.816 129.465C317.707 129.449 317.598 129.44 317.489 129.44C317.238 129.44 317.014 129.494 316.818 129.6C316.624 129.704 316.47 129.85 316.356 130.037C316.243 130.222 316.186 130.432 316.186 130.669V134H315.124ZM318.962 134V128.545H319.981V129.433H320.048C320.162 129.133 320.348 128.898 320.606 128.73C320.864 128.56 321.173 128.474 321.533 128.474C321.897 128.474 322.203 128.56 322.449 128.73C322.698 128.901 322.881 129.135 322.999 129.433H323.056C323.186 129.142 323.394 128.91 323.678 128.737C323.962 128.562 324.3 128.474 324.693 128.474C325.188 128.474 325.592 128.629 325.904 128.94C326.219 129.25 326.377 129.717 326.377 130.342V134H325.315V130.442C325.315 130.072 325.214 129.805 325.013 129.639C324.812 129.473 324.571 129.391 324.292 129.391C323.946 129.391 323.678 129.497 323.486 129.71C323.294 129.921 323.198 130.192 323.198 130.523V134H322.14V130.374C322.14 130.078 322.048 129.84 321.863 129.661C321.678 129.481 321.438 129.391 321.142 129.391C320.941 129.391 320.755 129.444 320.585 129.55C320.417 129.655 320.28 129.8 320.176 129.987C320.075 130.174 320.024 130.391 320.024 130.637V134H318.962Z" fill="black"/>
<path d="M314 111L316.887 116L311.113 116L314 111ZM314 121L313.5 121L313.5 115.5L314 115.5L314.5 115.5L314.5 121L314 121Z" fill="black"/>
<path d="M314 21L311.113 26L316.887 26L314 21ZM314 33L314.5 33L314.5 25.5L314 25.5L313.5 25.5L313.5 33L314 33Z" fill="black"/>
<path d="M314 241L311.113 246L316.887 246L314 241ZM314 253L314.5 253L314.5 245.5L314 245.5L313.5 245.5L313.5 253L314 253Z" fill="black"/>
<path d="M314 55L311.113 60L316.887 60L314 55ZM314 93L314.5 93L314.5 59.5L314 59.5L313.5 59.5L313.5 93L314 93Z" fill="black"/>
<rect x="271.5" y="149.5" width="85" height="29" fill="#C5C5FB" stroke="black" stroke-linejoin="round"/>
<path d="M276.19 162H275.025L277.642 154.727H278.91L281.527 162H280.362L278.306 156.048H278.249L276.19 162ZM276.385 159.152H280.163V160.075H276.385V159.152ZM284.696 156.545V157.398H281.717V156.545H284.696ZM282.516 155.239H283.578V160.398C283.578 160.604 283.609 160.759 283.67 160.864C283.732 160.965 283.811 161.035 283.908 161.073C284.008 161.109 284.115 161.126 284.231 161.126C284.316 161.126 284.391 161.121 284.455 161.109C284.519 161.097 284.569 161.087 284.604 161.08L284.796 161.957C284.734 161.981 284.647 162.005 284.533 162.028C284.419 162.054 284.277 162.069 284.107 162.071C283.828 162.076 283.567 162.026 283.326 161.922C283.084 161.818 282.889 161.657 282.74 161.439C282.591 161.221 282.516 160.948 282.516 160.619V155.239ZM288.417 156.545V157.398H285.438V156.545H288.417ZM286.237 155.239H287.299V160.398C287.299 160.604 287.329 160.759 287.391 160.864C287.452 160.965 287.532 161.035 287.629 161.073C287.728 161.109 287.836 161.126 287.952 161.126C288.037 161.126 288.112 161.121 288.176 161.109C288.24 161.097 288.289 161.087 288.325 161.08L288.517 161.957C288.455 161.981 288.367 162.005 288.254 162.028C288.14 162.054 287.998 162.069 287.828 162.071C287.548 162.076 287.288 162.026 287.046 161.922C286.805 161.818 286.61 161.657 286.46 161.439C286.311 161.221 286.237 160.948 286.237 160.619V155.239ZM291.884 162.11C291.347 162.11 290.884 161.995 290.495 161.766C290.11 161.534 289.811 161.208 289.601 160.789C289.392 160.368 289.288 159.874 289.288 159.308C289.288 158.75 289.392 158.257 289.601 157.831C289.811 157.405 290.105 157.072 290.481 156.833C290.86 156.594 291.303 156.474 291.809 156.474C292.117 156.474 292.415 156.525 292.704 156.627C292.993 156.729 293.252 156.889 293.482 157.107C293.712 157.324 293.893 157.607 294.025 157.955C294.158 158.301 294.224 158.721 294.224 159.216V159.592H289.888V158.797H293.184C293.184 158.518 293.127 158.27 293.013 158.055C292.9 157.837 292.74 157.665 292.534 157.54C292.33 157.414 292.091 157.352 291.816 157.352C291.518 157.352 291.258 157.425 291.035 157.572C290.815 157.716 290.645 157.906 290.524 158.14C290.406 158.372 290.346 158.624 290.346 158.896V159.518C290.346 159.882 290.41 160.192 290.538 160.448C290.668 160.704 290.849 160.899 291.081 161.034C291.313 161.167 291.584 161.233 291.895 161.233C292.096 161.233 292.279 161.205 292.445 161.148C292.611 161.089 292.754 161.001 292.875 160.885C292.995 160.769 293.088 160.626 293.152 160.455L294.157 160.636C294.076 160.932 293.932 161.192 293.723 161.414C293.517 161.634 293.258 161.806 292.946 161.929C292.636 162.05 292.282 162.11 291.884 162.11ZM296.464 158.761V162H295.402V156.545H296.421V157.433H296.489C296.614 157.144 296.811 156.912 297.078 156.737C297.348 156.562 297.688 156.474 298.098 156.474C298.469 156.474 298.795 156.553 299.074 156.709C299.353 156.863 299.57 157.092 299.724 157.398C299.878 157.703 299.955 158.081 299.955 158.531V162H298.893V158.658C298.893 158.263 298.79 157.954 298.584 157.732C298.378 157.507 298.095 157.394 297.735 157.394C297.489 157.394 297.27 157.447 297.078 157.554C296.889 157.661 296.739 157.817 296.627 158.023C296.518 158.226 296.464 158.473 296.464 158.761ZM303.925 156.545V157.398H300.946V156.545H303.925ZM301.745 155.239H302.806V160.398C302.806 160.604 302.837 160.759 302.899 160.864C302.96 160.965 303.04 161.035 303.137 161.073C303.236 161.109 303.344 161.126 303.46 161.126C303.545 161.126 303.62 161.121 303.684 161.109C303.747 161.097 303.797 161.087 303.833 161.08L304.024 161.957C303.963 161.981 303.875 162.005 303.762 162.028C303.648 162.054 303.506 162.069 303.335 162.071C303.056 162.076 302.796 162.026 302.554 161.922C302.313 161.818 302.117 161.657 301.968 161.439C301.819 161.221 301.745 160.948 301.745 160.619V155.239ZM305.1 162V156.545H306.161V162H305.1ZM305.636 155.704C305.451 155.704 305.292 155.642 305.16 155.519C305.03 155.394 304.965 155.245 304.965 155.072C304.965 154.897 305.03 154.747 305.16 154.624C305.292 154.499 305.451 154.436 305.636 154.436C305.82 154.436 305.978 154.499 306.108 154.624C306.241 154.747 306.307 154.897 306.307 155.072C306.307 155.245 306.241 155.394 306.108 155.519C305.978 155.642 305.82 155.704 305.636 155.704ZM309.887 162.11C309.376 162.11 308.93 161.993 308.549 161.759C308.167 161.524 307.871 161.196 307.661 160.775C307.45 160.353 307.345 159.861 307.345 159.298C307.345 158.732 307.45 158.237 307.661 157.813C307.871 157.389 308.167 157.06 308.549 156.826C308.93 156.592 309.376 156.474 309.887 156.474C310.399 156.474 310.845 156.592 311.226 156.826C311.607 157.06 311.903 157.389 312.114 157.813C312.325 158.237 312.43 158.732 312.43 159.298C312.43 159.861 312.325 160.353 312.114 160.775C311.903 161.196 311.607 161.524 311.226 161.759C310.845 161.993 310.399 162.11 309.887 162.11ZM309.891 161.219C310.222 161.219 310.497 161.131 310.715 160.956C310.933 160.781 311.094 160.548 311.198 160.256C311.304 159.965 311.358 159.644 311.358 159.294C311.358 158.946 311.304 158.626 311.198 158.335C311.094 158.042 310.933 157.806 310.715 157.629C310.497 157.451 310.222 157.362 309.891 157.362C309.557 157.362 309.28 157.451 309.06 157.629C308.842 157.806 308.68 158.042 308.573 158.335C308.469 158.626 308.417 158.946 308.417 159.294C308.417 159.644 308.469 159.965 308.573 160.256C308.68 160.548 308.842 160.781 309.06 160.956C309.28 161.131 309.557 161.219 309.891 161.219ZM314.677 158.761V162H313.615V156.545H314.634V157.433H314.702C314.827 157.144 315.024 156.912 315.291 156.737C315.561 156.562 315.901 156.474 316.31 156.474C316.682 156.474 317.008 156.553 317.287 156.709C317.566 156.863 317.783 157.092 317.937 157.398C318.091 157.703 318.168 158.081 318.168 158.531V162H317.106V158.658C317.106 158.263 317.003 157.954 316.797 157.732C316.591 157.507 316.308 157.394 315.948 157.394C315.702 157.394 315.483 157.447 315.291 157.554C315.102 157.661 314.952 157.817 314.84 158.023C314.731 158.226 314.677 158.473 314.677 158.761ZM324.536 162.11C324.024 162.11 323.578 161.993 323.197 161.759C322.816 161.524 322.52 161.196 322.309 160.775C322.099 160.353 321.993 159.861 321.993 159.298C321.993 158.732 322.099 158.237 322.309 157.813C322.52 157.389 322.816 157.06 323.197 156.826C323.578 156.592 324.024 156.474 324.536 156.474C325.047 156.474 325.493 156.592 325.875 156.826C326.256 157.06 326.552 157.389 326.762 157.813C326.973 158.237 327.078 158.732 327.078 159.298C327.078 159.861 326.973 160.353 326.762 160.775C326.552 161.196 326.256 161.524 325.875 161.759C325.493 161.993 325.047 162.11 324.536 162.11ZM324.539 161.219C324.871 161.219 325.145 161.131 325.363 160.956C325.581 160.781 325.742 160.548 325.846 160.256C325.953 159.965 326.006 159.644 326.006 159.294C326.006 158.946 325.953 158.626 325.846 158.335C325.742 158.042 325.581 157.806 325.363 157.629C325.145 157.451 324.871 157.362 324.539 157.362C324.206 157.362 323.929 157.451 323.708 157.629C323.491 157.806 323.328 158.042 323.222 158.335C323.118 158.626 323.066 158.946 323.066 159.294C323.066 159.644 323.118 159.965 323.222 160.256C323.328 160.548 323.491 160.781 323.708 160.956C323.929 161.131 324.206 161.219 324.539 161.219ZM328.264 162V156.545H329.29V157.412H329.347C329.446 157.118 329.621 156.888 329.872 156.719C330.126 156.549 330.412 156.464 330.732 156.464C330.798 156.464 330.876 156.466 330.966 156.471C331.058 156.476 331.131 156.482 331.183 156.489V157.504C331.14 157.492 331.064 157.479 330.955 157.465C330.846 157.449 330.738 157.44 330.629 157.44C330.378 157.44 330.154 157.494 329.957 157.6C329.763 157.704 329.609 157.85 329.496 158.037C329.382 158.222 329.325 158.432 329.325 158.669V162H328.264ZM334.833 162V154.727H339.343V155.672H335.93V157.888H339.02V158.829H335.93V162H334.833ZM340.693 162V154.727H345.203V155.672H341.79V157.888H344.879V158.829H341.79V162H340.693ZM352.422 154.727V162H351.413L347.717 156.666H347.649V162H346.552V154.727H347.568L351.268 160.068H351.335V154.727H352.422ZM297.016 166.727H298.347L300.663 172.381H300.748L303.063 166.727H304.395V174H303.351V168.737H303.284L301.139 173.989H300.272L298.127 168.734H298.06V174H297.016V166.727ZM308.203 174.11C307.691 174.11 307.245 173.993 306.864 173.759C306.483 173.524 306.187 173.196 305.976 172.775C305.766 172.353 305.66 171.861 305.66 171.298C305.66 170.732 305.766 170.237 305.976 169.813C306.187 169.389 306.483 169.06 306.864 168.826C307.245 168.592 307.691 168.474 308.203 168.474C308.714 168.474 309.16 168.592 309.542 168.826C309.923 169.06 310.219 169.389 310.429 169.813C310.64 170.237 310.745 170.732 310.745 171.298C310.745 171.861 310.64 172.353 310.429 172.775C310.219 173.196 309.923 173.524 309.542 173.759C309.16 173.993 308.714 174.11 308.203 174.11ZM308.206 173.219C308.538 173.219 308.812 173.131 309.03 172.956C309.248 172.781 309.409 172.548 309.513 172.256C309.62 171.965 309.673 171.644 309.673 171.294C309.673 170.946 309.62 170.626 309.513 170.335C309.409 170.042 309.248 169.806 309.03 169.629C308.812 169.451 308.538 169.362 308.206 169.362C307.873 169.362 307.596 169.451 307.375 169.629C307.158 169.806 306.995 170.042 306.889 170.335C306.785 170.626 306.733 170.946 306.733 171.294C306.733 171.644 306.785 171.965 306.889 172.256C306.995 172.548 307.158 172.781 307.375 172.956C307.596 173.131 307.873 173.219 308.206 173.219ZM313.972 174.107C313.532 174.107 313.139 173.994 312.794 173.769C312.45 173.542 312.18 173.219 311.984 172.8C311.79 172.378 311.693 171.873 311.693 171.283C311.693 170.694 311.791 170.19 311.987 169.771C312.186 169.352 312.459 169.031 312.804 168.808C313.15 168.586 313.542 168.474 313.98 168.474C314.318 168.474 314.59 168.531 314.796 168.645C315.005 168.756 315.166 168.886 315.279 169.036C315.395 169.185 315.485 169.316 315.549 169.43H315.613V166.727H316.675V174H315.638V173.151H315.549C315.485 173.267 315.393 173.4 315.272 173.549C315.154 173.698 314.99 173.828 314.782 173.94C314.574 174.051 314.304 174.107 313.972 174.107ZM314.207 173.201C314.512 173.201 314.77 173.121 314.981 172.96C315.194 172.796 315.355 172.57 315.464 172.281C315.575 171.992 315.631 171.656 315.631 171.273C315.631 170.894 315.576 170.562 315.468 170.278C315.359 169.994 315.199 169.773 314.988 169.614C314.777 169.456 314.517 169.376 314.207 169.376C313.887 169.376 313.621 169.459 313.408 169.625C313.195 169.791 313.034 170.017 312.925 170.303C312.818 170.59 312.765 170.913 312.765 171.273C312.765 171.637 312.82 171.965 312.928 172.256C313.037 172.548 313.198 172.778 313.411 172.949C313.627 173.117 313.892 173.201 314.207 173.201ZM321.646 171.738V168.545H322.711V174H321.667V173.055H321.61C321.485 173.347 321.283 173.589 321.006 173.783C320.732 173.975 320.39 174.071 319.98 174.071C319.63 174.071 319.32 173.994 319.05 173.84C318.782 173.684 318.571 173.453 318.418 173.148C318.266 172.842 318.19 172.465 318.19 172.015V168.545H319.252V171.887C319.252 172.259 319.355 172.555 319.561 172.775C319.767 172.995 320.035 173.105 320.364 173.105C320.563 173.105 320.76 173.055 320.957 172.956C321.156 172.857 321.32 172.706 321.45 172.505C321.583 172.304 321.648 172.048 321.646 171.738ZM325.199 166.727V174H324.138V166.727H325.199ZM328.979 174.11C328.441 174.11 327.978 173.995 327.59 173.766C327.204 173.534 326.906 173.208 326.695 172.789C326.487 172.368 326.383 171.874 326.383 171.308C326.383 170.75 326.487 170.257 326.695 169.831C326.906 169.405 327.2 169.072 327.576 168.833C327.955 168.594 328.397 168.474 328.904 168.474C329.212 168.474 329.51 168.525 329.799 168.627C330.088 168.729 330.347 168.889 330.577 169.107C330.806 169.324 330.987 169.607 331.12 169.955C331.253 170.301 331.319 170.721 331.319 171.216V171.592H326.983V170.797H330.278C330.278 170.518 330.222 170.27 330.108 170.055C329.994 169.837 329.835 169.665 329.629 169.54C329.425 169.414 329.186 169.352 328.911 169.352C328.613 169.352 328.353 169.425 328.13 169.572C327.91 169.716 327.739 169.906 327.619 170.14C327.5 170.372 327.441 170.624 327.441 170.896V171.518C327.441 171.882 327.505 172.192 327.633 172.448C327.763 172.704 327.944 172.899 328.176 173.034C328.408 173.167 328.679 173.233 328.989 173.233C329.191 173.233 329.374 173.205 329.54 173.148C329.705 173.089 329.849 173.001 329.969 172.885C330.09 172.769 330.183 172.626 330.246 172.455L331.251 172.636C331.171 172.932 331.027 173.192 330.818 173.414C330.612 173.634 330.353 173.806 330.04 173.929C329.73 174.05 329.376 174.11 328.979 174.11Z" fill="black"/>
<circle cx="314" cy="230" r="10.5" fill="#FFFEFB" stroke="black" stroke-linejoin="round"/>
<path d="M308.283 227.551C308.361 227.084 308.661 226.545 309.184 225.934C309.706 225.322 310.351 225.011 311.118 225C311.507 225 311.862 225.1 312.185 225.3C312.507 225.5 312.746 225.75 312.902 226.05C313.368 225.35 313.93 225 314.585 225C314.997 225 315.352 225.122 315.652 225.367C315.952 225.611 316.108 225.939 316.119 226.35C316.119 226.673 316.041 226.934 315.886 227.134C315.73 227.334 315.58 227.456 315.436 227.501C315.291 227.545 315.163 227.567 315.052 227.567C314.841 227.567 314.669 227.506 314.535 227.384C314.402 227.262 314.335 227.101 314.335 226.901C314.335 226.389 314.613 226.039 315.169 225.85C315.047 225.706 314.824 225.634 314.502 225.634C314.358 225.634 314.252 225.645 314.185 225.667C313.763 225.845 313.452 226.212 313.252 226.767C312.585 229.224 312.251 230.657 312.251 231.069C312.251 231.38 312.34 231.602 312.518 231.735C312.696 231.869 312.89 231.936 313.102 231.936C313.513 231.936 313.918 231.752 314.319 231.385C314.719 231.019 314.991 230.568 315.136 230.035C315.169 229.924 315.202 229.863 315.236 229.852C315.269 229.84 315.358 229.829 315.502 229.818H315.569C315.736 229.818 315.819 229.863 315.819 229.952C315.819 229.963 315.808 230.024 315.786 230.135C315.608 230.768 315.263 231.33 314.752 231.819C314.241 232.308 313.646 232.552 312.968 232.552C312.19 232.552 311.601 232.202 311.201 231.502C310.745 232.191 310.223 232.536 309.634 232.536H309.534C308.989 232.536 308.6 232.391 308.367 232.102C308.133 231.813 308.011 231.508 308 231.185C308 230.83 308.106 230.541 308.317 230.318C308.528 230.096 308.778 229.985 309.067 229.985C309.545 229.985 309.784 230.218 309.784 230.685C309.784 230.907 309.717 231.102 309.584 231.269C309.45 231.435 309.323 231.547 309.2 231.602C309.078 231.658 309.006 231.685 308.984 231.685L308.934 231.702C308.934 231.713 308.967 231.735 309.034 231.769C309.1 231.802 309.189 231.841 309.3 231.885C309.412 231.93 309.517 231.947 309.617 231.936C310.017 231.936 310.362 231.685 310.651 231.185C310.751 231.007 310.879 230.63 311.034 230.052C311.19 229.474 311.345 228.873 311.501 228.251C311.657 227.629 311.746 227.262 311.768 227.151C311.823 226.851 311.851 226.634 311.851 226.5C311.851 226.189 311.768 225.967 311.601 225.834C311.434 225.7 311.245 225.634 311.034 225.634C310.59 225.634 310.173 225.811 309.784 226.167C309.395 226.523 309.123 226.978 308.967 227.534C308.945 227.634 308.917 227.69 308.884 227.701C308.85 227.712 308.761 227.723 308.617 227.734H308.383C308.317 227.668 308.283 227.606 308.283 227.551Z" fill="black"/>
<path d="M318.332 234.174C318.332 234.434 318.43 234.563 318.626 234.563C318.917 234.563 319.165 234.151 319.369 233.326C319.416 233.168 319.455 233.086 319.487 233.078C319.503 233.07 319.542 233.066 319.605 233.066H319.652C319.723 233.066 319.77 233.066 319.793 233.066C319.817 233.066 319.837 233.074 319.852 233.09C319.868 233.106 319.876 233.133 319.876 233.172C319.868 233.22 319.856 233.282 319.841 233.361C319.825 233.44 319.782 233.589 319.711 233.809C319.64 234.029 319.562 234.214 319.475 234.363C319.389 234.512 319.267 234.658 319.11 234.799C318.953 234.94 318.772 235.007 318.568 234.999C318.285 234.999 318.021 234.913 317.778 234.74C317.534 234.567 317.408 234.276 317.401 233.868C317.401 233.774 317.405 233.707 317.412 233.667L318.179 230.626C318.674 228.623 318.921 227.589 318.921 227.526C318.921 227.503 318.917 227.483 318.909 227.467C318.902 227.452 318.886 227.436 318.862 227.42C318.839 227.405 318.819 227.397 318.803 227.397C318.788 227.397 318.756 227.393 318.709 227.385C318.662 227.377 318.63 227.373 318.615 227.373C318.599 227.373 318.564 227.369 318.509 227.361C318.454 227.354 318.414 227.354 318.391 227.361C318.312 227.361 318.261 227.361 318.238 227.361C318.214 227.361 318.183 227.357 318.143 227.35C318.104 227.342 318.08 227.33 318.072 227.314C318.065 227.299 318.061 227.275 318.061 227.244C318.061 227.228 318.069 227.173 318.084 227.079C318.124 226.929 318.167 226.847 318.214 226.831C318.261 226.815 318.544 226.792 319.063 226.76C319.18 226.752 319.314 226.745 319.463 226.737C319.613 226.729 319.731 226.717 319.817 226.701C319.903 226.686 319.947 226.682 319.947 226.69C320.041 226.69 320.088 226.721 320.088 226.784C320.088 226.87 319.801 228.049 319.228 230.32C318.654 232.591 318.359 233.781 318.344 233.891C318.344 233.907 318.344 233.939 318.344 233.986C318.344 234.033 318.34 234.072 318.332 234.104V234.174Z" fill="black"/>
<circle cx="314" cy="44" r="10.5" fill="#FFFEFB" stroke="black" stroke-linejoin="round"/>
<path d="M309 41.396C309 41.2517 309.077 41.0044 309.232 40.6541C309.386 40.3038 309.634 39.938 309.974 39.5568C310.314 39.1756 310.695 38.9901 311.117 39.0004C311.54 39.0004 311.88 39.1189 312.137 39.3559C312.395 39.5929 312.529 39.9226 312.539 40.345C312.519 40.5408 312.503 40.649 312.493 40.6696C312.493 40.7005 312.41 40.9375 312.246 41.3805C312.081 41.8236 311.911 42.3233 311.736 42.8797C311.56 43.4361 311.478 43.8791 311.488 44.2089C311.488 44.6519 311.56 44.961 311.705 45.1362C311.849 45.3113 312.065 45.4041 312.354 45.4144C312.591 45.4144 312.812 45.3577 313.018 45.2444C313.224 45.131 313.384 45.0125 313.497 44.8889C313.611 44.7652 313.75 44.5952 313.915 44.3789C313.915 44.3686 313.941 44.2655 313.992 44.0698C314.044 43.874 314.116 43.57 314.208 43.1579C314.301 42.7457 314.399 42.3645 314.502 42.0142C314.894 40.4687 315.11 39.6598 315.151 39.5877C315.285 39.3095 315.507 39.1704 315.816 39.1704C315.95 39.1704 316.058 39.2065 316.14 39.2786C316.223 39.3507 316.279 39.4125 316.31 39.4641C316.341 39.5156 316.352 39.5619 316.341 39.6032C316.341 39.7371 316.089 40.819 315.584 42.8488C315.079 44.8786 314.791 45.9914 314.718 46.1871C314.43 47.0423 313.93 47.7224 313.219 48.2272C312.508 48.7321 311.797 48.9897 311.086 49C310.623 49 310.216 48.8867 309.865 48.66C309.515 48.4333 309.34 48.0933 309.34 47.6399C309.34 47.4133 309.376 47.2226 309.448 47.0681C309.52 46.9135 309.618 46.8002 309.742 46.7281C309.865 46.6559 309.969 46.6044 310.051 46.5735C310.133 46.5426 310.221 46.5271 310.314 46.5271C310.767 46.5271 310.994 46.7435 310.994 47.1763C310.994 47.3823 310.932 47.5627 310.808 47.7172C310.685 47.8718 310.566 47.9748 310.453 48.0263C310.339 48.0778 310.272 48.1036 310.252 48.1036L310.206 48.119C310.226 48.1706 310.324 48.2324 310.499 48.3045C310.674 48.3766 310.849 48.4127 311.025 48.4127H311.148C311.323 48.4127 311.457 48.4024 311.55 48.3818C311.89 48.2891 312.204 48.0933 312.493 47.7945C312.781 47.4957 313.003 47.1763 313.157 46.8363C313.312 46.4962 313.431 46.2077 313.513 45.9708C313.595 45.7338 313.637 45.5792 313.637 45.5071L313.544 45.5689C313.482 45.6101 313.384 45.6668 313.25 45.7389C313.116 45.8111 312.982 45.8729 312.848 45.9244C312.642 45.9759 312.441 46.0017 312.246 46.0017C311.772 46.0017 311.354 45.8883 310.994 45.6617C310.633 45.435 310.396 45.0692 310.283 44.5643C310.272 44.4922 310.267 44.3325 310.267 44.0852C310.267 43.4979 310.448 42.7303 310.808 41.7824C311.169 40.8344 311.349 40.2317 311.349 39.9741C311.349 39.9638 311.349 39.9535 311.349 39.9432C311.349 39.8504 311.349 39.7886 311.349 39.7577C311.349 39.7268 311.329 39.6907 311.287 39.6495C311.246 39.6083 311.19 39.5877 311.117 39.5877H311.056C310.819 39.5877 310.602 39.6856 310.406 39.8814C310.211 40.0771 310.056 40.2883 309.943 40.515C309.829 40.7417 309.742 40.9581 309.68 41.1642C309.618 41.3702 309.577 41.4836 309.556 41.5042C309.536 41.5248 309.453 41.5351 309.309 41.5351H309.093C309.031 41.4733 309 41.4269 309 41.396Z" fill="black"/>
<path d="M317.527 47.5053C317.527 47.7457 317.618 47.8659 317.8 47.8659C318.07 47.8659 318.299 47.4834 318.489 46.7186C318.532 46.5729 318.569 46.4964 318.598 46.4891C318.612 46.4818 318.649 46.4782 318.707 46.4782H318.751C318.816 46.4782 318.86 46.4782 318.882 46.4782C318.904 46.4782 318.922 46.4854 318.937 46.5C318.951 46.5146 318.958 46.5401 318.958 46.5765C318.951 46.6202 318.94 46.6785 318.926 46.7513C318.911 46.8242 318.871 46.9626 318.805 47.1666C318.74 47.3705 318.667 47.5417 318.587 47.6801C318.507 47.8185 318.394 47.9533 318.248 48.0844C318.103 48.2155 317.935 48.2775 317.746 48.2702C317.483 48.2702 317.239 48.19 317.013 48.0298C316.788 47.8695 316.671 47.6 316.664 47.2212C316.664 47.1338 316.667 47.0719 316.675 47.0354L317.385 44.2163C317.844 42.3587 318.073 41.4008 318.073 41.3425C318.073 41.3207 318.07 41.3024 318.062 41.2879C318.055 41.2733 318.041 41.2587 318.019 41.2442C317.997 41.2296 317.979 41.2223 317.964 41.2223C317.95 41.2223 317.92 41.2187 317.877 41.2114C317.833 41.2041 317.804 41.2005 317.789 41.2005C317.775 41.2005 317.742 41.1968 317.691 41.1895C317.64 41.1823 317.604 41.1823 317.582 41.1895C317.509 41.1895 317.461 41.1895 317.44 41.1895C317.418 41.1895 317.389 41.1859 317.352 41.1786C317.316 41.1713 317.294 41.1604 317.287 41.1458C317.279 41.1313 317.276 41.1094 317.276 41.0803C317.276 41.0657 317.283 41.0147 317.298 40.9273C317.334 40.7889 317.374 40.7124 317.418 40.6978C317.461 40.6833 317.724 40.6614 318.205 40.6323C318.314 40.625 318.438 40.6177 318.576 40.6104C318.714 40.6031 318.824 40.5922 318.904 40.5776C318.984 40.5631 319.024 40.5594 319.024 40.5667C319.111 40.5667 319.155 40.5958 319.155 40.6541C319.155 40.7342 318.889 41.8269 318.357 43.9322C317.826 46.0374 317.553 47.1411 317.538 47.243C317.538 47.2576 317.538 47.2868 317.538 47.3305C317.538 47.3742 317.534 47.4106 317.527 47.4397V47.5053Z" fill="black"/>
<circle cx="314" cy="102" r="8.5" fill="#FFFEFB" stroke="black" stroke-linejoin="round"/>
<path d="M311.428 102.778C311.294 102.778 311.108 102.778 310.871 102.778C310.633 102.778 310.455 102.785 310.336 102.8C309.891 102.8 309.557 102.748 309.334 102.644C309.111 102.541 309 102.326 309 102C309 101.674 309.111 101.459 309.334 101.356C309.557 101.252 309.891 101.2 310.336 101.2C310.44 101.2 310.611 101.2 310.849 101.2C311.086 101.2 311.279 101.207 311.428 101.222H313.209V99.4L313.232 97.5778C313.425 97.1926 313.677 97 313.989 97C314.078 97 314.16 97.0074 314.234 97.0222C314.308 97.037 314.375 97.0741 314.434 97.1333C314.494 97.1926 314.531 97.237 314.546 97.2667C314.561 97.2963 314.605 97.3556 314.679 97.4444L314.768 97.5778V101.222H316.55H317.731C318.131 101.222 318.406 101.244 318.555 101.289C318.703 101.333 318.822 101.459 318.911 101.667C318.97 101.785 319 101.896 319 102C319 102.163 318.948 102.311 318.844 102.444C318.74 102.578 318.614 102.674 318.465 102.733C318.376 102.763 317.738 102.778 316.55 102.778H314.768V106.422C314.531 106.807 314.271 107 313.989 107C313.811 107 313.662 106.956 313.543 106.867C313.425 106.778 313.336 106.681 313.276 106.578L313.232 106.422L313.209 104.6V102.778H311.428Z" fill="black"/>
<path d="M268.5 215.5H268V216H268.5V215.5ZM268.5 102V101.5H268V102H268.5ZM305 102L300 99.1132V104.887L305 102ZM313.5 215.5V215H268.5V215.5V216H313.5V215.5ZM268.5 215.5H269V102H268.5H268V215.5H268.5ZM268.5 102V102.5H300.5V102V101.5H268.5V102Z" fill="black"/>
<path d="M31.2885 12V3.27273H34.5613C35.2317 3.27273 35.7942 3.39773 36.2488 3.64773C36.7061 3.89773 37.0513 4.24148 37.2843 4.67898C37.5201 5.11364 37.638 5.60795 37.638 6.16193C37.638 6.72159 37.5201 7.21875 37.2843 7.65341C37.0485 8.08807 36.7005 8.4304 36.2402 8.6804C35.78 8.92756 35.2132 9.05114 34.54 9.05114H32.3709V7.75142H34.3269C34.7189 7.75142 35.04 7.68324 35.29 7.54688C35.54 7.41051 35.7246 7.22301 35.8439 6.98438C35.9661 6.74574 36.0272 6.47159 36.0272 6.16193C36.0272 5.85227 35.9661 5.57955 35.8439 5.34375C35.7246 5.10795 35.5385 4.92472 35.2857 4.79403C35.0357 4.66051 34.7132 4.59375 34.3184 4.59375H32.8695V12H31.2885ZM41.7044 12.1278C41.0652 12.1278 40.5112 11.9872 40.0424 11.706C39.5737 11.4247 39.21 11.0312 38.9515 10.5256C38.6958 10.0199 38.568 9.42898 38.568 8.75284C38.568 8.0767 38.6958 7.48437 38.9515 6.97585C39.21 6.46733 39.5737 6.07244 40.0424 5.79119C40.5112 5.50994 41.0652 5.36932 41.7044 5.36932C42.3436 5.36932 42.8975 5.50994 43.3663 5.79119C43.835 6.07244 44.1973 6.46733 44.4529 6.97585C44.7115 7.48437 44.8407 8.0767 44.8407 8.75284C44.8407 9.42898 44.7115 10.0199 44.4529 10.5256C44.1973 11.0312 43.835 11.4247 43.3663 11.706C42.8975 11.9872 42.3436 12.1278 41.7044 12.1278ZM41.7129 10.892C42.0595 10.892 42.3493 10.7969 42.5822 10.6065C42.8152 10.4134 42.9885 10.1548 43.1021 9.83097C43.2186 9.5071 43.2768 9.14631 43.2768 8.74858C43.2768 8.34801 43.2186 7.9858 43.1021 7.66193C42.9885 7.33523 42.8152 7.07528 42.5822 6.8821C42.3493 6.68892 42.0595 6.59233 41.7129 6.59233C41.3578 6.59233 41.0623 6.68892 40.8265 6.8821C40.5936 7.07528 40.4189 7.33523 40.3024 7.66193C40.1887 7.9858 40.1319 8.34801 40.1319 8.74858C40.1319 9.14631 40.1887 9.5071 40.3024 9.83097C40.4189 10.1548 40.5936 10.4134 40.8265 10.6065C41.0623 10.7969 41.3578 10.892 41.7129 10.892ZM51.3233 7.18466L49.9171 7.33807C49.8773 7.19602 49.8077 7.0625 49.7083 6.9375C49.6117 6.8125 49.481 6.71165 49.3162 6.63494C49.1515 6.55824 48.9498 6.51989 48.7111 6.51989C48.3901 6.51989 48.1202 6.58949 47.9015 6.72869C47.6855 6.8679 47.579 7.0483 47.5819 7.26989C47.579 7.46023 47.6486 7.61506 47.7907 7.73438C47.9355 7.85369 48.1742 7.9517 48.5066 8.02841L49.623 8.26705C50.2424 8.40057 50.7026 8.61222 51.0037 8.90199C51.3077 9.19176 51.4611 9.57102 51.464 10.0398C51.4611 10.4517 51.3404 10.8153 51.1017 11.1307C50.8659 11.4432 50.5378 11.6875 50.1174 11.8636C49.6969 12.0398 49.214 12.1278 48.6685 12.1278C47.8674 12.1278 47.2225 11.9602 46.7338 11.625C46.2452 11.2869 45.954 10.8168 45.8603 10.2145L47.3645 10.0696C47.4327 10.3651 47.5776 10.5881 47.7992 10.7386C48.0208 10.8892 48.3091 10.9645 48.6642 10.9645C49.0307 10.9645 49.3248 10.8892 49.5463 10.7386C49.7708 10.5881 49.883 10.402 49.883 10.1804C49.883 9.9929 49.8105 9.83807 49.6657 9.71591C49.5236 9.59375 49.302 9.5 49.0009 9.43466L47.8844 9.20028C47.2566 9.0696 46.7921 8.84943 46.4909 8.53977C46.1898 8.22727 46.0407 7.83239 46.0435 7.35511C46.0407 6.9517 46.15 6.60227 46.3716 6.30682C46.5961 6.00852 46.9071 5.77841 47.3049 5.61648C47.7054 5.4517 48.1671 5.36932 48.6898 5.36932C49.4569 5.36932 50.0605 5.53267 50.5009 5.85938C50.9441 6.18608 51.2182 6.62784 51.3233 7.18466ZM56.0044 5.45455V6.64773H52.2417V5.45455H56.0044ZM53.1706 3.88636H54.7132V10.0312C54.7132 10.2386 54.7445 10.3977 54.807 10.5085C54.8723 10.6165 54.9576 10.6903 55.0627 10.7301C55.1678 10.7699 55.2843 10.7898 55.4121 10.7898C55.5087 10.7898 55.5968 10.7827 55.6763 10.7685C55.7587 10.7543 55.8212 10.7415 55.8638 10.7301L56.1238 11.9361C56.0414 11.9645 55.9235 11.9957 55.7701 12.0298C55.6195 12.0639 55.4348 12.0838 55.2161 12.0895C54.8297 12.1009 54.4817 12.0426 54.1721 11.9148C53.8624 11.7841 53.6167 11.5824 53.4348 11.3097C53.2559 11.0369 53.1678 10.696 53.1706 10.2869V3.88636ZM61.051 7.73011V9H57.122V7.73011H61.051ZM62.7417 12V3.27273H64.3226V10.6747H68.1664V12H62.7417ZM76.7104 3.27273V12H75.3042L71.1919 6.0554H71.1195V12H69.5385V3.27273H70.9533L75.0613 9.22159H75.138V3.27273H76.7104Z" fill="#B32F2F"/>
<path d="M164.558 12V3.27273H167.831C168.501 3.27273 169.064 3.39773 169.518 3.64773C169.976 3.89773 170.321 4.24148 170.554 4.67898C170.79 5.11364 170.907 5.60795 170.907 6.16193C170.907 6.72159 170.79 7.21875 170.554 7.65341C170.318 8.08807 169.97 8.4304 169.51 8.6804C169.05 8.92756 168.483 9.05114 167.809 9.05114H165.64V7.75142H167.596C167.988 7.75142 168.309 7.68324 168.559 7.54688C168.809 7.41051 168.994 7.22301 169.113 6.98438C169.236 6.74574 169.297 6.47159 169.297 6.16193C169.297 5.85227 169.236 5.57955 169.113 5.34375C168.994 5.10795 168.808 4.92472 168.555 4.79403C168.305 4.66051 167.983 4.59375 167.588 4.59375H166.139V12H164.558ZM172.213 12V5.45455H173.708V6.54545H173.776C173.896 6.16761 174.1 5.87642 174.39 5.67188C174.683 5.46449 175.017 5.3608 175.392 5.3608C175.477 5.3608 175.572 5.36506 175.677 5.37358C175.785 5.37926 175.874 5.3892 175.945 5.40341V6.82244C175.88 6.79972 175.776 6.77983 175.634 6.76278C175.495 6.7429 175.36 6.73295 175.23 6.73295C174.948 6.73295 174.695 6.79403 174.471 6.91619C174.249 7.03551 174.075 7.2017 173.947 7.41477C173.819 7.62784 173.755 7.87358 173.755 8.15199V12H172.213ZM179.599 12.1278C178.942 12.1278 178.376 11.9915 177.898 11.7188C177.424 11.4432 177.059 11.054 176.803 10.5511C176.547 10.0455 176.42 9.45028 176.42 8.76562C176.42 8.09233 176.547 7.50142 176.803 6.9929C177.062 6.48153 177.422 6.08381 177.885 5.79972C178.349 5.51278 178.893 5.36932 179.518 5.36932C179.921 5.36932 180.302 5.43466 180.66 5.56534C181.02 5.69318 181.339 5.89205 181.614 6.16193C181.893 6.43182 182.111 6.77557 182.27 7.19318C182.43 7.60795 182.509 8.10227 182.509 8.67614V9.14915H177.144V8.10938H181.03C181.028 7.81392 180.964 7.55114 180.839 7.32102C180.714 7.08807 180.539 6.90483 180.314 6.77131C180.093 6.63778 179.834 6.57102 179.539 6.57102C179.224 6.57102 178.947 6.64773 178.708 6.80114C178.469 6.9517 178.283 7.15057 178.15 7.39773C178.019 7.64205 177.952 7.91051 177.949 8.20312V9.1108C177.949 9.49148 178.019 9.81818 178.158 10.0909C178.297 10.3608 178.492 10.5682 178.742 10.7131C178.992 10.8551 179.285 10.9261 179.62 10.9261C179.844 10.9261 180.047 10.8949 180.229 10.8324C180.411 10.767 180.569 10.6719 180.702 10.5469C180.836 10.4219 180.937 10.267 181.005 10.0824L182.445 10.2443C182.354 10.625 182.181 10.9574 181.925 11.2415C181.672 11.5227 181.349 11.7415 180.954 11.8977C180.559 12.0511 180.107 12.1278 179.599 12.1278ZM187.781 7.73011V9H183.852V7.73011H187.781ZM189.472 12V3.27273H191.053V10.6747H194.897V12H189.472ZM203.441 3.27273V12H202.035L197.922 6.0554H197.85V12H196.269V3.27273H197.684L201.792 9.22159H201.868V3.27273H203.441Z" fill="#3C749B"/>
<path d="M292.906 12V3.27273H296.178C296.849 3.27273 297.411 3.39773 297.866 3.64773C298.323 3.89773 298.669 4.24148 298.901 4.67898C299.137 5.11364 299.255 5.60795 299.255 6.16193C299.255 6.72159 299.137 7.21875 298.901 7.65341C298.666 8.08807 298.318 8.4304 297.857 8.6804C297.397 8.92756 296.83 9.05114 296.157 9.05114H293.988V7.75142H295.944C296.336 7.75142 296.657 7.68324 296.907 7.54688C297.157 7.41051 297.342 7.22301 297.461 6.98438C297.583 6.74574 297.644 6.47159 297.644 6.16193C297.644 5.85227 297.583 5.57955 297.461 5.34375C297.342 5.10795 297.156 4.92472 296.903 4.79403C296.653 4.66051 296.33 4.59375 295.936 4.59375H294.487V12H292.906ZM303.364 12.1278C302.708 12.1278 302.141 11.9915 301.664 11.7188C301.189 11.4432 300.824 11.054 300.569 10.5511C300.313 10.0455 300.185 9.45028 300.185 8.76562C300.185 8.09233 300.313 7.50142 300.569 6.9929C300.827 6.48153 301.188 6.08381 301.651 5.79972C302.114 5.51278 302.658 5.36932 303.283 5.36932C303.687 5.36932 304.067 5.43466 304.425 5.56534C304.786 5.69318 305.104 5.89205 305.38 6.16193C305.658 6.43182 305.877 6.77557 306.036 7.19318C306.195 7.60795 306.275 8.10227 306.275 8.67614V9.14915H300.91V8.10938H304.796C304.793 7.81392 304.729 7.55114 304.604 7.32102C304.479 7.08807 304.305 6.90483 304.08 6.77131C303.858 6.63778 303.6 6.57102 303.305 6.57102C302.989 6.57102 302.712 6.64773 302.474 6.80114C302.235 6.9517 302.049 7.15057 301.915 7.39773C301.785 7.64205 301.718 7.91051 301.715 8.20312V9.1108C301.715 9.49148 301.785 9.81818 301.924 10.0909C302.063 10.3608 302.258 10.5682 302.508 10.7131C302.758 10.8551 303.05 10.9261 303.385 10.9261C303.61 10.9261 303.813 10.8949 303.995 10.8324C304.177 10.767 304.334 10.6719 304.468 10.5469C304.601 10.4219 304.702 10.267 304.77 10.0824L306.211 10.2443C306.12 10.625 305.947 10.9574 305.691 11.2415C305.438 11.5227 305.114 11.7415 304.719 11.8977C304.324 12.0511 303.873 12.1278 303.364 12.1278ZM307.58 12V5.45455H309.075V6.54545H309.144C309.263 6.16761 309.468 5.87642 309.757 5.67188C310.05 5.46449 310.384 5.3608 310.759 5.3608C310.844 5.3608 310.939 5.36506 311.044 5.37358C311.152 5.37926 311.242 5.3892 311.313 5.40341V6.82244C311.247 6.79972 311.144 6.77983 311.002 6.76278C310.862 6.7429 310.727 6.73295 310.597 6.73295C310.316 6.73295 310.063 6.79403 309.838 6.91619C309.617 7.03551 309.442 7.2017 309.314 7.41477C309.186 7.62784 309.122 7.87358 309.122 8.15199V12H307.58ZM312.338 12V5.45455H313.88V12H312.338ZM313.113 4.52557C312.869 4.52557 312.659 4.4446 312.482 4.28267C312.306 4.1179 312.218 3.92045 312.218 3.69034C312.218 3.45739 312.306 3.25994 312.482 3.09801C312.659 2.93324 312.869 2.85085 313.113 2.85085C313.36 2.85085 313.57 2.93324 313.744 3.09801C313.92 3.25994 314.008 3.45739 314.008 3.69034C314.008 3.92045 313.92 4.1179 313.744 4.28267C313.57 4.4446 313.36 4.52557 313.113 4.52557ZM319.434 7.73011V9H315.505V7.73011H319.434ZM321.124 12V3.27273H322.705V10.6747H326.549V12H321.124ZM335.093 3.27273V12H333.687L329.575 6.0554H329.502V12H327.921V3.27273H329.336L333.444 9.22159H333.521V3.27273H335.093Z" fill="#5D8F5D"/>
</svg>
