<svg width="300" height="133" viewBox="0 0 300 133" fill="none" xmlns="http://www.w3.org/2000/svg">
<rect width="220" height="116" rx="4" fill="#DCDCDC" fill-opacity="0.5"/>
<rect x="230" width="70" height="116" rx="4" fill="#DCDCDC" fill-opacity="0.5"/>
<path d="M200.994 66.1136C200.644 66.1136 200.343 65.9882 200.092 65.7372C199.841 65.4863 199.716 65.1856 199.716 64.8352C199.716 64.4848 199.841 64.1842 200.092 63.9332C200.343 63.6823 200.644 63.5568 200.994 63.5568C201.344 63.5568 201.645 63.6823 201.896 63.9332C202.147 64.1842 202.272 64.4848 202.272 64.8352C202.272 65.0672 202.213 65.2803 202.095 65.4744C201.981 65.6686 201.827 65.8248 201.633 65.9432C201.444 66.0568 201.231 66.1136 200.994 66.1136ZM206.502 66.1136C206.151 66.1136 205.851 65.9882 205.6 65.7372C205.349 65.4863 205.223 65.1856 205.223 64.8352C205.223 64.4848 205.349 64.1842 205.6 63.9332C205.851 63.6823 206.151 63.5568 206.502 63.5568C206.852 63.5568 207.153 63.6823 207.404 63.9332C207.655 64.1842 207.78 64.4848 207.78 64.8352C207.78 65.0672 207.721 65.2803 207.603 65.4744C207.489 65.6686 207.335 65.8248 207.141 65.9432C206.952 66.0568 206.739 66.1136 206.502 66.1136ZM212.01 66.1136C211.659 66.1136 211.359 65.9882 211.108 65.7372C210.857 65.4863 210.731 65.1856 210.731 64.8352C210.731 64.4848 210.857 64.1842 211.108 63.9332C211.359 63.6823 211.659 63.5568 212.01 63.5568C212.36 63.5568 212.661 63.6823 212.912 63.9332C213.163 64.1842 213.288 64.4848 213.288 64.8352C213.288 65.0672 213.229 65.2803 213.11 65.4744C212.997 65.6686 212.843 65.8248 212.649 65.9432C212.459 66.0568 212.246 66.1136 212.01 66.1136Z" fill="black"/>
<path d="M280.994 66.1136C280.644 66.1136 280.343 65.9882 280.092 65.7372C279.841 65.4863 279.716 65.1856 279.716 64.8352C279.716 64.4848 279.841 64.1842 280.092 63.9332C280.343 63.6823 280.644 63.5568 280.994 63.5568C281.344 63.5568 281.645 63.6823 281.896 63.9332C282.147 64.1842 282.272 64.4848 282.272 64.8352C282.272 65.0672 282.213 65.2803 282.095 65.4744C281.981 65.6686 281.827 65.8248 281.633 65.9432C281.444 66.0568 281.231 66.1136 280.994 66.1136ZM286.502 66.1136C286.151 66.1136 285.851 65.9882 285.6 65.7372C285.349 65.4863 285.223 65.1856 285.223 64.8352C285.223 64.4848 285.349 64.1842 285.6 63.9332C285.851 63.6823 286.151 63.5568 286.502 63.5568C286.852 63.5568 287.153 63.6823 287.404 63.9332C287.655 64.1842 287.78 64.4848 287.78 64.8352C287.78 65.0672 287.721 65.2803 287.603 65.4744C287.489 65.6686 287.335 65.8248 287.141 65.9432C286.952 66.0568 286.739 66.1136 286.502 66.1136ZM292.01 66.1136C291.659 66.1136 291.359 65.9882 291.108 65.7372C290.857 65.4863 290.731 65.1856 290.731 64.8352C290.731 64.4848 290.857 64.1842 291.108 63.9332C291.359 63.6823 291.659 63.5568 292.01 63.5568C292.36 63.5568 292.661 63.6823 292.912 63.9332C293.163 64.1842 293.288 64.4848 293.288 64.8352C293.288 65.0672 293.229 65.2803 293.11 65.4744C292.997 65.6686 292.843 65.8248 292.649 65.9432C292.459 66.0568 292.246 66.1136 292.01 66.1136Z" fill="black"/>
<path d="M300 120L295 117.113L295 122.887L300 120ZM0 120L4.37114e-08 120.5L295.5 120.5L295.5 120L295.5 119.5L-4.37114e-08 119.5L0 120Z" fill="black" fill-opacity="0.75"/>
<path d="M281.139 125.545V126.256H278.312V125.545H281.139ZM279.136 124.239H279.974V129.438C279.974 129.674 280.009 129.852 280.077 129.97C280.148 130.086 280.238 130.164 280.347 130.205C280.459 130.242 280.576 130.261 280.699 130.261C280.791 130.261 280.867 130.257 280.926 130.247C280.985 130.235 281.033 130.226 281.068 130.219L281.239 130.972C281.182 130.993 281.103 131.014 281.001 131.036C280.899 131.059 280.77 131.071 280.614 131.071C280.377 131.071 280.145 131.02 279.918 130.918C279.693 130.817 279.506 130.661 279.357 130.453C279.21 130.245 279.136 129.982 279.136 129.665V124.239ZM282.4 131V125.545H283.238V131H282.4ZM282.826 124.636C282.663 124.636 282.522 124.581 282.403 124.469C282.287 124.358 282.229 124.224 282.229 124.068C282.229 123.912 282.287 123.778 282.403 123.667C282.522 123.556 282.663 123.5 282.826 123.5C282.989 123.5 283.129 123.556 283.245 123.667C283.363 123.778 283.423 123.912 283.423 124.068C283.423 124.224 283.363 124.358 283.245 124.469C283.129 124.581 282.989 124.636 282.826 124.636ZM284.773 131V125.545H285.583V126.398H285.654C285.767 126.107 285.951 125.88 286.204 125.719C286.457 125.556 286.762 125.474 287.117 125.474C287.477 125.474 287.776 125.556 288.015 125.719C288.257 125.88 288.445 126.107 288.58 126.398H288.637C288.776 126.116 288.986 125.892 289.265 125.727C289.544 125.558 289.879 125.474 290.27 125.474C290.758 125.474 291.157 125.627 291.467 125.933C291.777 126.236 291.932 126.708 291.932 127.349V131H291.094V127.349C291.094 126.947 290.984 126.659 290.764 126.487C290.544 126.314 290.284 126.227 289.986 126.227C289.602 126.227 289.305 126.343 289.095 126.575C288.884 126.805 288.779 127.096 288.779 127.449V131H287.926V127.264C287.926 126.954 287.826 126.704 287.624 126.515C287.423 126.323 287.164 126.227 286.847 126.227C286.629 126.227 286.425 126.285 286.236 126.401C286.049 126.517 285.897 126.678 285.781 126.884C285.668 127.088 285.611 127.323 285.611 127.591V131H284.773ZM295.751 131.114C295.226 131.114 294.772 130.998 294.391 130.766C294.012 130.531 293.72 130.205 293.514 129.786C293.31 129.364 293.209 128.874 293.209 128.315C293.209 127.757 293.31 127.264 293.514 126.838C293.72 126.41 294.006 126.076 294.373 125.837C294.743 125.595 295.174 125.474 295.666 125.474C295.95 125.474 296.231 125.522 296.508 125.616C296.785 125.711 297.037 125.865 297.264 126.078C297.491 126.289 297.672 126.568 297.807 126.916C297.942 127.264 298.01 127.693 298.01 128.202V128.557H293.805V127.832H297.157C297.157 127.525 297.096 127.25 296.973 127.009C296.852 126.767 296.679 126.576 296.454 126.437C296.232 126.297 295.969 126.227 295.666 126.227C295.332 126.227 295.043 126.31 294.8 126.476C294.558 126.639 294.372 126.852 294.242 127.115C294.112 127.378 294.047 127.66 294.047 127.96V128.443C294.047 128.855 294.118 129.204 294.26 129.491C294.404 129.775 294.604 129.991 294.86 130.141C295.116 130.287 295.413 130.361 295.751 130.361C295.971 130.361 296.17 130.33 296.348 130.268C296.528 130.205 296.683 130.11 296.813 129.984C296.943 129.857 297.044 129.698 297.115 129.509L297.925 129.736C297.839 130.01 297.696 130.252 297.495 130.46C297.294 130.666 297.045 130.827 296.749 130.943C296.453 131.057 296.121 131.114 295.751 131.114Z" fill="black"/>
<path d="M46.2803 35.6864C46.4352 35.6106 46.6183 35.6205 46.7646 35.7118C46.9109 35.8031 47 35.9631 47 36.1356V80.58C47 80.7709 46.8912 80.9453 46.7197 81.0292L6.71973 100.585C6.56476 100.661 6.38168 100.651 6.23535 100.559C6.08906 100.468 6 100.308 6 100.136V55.6913C6 55.5003 6.10876 55.326 6.28027 55.2421L46.2803 35.6864Z" fill="#FFE1C4" stroke="#FF7600" stroke-linejoin="round"/>
<path d="M76.2803 35.6864C76.4352 35.6106 76.6183 35.6205 76.7646 35.7118C76.9109 35.8031 77 35.9631 77 36.1356V80.58C77 80.7709 76.8912 80.9453 76.7197 81.0292L36.7197 100.585C36.5648 100.661 36.3817 100.651 36.2354 100.559C36.0891 100.468 36 100.308 36 100.136V55.6913C36 55.5003 36.1088 55.326 36.2803 55.2421L76.2803 35.6864Z" fill="#D4FEC6" stroke="#2EB800" stroke-linejoin="round"/>
<path d="M106.28 35.6864C106.435 35.6106 106.618 35.6205 106.765 35.7118C106.911 35.8031 107 35.9631 107 36.1356V80.58C107 80.7709 106.891 80.9453 106.72 81.0292L66.7197 100.585C66.5648 100.661 66.3817 100.651 66.2354 100.559C66.0891 100.468 66 100.308 66 100.136V55.6913C66 55.5003 66.1088 55.326 66.2803 55.2421L106.28 35.6864Z" fill="#D4FEC6" stroke="#2EB800" stroke-linejoin="round"/>
<path d="M136.28 35.6864C136.435 35.6106 136.618 35.6205 136.765 35.7118C136.911 35.8031 137 35.9631 137 36.1356V80.58C137 80.7709 136.891 80.9453 136.72 81.0292L96.7197 100.585C96.5648 100.661 96.3817 100.651 96.2354 100.559C96.0891 100.468 96 100.308 96 100.136V55.6913C96 55.5003 96.1088 55.326 96.2803 55.2421L136.28 35.6864Z" fill="#CDD9FF" stroke="#1948E6" stroke-linejoin="round"/>
<path d="M166.28 35.6864C166.435 35.6106 166.618 35.6205 166.765 35.7118C166.911 35.8031 167 35.9631 167 36.1356V80.58C167 80.7709 166.891 80.9453 166.72 81.0292L126.72 100.585C126.565 100.661 126.382 100.651 126.235 100.559C126.089 100.468 126 100.308 126 100.136V55.6913C126 55.5003 126.109 55.326 126.28 55.2421L166.28 35.6864Z" fill="#D4FEC6" stroke="#2EB800" stroke-linejoin="round"/>
<path d="M196.28 35.6864C196.435 35.6106 196.618 35.6205 196.765 35.7118C196.911 35.8031 197 35.9631 197 36.1356V80.58C197 80.7709 196.891 80.9453 196.72 81.0292L156.72 100.585C156.565 100.661 156.382 100.651 156.235 100.559C156.089 100.468 156 100.308 156 100.136V55.6913C156 55.5003 156.109 55.326 156.28 55.2421L196.28 35.6864Z" fill="#CDD9FF" stroke="#1948E6" stroke-linejoin="round"/>
<path d="M276.78 35.6864C276.935 35.6106 277.118 35.6205 277.265 35.7118C277.411 35.8031 277.5 35.9631 277.5 36.1356V80.58C277.5 80.7709 277.391 80.9453 277.22 81.0292L237.22 100.585C237.065 100.661 236.882 100.651 236.735 100.559C236.589 100.468 236.5 100.308 236.5 100.136V55.6913C236.5 55.5003 236.609 55.326 236.78 55.2421L276.78 35.6864Z" fill="#FFE1C4" stroke="#FF7600" stroke-linejoin="round"/>
<path d="M25.1584 67.2727V76H23.8416V67.2727H25.1584Z" fill="black"/>
<path d="M51.533 76V67.2727H54.729C55.3484 67.2727 55.8612 67.375 56.2674 67.5795C56.6737 67.7812 56.9776 68.0554 57.1793 68.402C57.381 68.7457 57.4819 69.1335 57.4819 69.5653C57.4819 69.929 57.4151 70.2358 57.2816 70.4858C57.1481 70.733 56.9691 70.9318 56.7447 71.0824C56.5231 71.2301 56.2788 71.3381 56.0117 71.4062V71.4915C56.3015 71.5057 56.5842 71.5994 56.8597 71.7727C57.1381 71.9432 57.3683 72.1861 57.5501 72.5014C57.7319 72.8168 57.8228 73.2003 57.8228 73.652C57.8228 74.098 57.7177 74.4986 57.5075 74.8537C57.3001 75.206 56.979 75.4858 56.5444 75.6932C56.1097 75.8977 55.5543 76 54.8782 76H51.533ZM52.8498 74.8707H54.7504C55.381 74.8707 55.8327 74.7486 56.1055 74.5043C56.3782 74.2599 56.5146 73.9545 56.5146 73.5881C56.5146 73.3125 56.445 73.0597 56.3058 72.8295C56.1665 72.5994 55.9677 72.4162 55.7092 72.2798C55.4535 72.1435 55.1495 72.0753 54.7972 72.0753H52.8498V74.8707ZM52.8498 71.0483H54.614C54.9094 71.0483 55.1751 70.9915 55.4109 70.8778C55.6495 70.7642 55.8384 70.6051 55.9776 70.4006C56.1197 70.1932 56.1907 69.9489 56.1907 69.6676C56.1907 69.3068 56.0643 69.0043 55.8114 68.7599C55.5586 68.5156 55.1708 68.3935 54.6481 68.3935H52.8498V71.0483Z" fill="black"/>
<path d="M81.533 76V67.2727H84.729C85.3484 67.2727 85.8612 67.375 86.2674 67.5795C86.6737 67.7812 86.9776 68.0554 87.1793 68.402C87.381 68.7457 87.4819 69.1335 87.4819 69.5653C87.4819 69.929 87.4151 70.2358 87.2816 70.4858C87.1481 70.733 86.9691 70.9318 86.7447 71.0824C86.5231 71.2301 86.2788 71.3381 86.0117 71.4062V71.4915C86.3015 71.5057 86.5842 71.5994 86.8597 71.7727C87.1381 71.9432 87.3683 72.1861 87.5501 72.5014C87.7319 72.8168 87.8228 73.2003 87.8228 73.652C87.8228 74.098 87.7177 74.4986 87.5075 74.8537C87.3001 75.206 86.979 75.4858 86.5444 75.6932C86.1097 75.8977 85.5543 76 84.8782 76H81.533ZM82.8498 74.8707H84.7504C85.381 74.8707 85.8327 74.7486 86.1055 74.5043C86.3782 74.2599 86.5146 73.9545 86.5146 73.5881C86.5146 73.3125 86.445 73.0597 86.3058 72.8295C86.1665 72.5994 85.9677 72.4162 85.7092 72.2798C85.4535 72.1435 85.1495 72.0753 84.7972 72.0753H82.8498V74.8707ZM82.8498 71.0483H84.614C84.9094 71.0483 85.1751 70.9915 85.4109 70.8778C85.6495 70.7642 85.8384 70.6051 85.9776 70.4006C86.1197 70.1932 86.1907 69.9489 86.1907 69.6676C86.1907 69.3068 86.0643 69.0043 85.8114 68.7599C85.5586 68.5156 85.1708 68.3935 84.6481 68.3935H82.8498V71.0483Z" fill="black"/>
<path d="M111.621 76V67.2727H114.732C115.411 67.2727 115.973 67.3963 116.419 67.6435C116.865 67.8906 117.199 68.2287 117.421 68.6577C117.642 69.0838 117.753 69.5639 117.753 70.098C117.753 70.6349 117.641 71.1179 117.416 71.5469C117.195 71.973 116.86 72.3111 116.411 72.5611C115.965 72.8082 115.404 72.9318 114.727 72.9318H112.588V71.8153H114.608C115.037 71.8153 115.385 71.7415 115.652 71.5938C115.919 71.4432 116.115 71.2386 116.24 70.9801C116.365 70.7216 116.428 70.4276 116.428 70.098C116.428 69.7685 116.365 69.4759 116.24 69.2202C116.115 68.9645 115.918 68.7642 115.648 68.6193C115.381 68.4744 115.029 68.402 114.591 68.402H112.938V76H111.621Z" fill="black"/>
<path d="M141.533 76V67.2727H144.729C145.348 67.2727 145.861 67.375 146.267 67.5795C146.674 67.7812 146.978 68.0554 147.179 68.402C147.381 68.7457 147.482 69.1335 147.482 69.5653C147.482 69.929 147.415 70.2358 147.282 70.4858C147.148 70.733 146.969 70.9318 146.745 71.0824C146.523 71.2301 146.279 71.3381 146.012 71.4062V71.4915C146.301 71.5057 146.584 71.5994 146.86 71.7727C147.138 71.9432 147.368 72.1861 147.55 72.5014C147.732 72.8168 147.823 73.2003 147.823 73.652C147.823 74.098 147.718 74.4986 147.507 74.8537C147.3 75.206 146.979 75.4858 146.544 75.6932C146.11 75.8977 145.554 76 144.878 76H141.533ZM142.85 74.8707H144.75C145.381 74.8707 145.833 74.7486 146.105 74.5043C146.378 74.2599 146.515 73.9545 146.515 73.5881C146.515 73.3125 146.445 73.0597 146.306 72.8295C146.167 72.5994 145.968 72.4162 145.709 72.2798C145.453 72.1435 145.15 72.0753 144.797 72.0753H142.85V74.8707ZM142.85 71.0483H144.614C144.909 71.0483 145.175 70.9915 145.411 70.8778C145.65 70.7642 145.838 70.6051 145.978 70.4006C146.12 70.1932 146.191 69.9489 146.191 69.6676C146.191 69.3068 146.064 69.0043 145.811 68.7599C145.559 68.5156 145.171 68.3935 144.648 68.3935H142.85V71.0483Z" fill="black"/>
<path d="M171.621 76V67.2727H174.732C175.411 67.2727 175.973 67.3963 176.419 67.6435C176.865 67.8906 177.199 68.2287 177.421 68.6577C177.642 69.0838 177.753 69.5639 177.753 70.098C177.753 70.6349 177.641 71.1179 177.416 71.5469C177.195 71.973 176.86 72.3111 176.411 72.5611C175.965 72.8082 175.404 72.9318 174.727 72.9318H172.588V71.8153H174.608C175.037 71.8153 175.385 71.7415 175.652 71.5938C175.919 71.4432 176.115 71.2386 176.24 70.9801C176.365 70.7216 176.428 70.4276 176.428 70.098C176.428 69.7685 176.365 69.4759 176.24 69.2202C176.115 68.9645 175.918 68.7642 175.648 68.6193C175.381 68.4744 175.029 68.402 174.591 68.402H172.938V76H171.621Z" fill="black"/>
<path d="M255.658 67.2727V76H254.342V67.2727H255.658Z" fill="black"/>
<path d="M37.0001 39.1353L40.6666 34.6754L34.971 33.7301L37.0001 39.1353ZM69.0001 38.1353H69.5001C69.5001 34.1089 67.7696 30.984 65.1053 28.8002C62.4531 26.6264 58.8907 25.3942 55.2051 25.0855C47.8743 24.4713 39.7676 27.5126 37.2661 34.5272L37.7371 34.6952L38.208 34.8631C40.4925 28.457 48.0173 25.4868 55.1216 26.082C58.6536 26.3779 62.0095 27.5558 64.4713 29.5736C66.921 31.5815 68.5001 34.43 68.5001 38.1353H69.0001Z" fill="#2EB800"/>
<path d="M117 44.1356L119.342 38.8583L113.6 39.4691L117 44.1356ZM69 38.1356H69.5C69.5 33.4033 72.0348 29.7689 75.9889 27.3008C79.9555 24.8248 85.3296 23.5426 90.8892 23.5654C102.052 23.611 113.617 28.8841 116.036 39.7713L116.524 39.6629L117.012 39.5544C114.442 27.9865 102.246 22.6118 90.8933 22.5654C85.1956 22.5421 79.624 23.8529 75.4593 26.4525C71.2822 29.0599 68.5 32.9836 68.5 38.1356H69Z" fill="#2EB800"/>
<path d="M27 44.136L30.3263 39.417L24.5764 38.8958L27 44.136ZM124 40.5H124.5C124.5 31.1151 118.726 24.069 110.102 19.3696C101.485 14.6737 89.9609 12.2775 78.2561 12.1745C66.549 12.0715 54.6082 14.262 45.1502 18.7908C35.6947 23.3184 28.6537 30.2206 26.9146 39.5633L27.4062 39.6547L27.8978 39.7462C29.5568 30.833 36.2891 24.1425 45.5821 19.6927C54.8725 15.2441 66.6554 13.0725 78.2473 13.1745C89.8413 13.2765 101.191 15.6524 109.624 20.2477C118.05 24.8396 123.5 31.6037 123.5 40.5H124Z" fill="#1948E6"/>
<path d="M107 96.1356L103.391 100.642L109.098 101.515L107 96.1356ZM81 95.1356H80.5C80.5 99.3165 81.8669 102.587 84.0115 104.927C86.1513 107.262 89.0408 108.643 92.0489 109.096C98.0453 110 104.651 107.219 106.795 100.74L106.32 100.583L105.845 100.426C103.891 106.332 97.8373 108.958 92.198 108.108C89.3883 107.684 86.7161 106.398 84.7486 104.251C82.7859 102.11 81.5 99.0859 81.5 95.1356H81Z" fill="#2EB800"/>
<path d="M23 94.1356L21.0356 99.5646L26.7195 98.5514L23 94.1356ZM81 95.1356H80.5C80.5 100.014 77.518 103.803 72.7905 106.474C68.058 109.148 61.6407 110.656 54.974 110.957C48.3106 111.257 41.4458 110.349 35.8321 108.233C30.2071 106.113 25.9201 102.815 24.2582 98.3922L23.7902 98.5681L23.3221 98.744C25.1287 103.552 29.7272 107.001 35.4795 109.169C41.243 111.341 48.2471 112.261 55.019 111.956C61.7876 111.651 68.3721 110.119 73.2825 107.344C78.1979 104.567 81.5 100.499 81.5 95.1356H81Z" fill="#2EB800"/>
<path d="M129 38.1356L132.576 33.6026L126.862 32.7724L129 38.1356ZM185 40.1359H185.5C185.5 33.6268 182.33 28.644 177.52 25.1794C172.723 21.7247 166.293 19.7719 159.699 19.2632C153.103 18.7544 146.296 19.6868 140.73 22.0514C135.165 24.415 130.784 28.237 129.169 33.5349L129.647 33.6807L130.126 33.8266C131.626 28.9062 135.722 25.265 141.12 22.9718C146.517 20.6797 153.159 19.7617 159.622 20.2602C166.087 20.759 172.326 22.6713 176.935 25.9908C181.53 29.3006 184.5 34.0011 184.5 40.1359H185Z" fill="#1948E6"/>
<path d="M172 94.1356L168.341 98.6013L174.038 99.5376L172 94.1356ZM144 93.1356H143.5C143.5 97.3285 144.977 100.604 147.286 102.942C149.587 105.273 152.69 106.647 155.914 107.098C162.332 107.995 169.434 105.234 171.742 98.7421L171.27 98.5746L170.799 98.4072C168.701 104.309 162.168 106.962 156.052 106.107C153.01 105.682 150.121 104.39 147.997 102.239C145.881 100.096 144.5 97.0757 144.5 93.1356H144Z" fill="#2EB800"/>
<path d="M114 93.1356L111.918 98.5208L117.623 97.631L114 93.1356ZM144 93.1356H143.5C143.5 97.0896 142.007 100.119 139.712 102.256C137.409 104.401 134.274 105.667 130.978 106.028C124.354 106.754 117.314 103.826 115.168 97.4248L114.694 97.5837L114.22 97.7427C116.568 104.745 124.181 107.779 131.087 107.022C134.556 106.642 137.905 105.305 140.394 102.987C142.892 100.661 144.5 97.3665 144.5 93.1356H144Z" fill="#2EB800"/>
<path d="M174 10.8218C174 10.0064 174.156 9.25749 174.469 8.5749C174.782 7.89231 175.185 7.34719 175.678 6.93953C176.171 6.53187 176.688 6.21902 177.228 6.00097C177.768 5.78292 178.28 5.66916 178.764 5.65968C178.792 5.65968 178.835 5.65968 178.892 5.65968C178.949 5.65968 178.987 5.66442 179.006 5.6739C179.868 5.6739 180.632 5.99623 181.295 6.6409L181.48 6.81154L181.907 6.25694C182.163 5.90617 182.31 5.71182 182.347 5.6739C182.357 5.6739 182.376 5.6739 182.404 5.6739C182.433 5.6739 182.461 5.66916 182.49 5.65968H182.547C182.575 5.65968 182.618 5.68812 182.675 5.745V9.72677L182.589 9.81209H182.106C182.049 9.75521 182.016 9.67462 182.006 9.57034C181.921 8.79295 181.693 8.11984 181.324 7.55102C180.954 6.98219 180.504 6.60772 179.973 6.42759C179.793 6.36123 179.556 6.32804 179.262 6.32804C179.025 6.32804 178.788 6.34701 178.551 6.38493C178.314 6.42285 178.029 6.52239 177.697 6.68356C177.366 6.84473 177.072 7.03907 176.816 7.2666C176.56 7.49413 176.327 7.84017 176.119 8.30471C175.91 8.76925 175.778 9.28119 175.721 9.84053C175.683 10.2387 175.664 10.599 175.664 10.9213C175.664 11.6418 175.754 12.277 175.934 12.8269C176.114 13.3767 176.332 13.8033 176.588 14.1067C176.844 14.4101 177.147 14.6613 177.498 14.8604C177.849 15.0595 178.171 15.1875 178.465 15.2444C178.759 15.3012 179.048 15.3344 179.333 15.3439C179.778 15.3439 180.167 15.2444 180.499 15.0453C180.831 14.8462 181.049 14.5855 181.153 14.2631C181.181 14.1683 181.196 13.8839 181.196 13.4099V12.6704C181.186 12.6609 181.162 12.642 181.125 12.6135C181.087 12.5851 181.058 12.5661 181.039 12.5567C181.02 12.5472 180.978 12.533 180.911 12.514C180.845 12.495 180.769 12.4856 180.684 12.4856C180.598 12.4856 180.485 12.4808 180.342 12.4713C180.2 12.4619 180.015 12.4571 179.788 12.4571H179.418V11.803H179.589L181.864 11.8456C182.869 11.8456 183.428 11.8314 183.542 11.803H183.656V12.4571H183.457C183.011 12.4571 182.76 12.514 182.703 12.6278C182.684 12.6657 182.675 13.1729 182.675 14.1494V15.5999C182.618 15.6568 182.575 15.6852 182.547 15.6852C182.509 15.6852 182.423 15.6378 182.291 15.543C182.082 15.4008 181.897 15.2491 181.736 15.0879L181.551 14.9173C181.399 15.1733 181.101 15.415 180.655 15.6425C180.21 15.8701 179.65 15.9886 178.977 15.998C178.133 15.998 177.337 15.7895 176.588 15.3723C175.839 14.9552 175.223 14.3437 174.739 13.5379C174.256 12.7321 174.009 11.8267 174 10.8218Z" fill="black"/>
<path d="M185.163 10.8502C185.163 10.0633 185.305 9.33332 185.59 8.66021C185.874 7.98711 186.244 7.43724 186.699 7.01063C187.154 6.58401 187.656 6.25219 188.206 6.01518C188.756 5.77817 189.316 5.65967 189.884 5.65967C191.145 5.65967 192.25 6.15265 193.198 7.13861C194.146 8.12457 194.625 9.35702 194.634 10.836C194.634 11.6039 194.497 12.3149 194.222 12.9691C193.947 13.6232 193.586 14.1731 193.141 14.6186C192.695 15.0642 192.188 15.4008 191.619 15.6283C191.05 15.8558 190.472 15.9791 189.884 15.998C189.297 16.017 188.723 15.8985 188.164 15.6425C187.604 15.3866 187.097 15.05 186.642 14.6329C186.187 14.2157 185.832 13.6706 185.576 12.9975C185.32 12.3244 185.182 11.6086 185.163 10.8502ZM191.008 6.48446C190.619 6.31382 190.245 6.22849 189.884 6.22849C189.619 6.22849 189.349 6.28063 189.074 6.38492C188.799 6.4892 188.505 6.65037 188.192 6.86842C187.879 7.08647 187.614 7.42302 187.396 7.87808C187.178 8.33314 187.017 8.85456 186.912 9.44235C186.865 9.7078 186.841 10.1107 186.841 10.6511C186.841 12.642 187.329 14.0309 188.306 14.8177C188.78 15.2064 189.292 15.4008 189.842 15.4008H189.899H189.927C190.714 15.4008 191.406 15.0263 192.003 14.2773C192.629 13.4336 192.942 12.2248 192.942 10.6511C192.942 10.1107 192.918 9.7078 192.871 9.44235C192.672 7.99185 192.051 7.00588 191.008 6.48446Z" fill="black"/>
<path d="M197.279 6.83997C197.213 6.77361 197.161 6.73095 197.123 6.71199C197.085 6.69303 197.009 6.67881 196.895 6.66933C196.781 6.65985 196.578 6.64562 196.284 6.62666H195.814V5.97252H198.474C198.692 5.97252 198.986 5.97252 199.355 5.97252C199.725 5.97252 199.986 5.96778 200.137 5.9583C200.972 5.9583 201.635 6.01992 202.128 6.14316C202.621 6.26641 203.076 6.52712 203.494 6.9253C204.034 7.42776 204.304 8.02976 204.304 8.73131C204.304 9.37598 204.062 9.93058 203.579 10.3951C203.095 10.8597 202.517 11.1678 201.844 11.3195C201.635 11.3669 201.052 11.3953 200.095 11.4048H198.758V13.1113C198.758 14.2394 198.772 14.8225 198.801 14.8604C198.877 14.9647 199.194 15.0216 199.753 15.031H200.223V15.6852H200.066C199.867 15.6567 199.185 15.6425 198.019 15.6425C196.739 15.6425 196.056 15.6567 195.971 15.6852H195.814V15.031H196.284C196.682 15.0216 196.924 15.0073 197.009 14.9884C197.094 14.9694 197.184 14.9125 197.279 14.8177V6.83997ZM202.64 8.74553C202.64 8.49904 202.636 8.30943 202.626 8.17671C202.617 8.04398 202.588 7.87334 202.541 7.66477C202.493 7.4562 202.413 7.29977 202.299 7.19549C202.185 7.0912 202.029 6.98218 201.83 6.86841C201.631 6.75465 201.379 6.68355 201.076 6.6551C200.962 6.63614 200.536 6.62666 199.796 6.62666H199.498C199.033 6.62666 198.786 6.66933 198.758 6.75465C198.73 6.79257 198.715 7.4799 198.715 8.81663V10.8217H199.725H200.251C200.735 10.8217 201.133 10.7886 201.446 10.7222C201.759 10.6558 202.034 10.4994 202.271 10.2529C202.517 9.97798 202.64 9.47552 202.64 8.74553Z" fill="black"/>
<path d="M206.06 7.02698C206.06 6.56449 206.093 6.12547 206.16 5.70991C206.227 5.29434 206.304 4.93575 206.391 4.63413C206.479 4.33252 206.603 4.0376 206.763 3.74939C206.924 3.46117 207.052 3.23663 207.146 3.07577C207.239 2.91491 207.38 2.74064 207.568 2.55297C207.755 2.36529 207.866 2.25135 207.9 2.21113C207.933 2.17092 208.017 2.10054 208.151 2H208.282H208.322C208.416 2 208.463 2.03016 208.463 2.09048C208.463 2.11059 208.406 2.18097 208.292 2.30162C208.178 2.42226 208.04 2.59988 207.879 2.83448C207.719 3.06907 207.554 3.35728 207.387 3.69912C207.219 4.04095 207.078 4.50343 206.965 5.08656C206.851 5.66969 206.794 6.3165 206.794 7.02698C206.794 7.73746 206.851 8.38091 206.965 8.95734C207.078 9.53376 207.216 9.9996 207.377 10.3548C207.538 10.7101 207.702 10.9983 207.869 11.2195C208.037 11.4407 208.178 11.6183 208.292 11.7523C208.406 11.8864 208.463 11.9568 208.463 11.9635C208.463 12.0238 208.412 12.054 208.312 12.054H208.282H208.151L207.869 11.8127C207.239 11.2429 206.78 10.5325 206.492 9.68122C206.204 8.82999 206.06 7.94524 206.06 7.02698Z" fill="black"/>
<path d="M209.237 6.65498C209.243 6.61477 209.254 6.56115 209.267 6.49412C209.28 6.42709 209.321 6.29974 209.388 6.11207C209.455 5.92439 209.522 5.76688 209.589 5.63953C209.656 5.51218 209.766 5.38818 209.92 5.26754C210.075 5.14689 210.229 5.08992 210.383 5.09662C210.624 5.09662 210.825 5.15694 210.986 5.27759C211.147 5.39824 211.248 5.51218 211.288 5.61942C211.328 5.72667 211.348 5.79704 211.348 5.83056C211.348 5.84396 211.351 5.85067 211.358 5.85067L211.469 5.74007C211.878 5.3111 212.343 5.09662 212.866 5.09662C213.228 5.09662 213.52 5.1871 213.741 5.36808C213.962 5.54905 214.076 5.8138 214.083 6.16234C214.089 6.51088 213.962 7.03703 213.701 7.74081C213.439 8.44459 213.312 8.8702 213.319 9.01766C213.319 9.19193 213.376 9.27907 213.49 9.27907C213.53 9.27907 213.56 9.27571 213.58 9.26901C213.774 9.2355 213.949 9.10815 214.103 8.88696C214.257 8.66577 214.374 8.39767 214.455 8.08264C214.468 8.02902 214.535 8.00221 214.656 8.00221C214.79 8.00221 214.857 8.02902 214.857 8.08264C214.857 8.08935 214.844 8.13962 214.817 8.23345C214.763 8.42783 214.689 8.61886 214.596 8.80653C214.502 8.9942 214.348 9.18188 214.133 9.36955C213.919 9.55723 213.687 9.64771 213.439 9.64101C213.124 9.64101 212.896 9.55052 212.756 9.36955C212.615 9.18858 212.545 9.00091 212.545 8.80653C212.545 8.67918 212.665 8.27702 212.906 7.60005C213.148 6.92309 213.272 6.41369 213.278 6.07185C213.278 5.6764 213.131 5.47867 212.836 5.47867H212.786C212.209 5.47867 211.723 5.81715 211.328 6.49412L211.258 6.61477L210.926 7.962C210.705 8.84004 210.577 9.31258 210.544 9.37961C210.457 9.56058 210.313 9.65106 210.111 9.65106C210.024 9.65106 209.954 9.63095 209.9 9.59074C209.847 9.55052 209.81 9.51031 209.79 9.47009C209.77 9.42987 209.763 9.39636 209.77 9.36955C209.77 9.28242 209.897 8.73615 210.152 7.73076C210.406 6.72536 210.54 6.1791 210.554 6.09196C210.561 6.05845 210.564 5.98137 210.564 5.86072C210.564 5.59932 210.483 5.46862 210.323 5.46862C210.068 5.46862 209.857 5.80375 209.689 6.47401C209.649 6.60806 209.629 6.67844 209.629 6.68514C209.615 6.72536 209.552 6.74547 209.438 6.74547H209.297C209.257 6.70525 209.237 6.67509 209.237 6.65498Z" fill="black"/>
<path d="M215.661 2.01005L215.701 2C215.735 2 215.768 2 215.802 2H215.923L216.204 2.24129C216.834 2.81102 217.293 3.5215 217.582 4.37273C217.87 5.22397 218.014 6.10872 218.014 7.02698C218.014 7.48276 217.98 7.92178 217.913 8.34404C217.846 8.76631 217.769 9.1249 217.682 9.41982C217.595 9.71473 217.471 10.0097 217.31 10.3046C217.149 10.5995 217.022 10.824 216.928 10.9782C216.834 11.1323 216.697 11.3033 216.516 11.4909C216.335 11.6786 216.228 11.7892 216.194 11.8227C216.161 11.8562 216.083 11.9199 215.963 12.0137C215.943 12.0338 215.929 12.0473 215.923 12.054H215.802C215.748 12.054 215.712 12.054 215.691 12.054C215.671 12.054 215.655 12.0439 215.641 12.0238C215.628 12.0037 215.618 11.9735 215.611 11.9333C215.618 11.9266 215.655 11.883 215.722 11.8026C216.76 10.7235 217.28 9.1316 217.28 7.02698C217.28 4.92235 216.76 3.33047 215.722 2.25135C215.655 2.17092 215.618 2.12735 215.611 2.12065C215.611 2.06702 215.628 2.03016 215.661 2.01005Z" fill="black"/>
<path d="M241 10.8218C241 10.0064 241.156 9.25749 241.469 8.5749C241.782 7.89231 242.185 7.34719 242.678 6.93953C243.171 6.53187 243.688 6.21902 244.228 6.00097C244.768 5.78292 245.28 5.66916 245.764 5.65968C245.792 5.65968 245.835 5.65968 245.892 5.65968C245.949 5.65968 245.987 5.66442 246.006 5.6739C246.868 5.6739 247.632 5.99623 248.295 6.6409L248.48 6.81155L248.907 6.25694C249.163 5.90617 249.31 5.71182 249.347 5.6739C249.357 5.6739 249.376 5.6739 249.404 5.6739C249.433 5.6739 249.461 5.66916 249.49 5.65968H249.547C249.575 5.65968 249.618 5.68812 249.675 5.745V9.72677L249.589 9.81209H249.106C249.049 9.75521 249.016 9.67462 249.006 9.57034C248.921 8.79295 248.693 8.11984 248.324 7.55102C247.954 6.98219 247.504 6.60772 246.973 6.42759C246.793 6.36123 246.556 6.32805 246.262 6.32805C246.025 6.32805 245.788 6.34701 245.551 6.38493C245.314 6.42285 245.029 6.52239 244.697 6.68356C244.366 6.84473 244.072 7.03907 243.816 7.2666C243.56 7.49413 243.327 7.84017 243.119 8.30471C242.91 8.76925 242.778 9.28119 242.721 9.84053C242.683 10.2387 242.664 10.599 242.664 10.9213C242.664 11.6418 242.754 12.277 242.934 12.8269C243.114 13.3767 243.332 13.8033 243.588 14.1067C243.844 14.4101 244.147 14.6613 244.498 14.8604C244.849 15.0595 245.171 15.1875 245.465 15.2444C245.759 15.3012 246.048 15.3344 246.333 15.3439C246.778 15.3439 247.167 15.2444 247.499 15.0453C247.831 14.8462 248.049 14.5855 248.153 14.2631C248.181 14.1683 248.196 13.8839 248.196 13.4099V12.6704C248.186 12.6609 248.162 12.642 248.125 12.6135C248.087 12.5851 248.058 12.5661 248.039 12.5567C248.02 12.5472 247.978 12.533 247.911 12.514C247.845 12.495 247.769 12.4856 247.684 12.4856C247.598 12.4856 247.485 12.4808 247.342 12.4713C247.2 12.4619 247.015 12.4571 246.788 12.4571H246.418V11.803H246.589L248.864 11.8456C249.869 11.8456 250.428 11.8314 250.542 11.803H250.656V12.4571H250.457C250.011 12.4571 249.76 12.514 249.703 12.6278C249.684 12.6657 249.675 13.1729 249.675 14.1494V15.5999C249.618 15.6568 249.575 15.6852 249.547 15.6852C249.509 15.6852 249.423 15.6378 249.291 15.543C249.082 15.4008 248.897 15.2491 248.736 15.0879L248.551 14.9173C248.399 15.1733 248.101 15.415 247.655 15.6425C247.21 15.8701 246.65 15.9886 245.977 15.998C245.133 15.998 244.337 15.7895 243.588 15.3723C242.839 14.9552 242.223 14.3437 241.739 13.5379C241.256 12.7321 241.009 11.8267 241 10.8218Z" fill="black"/>
<path d="M252.163 10.8502C252.163 10.0633 252.305 9.33332 252.59 8.66021C252.874 7.98711 253.244 7.43724 253.699 7.01062C254.154 6.58401 254.656 6.25219 255.206 6.01518C255.756 5.77817 256.316 5.65967 256.884 5.65967C258.145 5.65967 259.25 6.15265 260.198 7.13861C261.146 8.12457 261.625 9.35702 261.634 10.836C261.634 11.6039 261.497 12.3149 261.222 12.9691C260.947 13.6232 260.586 14.1731 260.141 14.6186C259.695 15.0642 259.188 15.4008 258.619 15.6283C258.05 15.8558 257.472 15.9791 256.884 15.998C256.297 16.017 255.723 15.8985 255.164 15.6425C254.604 15.3866 254.097 15.05 253.642 14.6329C253.187 14.2157 252.832 13.6706 252.576 12.9975C252.32 12.3244 252.182 11.6086 252.163 10.8502ZM258.008 6.48446C257.619 6.31382 257.245 6.22849 256.884 6.22849C256.619 6.22849 256.349 6.28063 256.074 6.38492C255.799 6.4892 255.505 6.65037 255.192 6.86842C254.879 7.08647 254.614 7.42302 254.396 7.87808C254.178 8.33314 254.017 8.85456 253.912 9.44235C253.865 9.7078 253.841 10.1107 253.841 10.6511C253.841 12.642 254.329 14.0309 255.306 14.8177C255.78 15.2064 256.292 15.4008 256.842 15.4008H256.899H256.927C257.714 15.4008 258.406 15.0263 259.003 14.2773C259.629 13.4336 259.942 12.2248 259.942 10.6511C259.942 10.1107 259.918 9.7078 259.871 9.44235C259.672 7.99185 259.051 7.00588 258.008 6.48446Z" fill="black"/>
<path d="M264.279 6.83997C264.213 6.77361 264.161 6.73095 264.123 6.71199C264.085 6.69303 264.009 6.67881 263.895 6.66933C263.781 6.65985 263.578 6.64562 263.284 6.62666H262.814V5.97252H265.474C265.692 5.97252 265.986 5.97252 266.355 5.97252C266.725 5.97252 266.986 5.96778 267.137 5.9583C267.972 5.9583 268.635 6.01992 269.128 6.14316C269.621 6.26641 270.076 6.52712 270.494 6.9253C271.034 7.42776 271.304 8.02976 271.304 8.73131C271.304 9.37598 271.062 9.93058 270.579 10.3951C270.095 10.8597 269.517 11.1678 268.844 11.3195C268.635 11.3669 268.052 11.3953 267.095 11.4048H265.758V13.1113C265.758 14.2394 265.772 14.8225 265.801 14.8604C265.877 14.9647 266.194 15.0216 266.753 15.031H267.223V15.6852H267.066C266.867 15.6567 266.185 15.6425 265.019 15.6425C263.739 15.6425 263.056 15.6567 262.971 15.6852H262.814V15.031H263.284C263.682 15.0216 263.924 15.0073 264.009 14.9884C264.094 14.9694 264.184 14.9125 264.279 14.8177V6.83997ZM269.64 8.74553C269.64 8.49904 269.636 8.30943 269.626 8.17671C269.617 8.04398 269.588 7.87334 269.541 7.66477C269.493 7.4562 269.413 7.29977 269.299 7.19549C269.185 7.0912 269.029 6.98218 268.83 6.86841C268.631 6.75465 268.379 6.68355 268.076 6.6551C267.962 6.63614 267.536 6.62666 266.796 6.62666H266.498C266.033 6.62666 265.786 6.66933 265.758 6.75465C265.73 6.79257 265.715 7.4799 265.715 8.81663V10.8217H266.725H267.251C267.735 10.8217 268.133 10.7886 268.446 10.7222C268.759 10.6558 269.034 10.4994 269.271 10.2529C269.517 9.97798 269.64 9.47552 269.64 8.74553Z" fill="black"/>
<path d="M273.06 7.02698C273.06 6.56449 273.093 6.12547 273.16 5.70991C273.227 5.29434 273.304 4.93575 273.391 4.63413C273.479 4.33252 273.603 4.0376 273.763 3.74939C273.924 3.46117 274.052 3.23663 274.146 3.07577C274.239 2.91491 274.38 2.74064 274.568 2.55296C274.755 2.36529 274.866 2.25135 274.9 2.21113C274.933 2.17091 275.017 2.10054 275.151 2H275.282H275.322C275.416 2 275.463 2.03016 275.463 2.09048C275.463 2.11059 275.406 2.18097 275.292 2.30162C275.178 2.42226 275.04 2.59988 274.879 2.83448C274.719 3.06907 274.554 3.35728 274.387 3.69912C274.219 4.04095 274.078 4.50343 273.965 5.08656C273.851 5.66969 273.794 6.3165 273.794 7.02698C273.794 7.73746 273.851 8.38091 273.965 8.95734C274.078 9.53376 274.216 9.9996 274.377 10.3548C274.538 10.7101 274.702 10.9983 274.869 11.2195C275.037 11.4407 275.178 11.6183 275.292 11.7523C275.406 11.8864 275.463 11.9568 275.463 11.9635C275.463 12.0238 275.412 12.054 275.312 12.054H275.282H275.151L274.869 11.8127C274.239 11.2429 273.78 10.5325 273.492 9.68122C273.204 8.82999 273.06 7.94524 273.06 7.02698Z" fill="black"/>
<path d="M276.237 6.65498C276.243 6.61477 276.254 6.56115 276.267 6.49412C276.28 6.42709 276.321 6.29974 276.388 6.11207C276.455 5.92439 276.522 5.76688 276.589 5.63953C276.656 5.51218 276.766 5.38818 276.92 5.26754C277.075 5.14689 277.229 5.08992 277.383 5.09662C277.624 5.09662 277.825 5.15694 277.986 5.27759C278.147 5.39824 278.248 5.51218 278.288 5.61942C278.328 5.72667 278.348 5.79704 278.348 5.83056C278.348 5.84396 278.351 5.85067 278.358 5.85067L278.469 5.74007C278.878 5.3111 279.343 5.09662 279.866 5.09662C280.228 5.09662 280.52 5.1871 280.741 5.36808C280.962 5.54905 281.076 5.8138 281.083 6.16234C281.089 6.51088 280.962 7.03703 280.701 7.74081C280.439 8.44459 280.312 8.8702 280.319 9.01766C280.319 9.19193 280.376 9.27907 280.49 9.27907C280.53 9.27907 280.56 9.27571 280.58 9.26901C280.774 9.2355 280.949 9.10815 281.103 8.88696C281.257 8.66577 281.374 8.39767 281.455 8.08264C281.468 8.02902 281.535 8.00221 281.656 8.00221C281.79 8.00221 281.857 8.02902 281.857 8.08264C281.857 8.08935 281.844 8.13962 281.817 8.23345C281.763 8.42783 281.689 8.61886 281.596 8.80653C281.502 8.9942 281.348 9.18188 281.133 9.36955C280.919 9.55723 280.687 9.64771 280.439 9.64101C280.124 9.64101 279.896 9.55052 279.756 9.36955C279.615 9.18858 279.545 9.00091 279.545 8.80653C279.545 8.67918 279.665 8.27702 279.906 7.60005C280.148 6.92309 280.272 6.41369 280.278 6.07185C280.278 5.6764 280.131 5.47867 279.836 5.47867H279.786C279.209 5.47867 278.723 5.81715 278.328 6.49412L278.258 6.61477L277.926 7.962C277.705 8.84004 277.577 9.31258 277.544 9.37961C277.457 9.56058 277.313 9.65106 277.111 9.65106C277.024 9.65106 276.954 9.63095 276.9 9.59074C276.847 9.55052 276.81 9.51031 276.79 9.47009C276.77 9.42987 276.763 9.39636 276.77 9.36955C276.77 9.28242 276.897 8.73615 277.152 7.73076C277.406 6.72536 277.54 6.1791 277.554 6.09196C277.561 6.05845 277.564 5.98137 277.564 5.86072C277.564 5.59932 277.483 5.46862 277.323 5.46862C277.068 5.46862 276.857 5.80375 276.689 6.47401C276.649 6.60806 276.629 6.67844 276.629 6.68514C276.615 6.72536 276.552 6.74547 276.438 6.74547H276.297C276.257 6.70525 276.237 6.67509 276.237 6.65498Z" fill="black"/>
<path d="M282.621 7.15772C282.621 7.15772 282.621 7.11415 282.621 7.02702C282.621 6.93988 282.668 6.87285 282.762 6.82594H285.768V5.31784L285.778 3.80975C285.845 3.72261 285.909 3.67905 285.969 3.67905C286.056 3.67905 286.123 3.72932 286.17 3.82986V6.82594H289.166C289.267 6.87956 289.317 6.94658 289.317 7.02702C289.317 7.10745 289.267 7.17447 289.166 7.22809H286.17V10.2242C286.116 10.318 286.056 10.3649 285.989 10.3649H285.969H285.949C285.868 10.3649 285.808 10.318 285.768 10.2242V7.22809H282.762C282.668 7.18118 282.621 7.11415 282.621 7.02702V7.15772Z" fill="black"/>
<path d="M292.021 3.72928L291.891 3.77955C291.797 3.81306 291.663 3.84657 291.489 3.88009C291.314 3.9136 291.12 3.93706 290.906 3.95047H290.714V3.48798H290.906C291.221 3.47458 291.512 3.42431 291.78 3.33717C292.048 3.25004 292.236 3.16961 292.343 3.09588C292.45 3.02215 292.544 2.94842 292.625 2.87469C292.638 2.85458 292.678 2.84453 292.745 2.84453C292.806 2.84453 292.863 2.86464 292.916 2.90485V5.91099L292.926 8.92717C292.973 8.97409 293.013 9.00426 293.047 9.01766C293.081 9.03107 293.161 9.04447 293.288 9.05788C293.416 9.07128 293.623 9.07798 293.912 9.07798H294.173V9.54047H294.062C293.922 9.52036 293.389 9.5103 292.464 9.5103C291.552 9.5103 291.026 9.52036 290.885 9.54047H290.765V9.07798H291.026C291.174 9.07798 291.301 9.07798 291.408 9.07798C291.515 9.07798 291.599 9.07463 291.66 9.06793C291.72 9.06123 291.773 9.05117 291.82 9.03777C291.867 9.02436 291.894 9.01766 291.901 9.01766C291.908 9.01766 291.928 9.0009 291.961 8.96739C291.995 8.93388 292.015 8.92047 292.021 8.92717V3.72928Z" fill="black"/>
<path d="M295.51 2.01005L295.55 2C295.584 2 295.617 2 295.651 2H295.772L296.053 2.24129C296.683 2.81102 297.142 3.5215 297.43 4.37273C297.719 5.22397 297.863 6.10871 297.863 7.02698C297.863 7.48276 297.829 7.92178 297.762 8.34404C297.695 8.76631 297.618 9.1249 297.531 9.41982C297.444 9.71473 297.32 10.0097 297.159 10.3046C296.998 10.5995 296.871 10.824 296.777 10.9782C296.683 11.1323 296.546 11.3033 296.365 11.4909C296.184 11.6786 296.077 11.7892 296.043 11.8227C296.01 11.8562 295.932 11.9199 295.812 12.0137C295.792 12.0338 295.778 12.0473 295.772 12.054H295.651C295.597 12.054 295.56 12.054 295.54 12.054C295.52 12.054 295.503 12.0439 295.49 12.0238C295.477 12.0037 295.467 11.9735 295.46 11.9333C295.467 11.9266 295.503 11.883 295.57 11.8026C296.609 10.7235 297.129 9.1316 297.129 7.02698C297.129 4.92235 296.609 3.33047 295.57 2.25135C295.503 2.17091 295.467 2.12735 295.46 2.12064C295.46 2.06702 295.477 2.03016 295.51 2.01005Z" fill="black"/>
</svg>
